<?xml version="1.0" standalone="no"?>
<!DOCTYPE svg PUBLIC "-//W3C//DTD SVG 1.1//EN" "http://www.w3.org/Graphics/SVG/1.1/DTD/svg11.dtd" >
<svg xmlns="http://www.w3.org/2000/svg">
<metadata></metadata>
<defs>
<font id="fs_lolalight" horiz-adv-x="520" >
<font-face units-per-em="2048" ascent="1536" descent="-512" />
<missing-glyph horiz-adv-x="471" />
<glyph unicode="&#xfb01;" horiz-adv-x="1107" d="M61 905v88h142v158q0 74 16.5 124t46.5 83q33 35 81 51t110 16q39 0 89 -8t85 -20l-21 -80q-25 8 -63.5 14t-71.5 6q-39 0 -68.5 -7t-48.5 -25q-27 -27 -34 -66t-7 -104v-142h586v-807q0 -61 11.5 -83.5t46.5 -22.5q29 0 49 10l-6 -82q-12 -6 -36 -10t-44 -4 q-135 0 -136 147v764h-471v-905h-114v905h-142zM754 1272q0 33 23.5 56.5t56.5 23.5t57 -23.5t24 -56.5t-24.5 -57.5t-56.5 -24.5q-33 0 -56.5 24.5t-23.5 57.5z" />
<glyph unicode="&#xfb02;" horiz-adv-x="1122" d="M61 905v88h142v158q0 74 16.5 124t46.5 83q33 35 81 51t110 16q41 0 87 -8t79 -20v-88q-29 12 -68 20t-80 8q-39 0 -68.5 -7t-48.5 -25q-27 -27 -34 -66t-7 -104v-142h252v-88h-252v-905h-114v905h-142zM803 141v1260h115v-1215q0 -57 10 -81.5t47 -24.5q29 0 49 10 l-6 -82q-29 -14 -80 -14q-135 0 -135 147z" />
<glyph horiz-adv-x="2048" />
<glyph horiz-adv-x="2048" />
<glyph unicode="&#xd;" horiz-adv-x="471" />
<glyph unicode=" "  horiz-adv-x="471" />
<glyph unicode="&#x09;" horiz-adv-x="471" />
<glyph unicode="&#xa0;" horiz-adv-x="471" />
<glyph unicode="!" horiz-adv-x="573" d="M203 78q0 35 24.5 59.5t59.5 24.5t60.5 -24.5t25.5 -59.5t-25.5 -60.5t-60.5 -25.5t-59.5 25.5t-24.5 60.5zM207 1208q-4 59 16.5 83t63.5 24t63.5 -23.5t16.5 -83.5l-48 -835h-65z" />
<glyph unicode="&#x22;" horiz-adv-x="595" d="M106 1249q0 39 18.5 52.5t53.5 13.5q37 0 54.5 -15.5t17.5 -52.5q0 -12 -1 -24.5t-3 -24.5l-43 -287h-49l-43 287q-2 12 -3.5 24.5t-1.5 26.5zM346 1249q0 39 18.5 52.5t53.5 13.5q37 0 54 -15.5t17 -52.5q0 -12 -1 -24.5t-3 -24.5l-43 -287h-49l-43 287q-2 12 -3 24.5 t-1 26.5z" />
<glyph unicode="#" horiz-adv-x="1081" d="M131 436v94h205v238h-205v94h205v434h94v-434h225v434h95v-434h202v-94h-202v-238h202v-94h-202v-436h-95v436h-225v-436h-94v436h-205zM430 530h225v238h-225v-238z" />
<glyph unicode="$" horiz-adv-x="1081" d="M162 989q0 80 27.5 138.5t74.5 97.5t108.5 60.5t129.5 27.5v200h90v-198q59 -4 124.5 -15.5t121.5 -29.5l-4 -96q-59 23 -120 36t-122 17v-529q61 -25 120.5 -53.5t105.5 -71.5t75 -103t29 -148q0 -82 -26 -141.5t-71 -99.5t-104 -62.5t-129 -30.5v-209h-90v203h-2 q-82 0 -168 15t-162 48l4 107q72 -39 156 -60.5t168 -21.5h4v551q-63 25 -124 53t-109 70t-77.5 100.5t-29.5 144.5zM272 1001q0 -55 18.5 -96t49.5 -71.5t73 -54t89 -44.5v488q-45 -6 -87 -20.5t-74 -40t-50.5 -65.5t-18.5 -96zM592 76q94 14 157.5 69t63.5 170 q0 55 -17.5 96.5t-48 72t-70.5 54t-85 44.5v-506z" />
<glyph unicode="%" horiz-adv-x="1644" d="M152 932q0 174 77.5 278.5t206.5 104.5t207 -104.5t78 -278.5t-78 -278.5t-207 -104.5t-206.5 104.5t-77.5 278.5zM252 932q0 -154 52 -229.5t132 -75.5t132.5 75.5t52.5 229.5t-52.5 229.5t-132.5 75.5t-132 -76t-52 -229zM549 -16l446 1331h97l-447 -1331h-96zM924 365 q0 174 77.5 278.5t206.5 104.5t207 -104.5t78 -278.5t-78 -278.5t-207 -104.5t-206.5 104t-77.5 279zM1024 365q0 -154 52 -230t132 -76t132.5 76t52.5 230t-52.5 229.5t-132.5 75.5t-132 -76t-52 -229z" />
<glyph unicode="&#x26;" horiz-adv-x="1353" d="M141 371q0 131 72 229t186 129q-74 29 -118.5 103.5t-44.5 164.5q0 143 94 229.5t258 86.5q78 0 150.5 -14.5t127.5 -41.5l-4 -83q-47 25 -117.5 41t-136.5 16q-137 0 -201.5 -60.5t-64.5 -169.5q0 -121 86 -184q41 -31 97.5 -45t148.5 -14h547v-84h-224v-406 q0 -53 5.5 -92t21.5 -61q33 -49 115 -49q39 0 77.5 9t67.5 23l-4 -82q-63 -35 -160 -34q-96 0 -154.5 45t-64.5 133q-59 -88 -151.5 -133t-204.5 -45q-195 0 -299.5 104t-104.5 285zM256 373q0 -135 78 -220t221 -85q104 0 173 42t108 105q33 53 46 122t13 159v178h-291 q-74 0 -131 -12.5t-104 -45.5q-53 -35 -83 -95t-30 -148z" />
<glyph unicode="'" horiz-adv-x="356" d="M106 1249q0 39 18.5 52.5t53.5 13.5q37 0 54.5 -15.5t17.5 -52.5q0 -12 -1 -24.5t-3 -24.5l-43 -287h-49l-43 287q-2 12 -3.5 24.5t-1.5 26.5z" />
<glyph unicode="(" horiz-adv-x="598" d="M205 506q0 328 87 560t273 337l33 -45q-80 -66 -132 -150t-83 -188.5t-42 -232.5t-11 -281q0 -154 11 -282t42 -232.5t83 -188.5t132 -149l-33 -45q-186 104 -273 336.5t-87 560.5z" />
<glyph unicode=")" horiz-adv-x="598" d="M0 -346q80 66 132 149.5t83 188t42 232.5t11 282t-11 281.5t-42 232t-83 188.5t-132 150l33 45q186 -104 273 -336.5t87 -560.5t-87 -560.5t-273 -336.5z" />
<glyph unicode="*" horiz-adv-x="880" d="M111 1096q0 20 16 43.5t39 23.5q16 0 29.5 -8t25.5 -18l199 -150l-35 244q-2 10 -2 29q0 55 57 55t58 -55v-14.5t-2 -14.5l-35 -242l198 148q12 10 25.5 18t30.5 8q23 0 39 -23.5t16 -43.5q0 -23 -18.5 -34t-36.5 -20l-232 -94l232 -94q16 -8 34.5 -19.5t18.5 -33.5 q0 -20 -15.5 -44t-37.5 -24q-16 0 -29.5 8.5t-26.5 18.5l-198 147l35 -241q2 -6 2 -13.5v-13.5q0 -57 -58 -57q-57 0 -57 55q0 18 2 29l35 243l-199 -149q-10 -10 -24.5 -18.5t-30.5 -8.5q-23 0 -38 23.5t-15 44.5q0 23 18.5 34t34.5 19l231 94l-231 94q-18 8 -36.5 19.5 t-18.5 34.5z" />
<glyph unicode="+" horiz-adv-x="1003" d="M209 610v90h248v248h90v-248h248v-90h-248v-248h-90v248h-248z" />
<glyph unicode="," horiz-adv-x="462" d="M127 -186q37 35 64.5 82t31.5 92q-41 10 -60.5 33.5t-19.5 52.5q0 31 18.5 56.5t63.5 25.5q41 0 67.5 -28t26.5 -73q0 -78 -41.5 -153.5t-117.5 -122.5z" />
<glyph unicode="-" horiz-adv-x="677" d="M123 436v103h432v-103h-432z" />
<glyph unicode="." horiz-adv-x="456" d="M143 78q0 35 25 59.5t59 24.5q35 0 60.5 -24.5t25.5 -59.5t-25.5 -60.5t-60.5 -25.5t-59.5 25.5t-24.5 60.5z" />
<glyph unicode="/" horiz-adv-x="577" d="M18 -18l431 1333h110l-430 -1333h-111z" />
<glyph unicode="0" horiz-adv-x="1081" d="M143 647q0 330 99.5 499t298.5 169t298 -169t99 -499t-99.5 -497.5t-297.5 -167.5q-199 0 -298.5 167.5t-99.5 497.5zM266 647q0 -305 65.5 -442t209.5 -137q143 0 208.5 137t65.5 442t-65.5 443.5t-208.5 138.5t-209 -138.5t-66 -443.5z" />
<glyph unicode="1" horiz-adv-x="1081" d="M266 1126l301 170h72v-1212h186v-84h-514v84h213v1083l-213 -120z" />
<glyph unicode="2" horiz-adv-x="1081" d="M182 1051q35 129 129.5 196.5t233.5 67.5q164 0 262 -88t98 -266q0 -102 -43 -174t-106.5 -131.5t-138 -113t-138 -115.5t-106.5 -143t-43 -194h581l-16 -90h-680v51q0 141 42 237.5t105.5 167t138 124t138 108.5t105.5 119.5t42 157.5q0 123 -61 192.5t-186 69.5 q-104 0 -166 -52.5t-94 -152.5z" />
<glyph unicode="3" horiz-adv-x="1081" d="M170 1067q35 115 129 181.5t233 66.5q158 0 246 -89t88 -237q0 -109 -53 -182.5t-139 -110.5q129 -29 189.5 -118.5t60.5 -210.5q0 -180 -115 -282.5t-320 -102.5q-78 0 -161.5 17t-137.5 52l7 103q61 -41 137 -62.5t151 -21.5q147 0 232.5 75.5t85.5 225.5 q0 117 -82 190.5t-236 75.5v90q119 4 193 77t74 189q0 102 -54.5 168t-171.5 66q-195 0 -262 -189z" />
<glyph unicode="4" horiz-adv-x="1081" d="M106 350l541 967l94 -51l-497 -885h458v260h101v-260h190v-94h-190v-287h-101v287h-565z" />
<glyph unicode="5" horiz-adv-x="1081" d="M209 45l6 94q51 -35 119.5 -52t132.5 -17q166 0 249 84t83 245q0 156 -92 224q-47 35 -122 49t-198 14h-149v610h585v-90h-487v-432h70q129 0 214 -13t146 -50q72 -41 110.5 -117t38.5 -199q0 -186 -110.5 -299.5t-329.5 -113.5q-82 0 -150.5 17t-115.5 46z" />
<glyph unicode="6" horiz-adv-x="1081" d="M158 573q0 121 19.5 252t72.5 240t147.5 179.5t245.5 70.5q53 0 110.5 -10.5t104.5 -32.5l-4 -86q-35 18 -88 31.5t-113 13.5q-104 0 -171.5 -47t-107.5 -120t-59.5 -162t-27.5 -175q63 59 141 83t156 24q96 0 165.5 -31t113.5 -85t65.5 -130t21.5 -166q0 -92 -23.5 -172 t-71.5 -140.5t-122 -94t-172 -33.5q-127 0 -206 53t-123 138t-59 190.5t-15 209.5zM279 616q0 -121 11 -221t43 -174t88 -114.5t144 -40.5q78 0 129 30.5t82 80.5t43 114.5t12 132.5q0 72 -10 131t-38.5 101t-79 64.5t-132.5 22.5q-84 0 -159.5 -32.5t-132.5 -94.5z" />
<glyph unicode="7" horiz-adv-x="1081" d="M166 1206v90h690l23 -61l-451 -1235h-119l453 1206h-596z" />
<glyph unicode="8" horiz-adv-x="1081" d="M170 346q0 129 66.5 219t191.5 133q-43 23 -82 50.5t-68.5 65.5t-47 87t-17.5 115q0 70 24.5 126t69.5 94t106.5 58.5t133.5 20.5q162 0 247 -82t85 -217q0 -119 -64.5 -197t-157.5 -125q55 -27 106.5 -57.5t91.5 -71.5t63.5 -98t23.5 -135q0 -168 -104.5 -259 t-284.5 -91q-193 0 -288 101t-95 263zM281 346q0 -135 73.5 -209t200.5 -74q141 0 208.5 76t67.5 193q0 72 -26.5 121t-71.5 84.5t-101.5 63.5t-113.5 54q-113 -39 -175 -115.5t-62 -193.5zM313 1028q0 -63 20.5 -107t56.5 -78t82 -58.5t97 -49.5q90 41 148.5 109t58.5 162 q0 104 -54 167.5t-173 63.5q-113 0 -174.5 -58.5t-61.5 -150.5z" />
<glyph unicode="9" horiz-adv-x="1081" d="M131 874q0 92 23.5 172t71.5 140.5t122 94.5t172 34q127 0 206 -53.5t123 -138.5t59.5 -190.5t15.5 -209.5q0 -121 -19.5 -252t-73 -239.5t-147.5 -179t-246 -70.5q-53 0 -110.5 10t-104.5 33l4 86q35 -18 88.5 -31.5t112.5 -13.5q104 0 172 47t108 119.5t59 161.5 t28 175q-63 -59 -141.5 -82.5t-155.5 -23.5q-96 0 -166 30.5t-115 85t-65.5 130t-20.5 165.5zM250 872q0 -72 10 -131t39 -101t79 -64.5t132 -22.5q84 0 160 33t133 94q0 119 -11.5 220t-43 175t-88 115t-144.5 41q-78 0 -129 -31t-82 -81t-43 -114.5t-12 -132.5z" />
<glyph unicode=":" horiz-adv-x="452" d="M143 78q0 35 23.5 58.5t58.5 23.5t59.5 -23.5t24.5 -58.5t-24.5 -59.5t-59.5 -24.5t-58.5 24.5t-23.5 59.5zM143 678q0 35 23.5 58.5t58.5 23.5t59.5 -23.5t24.5 -58.5t-24.5 -59.5t-59.5 -24.5t-58.5 24.5t-23.5 59.5z" />
<glyph unicode=";" horiz-adv-x="462" d="M127 -186q37 35 64.5 82t31.5 92q-41 10 -60.5 33.5t-19.5 52.5q0 31 18.5 56.5t63.5 25.5q41 0 67.5 -28t26.5 -73q0 -78 -41.5 -153.5t-117.5 -122.5zM141 678q0 35 24.5 59.5t59.5 24.5t60.5 -24.5t25.5 -59.5t-25.5 -60.5t-60.5 -25.5t-59.5 25.5t-24.5 60.5z" />
<glyph unicode="&#x3c;" horiz-adv-x="1003" d="M209 616v78l586 244v-98l-471 -185l471 -180v-98z" />
<glyph unicode="=" horiz-adv-x="1003" d="M209 459v90h586v-90h-586zM209 762v90h586v-90h-586z" />
<glyph unicode="&#x3e;" horiz-adv-x="1003" d="M209 377v98l471 180l-471 185v98l586 -244v-78z" />
<glyph unicode="?" horiz-adv-x="960" d="M102 1049q12 68 45 116.5t80 82.5t105.5 50.5t122.5 16.5q182 0 274 -96.5t92 -260.5q0 -166 -88 -247.5t-252 -104.5l-18 -235h-64l-16 301l25 2q152 12 226.5 78.5t74.5 208.5q0 125 -70 195.5t-186 70.5q-111 0 -173.5 -52.5t-86.5 -146.5zM350 78q0 35 24.5 59.5 t59.5 24.5t60.5 -24.5t25.5 -59.5t-25.5 -60.5t-60.5 -25.5t-59.5 25.5t-24.5 60.5z" />
<glyph unicode="@" horiz-adv-x="1544" d="M135 655q0 160 51.5 283t140.5 207t207.5 127t253.5 43q139 0 253 -44t196 -123t126 -188.5t44 -242.5q0 -96 -21.5 -179t-61.5 -144.5t-98.5 -96.5t-131.5 -35q-66 0 -105 24.5t-53 65.5q-39 -43 -92 -64.5t-107 -21.5q-115 0 -181.5 63.5t-66.5 180.5q0 119 74 180.5 t209 61.5q41 0 80 -4.5t68 -8.5v41q0 86 -39 121t-123 35q-51 0 -105.5 -12.5t-105.5 -34.5l-2 90q47 20 101 33.5t116 13.5q129 0 197.5 -56.5t68.5 -193.5v-334q0 -96 82 -96q43 0 79 27.5t61.5 76t39 115t13.5 146.5q0 119 -38 215t-105.5 163.5t-162 104.5t-204.5 37 q-133 0 -234.5 -43t-172.5 -121t-106.5 -184.5t-35.5 -233.5q0 -145 40 -254.5t115.5 -184.5t183 -113t240.5 -38q70 0 143.5 11.5t142.5 30t129 42t103 47.5l-6 -81q-47 -27 -108.5 -49.5t-129 -40t-137 -27.5t-135.5 -10q-160 0 -287.5 44t-217 129t-137.5 211t-48 289z M598 512q0 -66 37 -113t113 -47q90 0 131 52.5t41 156.5v96q-23 4 -61 8.5t-77 4.5q-88 0 -136 -39t-48 -119z" />
<glyph unicode="A" horiz-adv-x="1196" d="M96 0l408 1206h-113v90h260l469 -1296h-127l-110 313h-559l-105 -313h-123zM352 401h500l-229 648q-8 23 -17.5 56.5t-11.5 65.5q-4 -35 -11.5 -67.5t-15.5 -54.5z" />
<glyph unicode="B" horiz-adv-x="1132" d="M76 1206v90h440q86 0 151.5 -9t118.5 -36q80 -39 120 -113.5t40 -160.5q0 -106 -40 -183t-122 -112q104 -20 171 -103.5t67 -226.5q0 -80 -28.5 -148.5t-75.5 -113.5q-31 -29 -71 -47t-85 -27.5t-93 -12.5t-98 -3h-387v1206h-108zM309 90h238q55 0 124.5 8t116.5 39 q53 35 76 93t23 130q0 92 -30 147.5t-83 84.5q-43 23 -104.5 28t-157.5 5h-203v-535zM309 713h223q78 0 121 6t84 31q53 33 71.5 94.5t18.5 124.5q0 59 -25.5 118.5t-84.5 88.5q-39 18 -88 24t-115 6h-205v-493z" />
<glyph unicode="C" horiz-adv-x="1091" d="M106 655q0 152 31 274t93.5 208t156.5 132t223 46q72 0 137.5 -19.5t114.5 -60.5q41 -33 68.5 -78t44.5 -98l-98 -31q-33 92 -94.5 144.5t-172.5 52.5q-186 0 -279 -143.5t-93 -419.5q0 -104 14 -209t57 -188t123 -135t211 -52q43 0 89 7t88 19.5t78 26.5t60 29l-4 -99 q-25 -16 -62.5 -30.5t-81.5 -24.5t-92 -17t-93 -7q-154 0 -253.5 54t-158.5 147t-83 215t-24 257z" />
<glyph unicode="D" horiz-adv-x="1226" d="M76 1206v90h360q86 0 156 -5t129 -17q100 -23 175 -67t125 -117.5t74.5 -179t24.5 -248.5q0 -180 -35.5 -310.5t-111.5 -208.5q-72 -72 -180.5 -107.5t-262.5 -35.5h-346v1206h-108zM309 90h191q156 0 253 41t150 119q51 78 68.5 183.5t17.5 236.5q0 223 -65.5 344 t-218.5 164q-49 14 -116 21t-136 7h-144v-1116z" />
<glyph unicode="E" horiz-adv-x="1019" d="M172 0v1296h700v-90h-575v-504h467v-88h-467v-524h621l-17 -90h-729z" />
<glyph unicode="F" horiz-adv-x="956" d="M172 0v1296h700v-90h-575v-504h467v-88h-467v-614h-125z" />
<glyph unicode="G" horiz-adv-x="1187" d="M106 651q0 162 37 286t106.5 208t166 127t217.5 43q147 0 250.5 -72t134.5 -199l-98 -32q-33 98 -104 154.5t-189 56.5q-186 0 -287.5 -147.5t-101.5 -409.5q0 -135 21.5 -244t68.5 -185.5t122.5 -118.5t184.5 -42q80 0 154.5 30.5t115.5 67.5v293h-186v80h305v-547h-88 l-18 78q-53 -37 -131 -66.5t-187 -29.5q-102 0 -191.5 35.5t-157 114.5t-106.5 207t-39 312z" />
<glyph unicode="H" horiz-adv-x="1222" d="M172 0v1296h125v-600h629v600h125v-1296h-125v598h-629v-598h-125z" />
<glyph unicode="I" horiz-adv-x="706" d="M154 0v80h137v1139h-137v77h399v-77h-137v-1139h137v-80h-399z" />
<glyph unicode="J" horiz-adv-x="790" d="M86 20l8 93q41 -18 95.5 -29.5t95.5 -11.5q63 0 105 16t64.5 52t32 90.5t9.5 127.5v848h-340v90h465v-936q0 -94 -13.5 -160.5t-44.5 -111.5q-72 -106 -270 -106q-39 0 -99.5 9t-107.5 29z" />
<glyph unicode="K" horiz-adv-x="1093" d="M172 0v1296h125v-600h215l330 600h121l-353 -639l293 -503q29 -47 47.5 -60.5t40.5 -13.5q39 0 64 16l-4 -82q-18 -10 -40 -17t-50 -7q-27 0 -47.5 4t-39 18.5t-37 40t-42.5 66.5l-285 485h-213v-604h-125z" />
<glyph unicode="L" horiz-adv-x="944" d="M172 0v1296h125v-1206h588l-17 -90h-696z" />
<glyph unicode="M" horiz-adv-x="1519" d="M172 0v1296h107l444 -1071q10 -27 22.5 -62.5t16.5 -58.5q4 25 15 60t22 57l436 1075h113v-1296h-115v1071q-6 -20 -16.5 -51t-22.5 -64.5t-24.5 -67.5t-22.5 -59l-334 -829h-108l-349 846q-23 53 -45 116.5t-30 106.5v-1069h-109z" />
<glyph unicode="N" horiz-adv-x="1261" d="M172 0v1296h96l639 -966q20 -31 39 -67t33 -68v1101h111v-1296h-95l-643 975q-14 23 -34.5 58.5t-34.5 70.5v-1104h-111z" />
<glyph unicode="O" horiz-adv-x="1200" d="M106 647q0 332 130.5 500t363.5 168t363.5 -168t130.5 -500t-130 -498.5t-364 -166.5q-233 0 -363.5 166.5t-130.5 498.5zM238 647q0 -129 19 -234.5t62 -180t113 -115.5t168 -41t168 41t113 115.5t62.5 180t19.5 234.5t-19.5 235.5t-62.5 181.5t-113 116t-168 41 t-168 -41t-113 -116t-62 -181.5t-19 -235.5z" />
<glyph unicode="P" horiz-adv-x="1099" d="M76 1206v90h450q117 0 197 -19.5t139 -53.5q158 -97 158 -320q0 -199 -114.5 -307.5t-373.5 -108.5h-223v-487h-125v1206h-108zM309 578h189q90 0 162.5 12t125 48t80 98.5t27.5 162.5q0 154 -85 230.5t-278 76.5h-221v-628z" />
<glyph unicode="Q" horiz-adv-x="1200" d="M106 647q0 332 130.5 500t363.5 168t363.5 -168t130.5 -500q0 -326 -126 -492.5t-352 -172.5h-16q-14 -20 -21.5 -48t-7.5 -53q0 -57 33 -90q20 -20 51 -28.5t62 -8.5q61 0 131 30t125 73l-8 -97q-45 -37 -115 -63.5t-154 -26.5q-115 0 -180 62q-55 55 -55 139 q0 27 10 59.5t29 57.5q-186 35 -290 200.5t-104 458.5zM238 647q0 -129 19 -235.5t62 -181t113 -115.5t168 -41t168 41t113 115.5t62.5 181t19.5 235.5t-19.5 235.5t-62.5 181.5t-113 116t-168 41t-168 -41t-113 -116t-62 -181.5t-19 -235.5z" />
<glyph unicode="R" horiz-adv-x="1163" d="M76 1206v90h459q131 0 216 -24.5t144 -75.5q111 -94 111 -266q0 -315 -301 -385l210 -391q23 -41 38.5 -57.5t43.5 -16.5q39 0 68 18l-4 -84q-18 -10 -37.5 -17t-48.5 -7q-68 0 -100.5 31.5t-67.5 97.5l-219 407q-20 -2 -40 -2h-42h-197v-524h-125v1206h-108zM309 616 h238q90 0 153.5 23t103.5 62.5t57.5 96t17.5 124.5q0 162 -89.5 223t-269.5 61h-211v-590z" />
<glyph unicode="S" horiz-adv-x="1003" d="M143 985q0 78 30 139.5t83 103.5t126 64.5t159 22.5q66 0 139.5 -12.5t134.5 -32.5l-4 -96q-61 23 -130 37t-140 14q-143 0 -214 -61.5t-71 -166.5q0 -70 27.5 -115.5t72.5 -78.5t103.5 -57.5t118 -49t118 -53.5t103.5 -71t72.5 -102t27.5 -146q0 -96 -34 -161t-92 -106 t-135 -58t-161 -17q-82 0 -168 15t-162 48l5 107q72 -39 155.5 -59.5t167.5 -20.5q61 0 118.5 12t100.5 41t68.5 76t25.5 116q0 92 -48 147.5t-119.5 92.5t-154.5 66.5t-154.5 72.5t-120 109.5t-48.5 179.5z" />
<glyph unicode="T" horiz-adv-x="956" d="M37 1206v90h883v-90h-379v-1206h-125v1206h-379z" />
<glyph unicode="U" horiz-adv-x="1220" d="M170 432v864h125v-837q0 -109 13.5 -173.5t41.5 -109.5q37 -57 105.5 -83.5t154.5 -26.5q188 0 260 110q29 45 43.5 112.5t14.5 176.5v831h125v-839q0 -113 -16.5 -186.5t-55.5 -133.5q-101 -155 -372 -155h-3q-236 0 -344 127q-49 57 -70.5 131.5t-21.5 191.5z" />
<glyph unicode="V" horiz-adv-x="1071" d="M63 1296h123l312 -1026q10 -37 21 -81t11 -70h2q0 25 9.5 68.5t21.5 82.5l328 1026h117l-418 -1296h-129z" />
<glyph unicode="W" horiz-adv-x="1646" d="M63 1296h119l287 -1030q8 -29 16.5 -70.5t8.5 -76.5h2q2 29 5 69.5t13 69.5l256 875l-47 163h117l293 -1022q8 -27 18 -74.5t10 -80.5h2q2 33 10.5 77t18.5 76l281 1024h110l-362 -1296h-121l-275 944l-278 -944h-119z" />
<glyph unicode="X" horiz-adv-x="1052" d="M63 0l381 668l-340 628h134l278 -522l281 522h127l-349 -632l273 -510q23 -43 38 -58.5t44 -15.5q31 0 59 18l-4 -84q-18 -10 -39.5 -17t-46.5 -7q-31 0 -53.5 7t-38.5 22.5t-31.5 40t-34.5 59.5l-237 440l-309 -559h-132z" />
<glyph unicode="Y" horiz-adv-x="1062" d="M74 1296h131l295 -614q16 -35 29.5 -72t17.5 -59h2q4 25 16.5 57.5t28.5 67.5l295 620h115l-400 -839v-457h-125v459z" />
<glyph unicode="Z" horiz-adv-x="997" d="M115 0v61l635 1145h-584v90h725v-61l-635 -1145h651l-16 -90h-776z" />
<glyph unicode="[" horiz-adv-x="505" d="M188 -379v1780h273v-90h-158v-1600h158v-90h-273z" />
<glyph unicode="\" horiz-adv-x="577" d="M18 1315h111l430 -1333h-110z" />
<glyph unicode="]" horiz-adv-x="505" d="M45 -289h158v1600h-158v90h272v-1780h-272v90z" />
<glyph unicode="^" horiz-adv-x="1003" d="M213 895l250 401q10 18 26 19h29q16 0 27 -19l248 -401h-109l-178 305l-184 -305h-109z" />
<glyph unicode="_" horiz-adv-x="1024" d="M31 -100h962v-82h-962v82z" />
<glyph unicode="`" d="M78 1278q0 72 84 72q68 0 145.5 -58.5t136.5 -142.5l-22 -37q-61 57 -122.5 85t-119.5 28q-23 0 -43 -5.5t-35 -9.5q-10 10 -17 32t-7 36z" />
<glyph unicode="a" horiz-adv-x="1013" d="M111 301q0 88 30.5 150.5t85 101.5t125 57t150.5 17q66 0 126 -6.5t95 -14.5v80q0 129 -63.5 183.5t-188.5 54.5q-70 0 -141.5 -16.5t-136.5 -45.5l-5 92q63 27 143.5 42.5t147.5 15.5q174 0 266.5 -73t92.5 -255v-498q0 -59 10 -82.5t47 -23.5q29 0 49 10l-6 -82 q-12 -8 -33.5 -11t-40.5 -3q-133 0 -135 129q-35 -74 -114.5 -107.5t-165.5 -33.5q-152 0 -245 82.5t-93 236.5zM223 307q0 -106 61.5 -172.5t172.5 -66.5q150 0 208 84t58 223v147q-31 6 -90.5 13.5t-122.5 7.5q-61 0 -113.5 -11.5t-90.5 -39t-60.5 -72.5t-22.5 -113z" />
<glyph unicode="b" horiz-adv-x="1056" d="M66 1313v88h227v-518q35 57 105.5 93t174.5 36q111 0 193 -46t129 -128q72 -125 72 -326q0 -119 -27 -217t-84 -168t-147.5 -107.5t-216.5 -37.5q-86 0 -169 15t-145 36v1280h-112zM293 96q35 -12 91 -21t105 -9q104 0 174 32.5t111 91t58.5 140.5t17.5 178 q0 82 -10.5 143.5t-32.5 110.5q-31 72 -90.5 116t-161.5 44q-90 0 -151.5 -39t-88.5 -103q-12 -31 -17 -69.5t-5 -83.5v-531z" />
<glyph unicode="c" horiz-adv-x="923" d="M90 500q0 117 30 211t85 161.5t134 103.5t177 36q158 0 248 -97q23 -25 42 -61.5t30 -75.5l-99 -26q-23 78 -78 126t-147 48q-139 0 -222 -106.5t-83 -317.5q0 -90 16.5 -168t54 -136.5t101 -92t158.5 -33.5q72 0 138 21.5t120 62.5l-2 -93q-43 -33 -119 -57t-154 -24 q-217 0 -323.5 136t-106.5 382z" />
<glyph unicode="d" horiz-adv-x="1073" d="M90 455q0 119 26.5 220t85 176t147.5 118t216 43q66 0 119 -12.5t92 -28.5v342h-112v88h227v-1219q0 -59 12 -80.5t47 -21.5q31 0 47 10l-6 -82q-12 -6 -35.5 -10t-44.5 -4q-66 0 -95.5 30.5t-33.5 98.5q-33 -59 -102.5 -100t-177.5 -41q-172 0 -273 94 q-72 66 -105.5 165t-33.5 214zM207 465q0 -86 17.5 -157.5t53 -125t93 -83t137.5 -29.5q98 0 164.5 49t89.5 135q10 35 12 77t2 87v465q-31 16 -89 28.5t-112 12.5q-180 0 -274 -112t-94 -347z" />
<glyph unicode="e" horiz-adv-x="978" d="M90 492q0 129 31 226t86 162.5t132 98.5t169 33q82 0 150.5 -32t117.5 -93.5t76 -148t27 -197.5q0 -47 -14.5 -66.5t-59.5 -19.5h-598q8 -172 86 -277.5t244 -105.5q84 0 164.5 25.5t138.5 66.5l-2 -94q-25 -18 -62 -35t-79 -29t-86 -18t-83 -6q-111 0 -193.5 35.5 t-137 102t-81 161t-26.5 211.5zM207 539h545q14 0 14 16q0 80 -15.5 147.5t-48 116.5t-83 78t-119.5 29q-137 0 -211 -101.5t-82 -285.5z" />
<glyph unicode="f" horiz-adv-x="634" d="M61 905v88h142v158q0 74 16.5 124t46.5 83q33 35 81 51t110 16q41 0 87 -8t79 -20v-88q-29 12 -68 20t-80 8q-39 0 -68.5 -7t-48.5 -25q-27 -27 -34 -66t-7 -104v-142h252v-88h-252v-905h-114v905h-142z" />
<glyph unicode="g" horiz-adv-x="1064" d="M96 471q0 141 41 250.5t127 181.5q127 109 326 109q86 0 168 -20.5t147 -55.5v-864q0 -70 -2 -124t-8 -97.5t-19.5 -77t-33.5 -64.5q-29 -41 -69 -68.5t-85 -44t-93 -23.5t-93 -7q-80 0 -166 15.5t-141 43.5v94q29 -14 66.5 -26t78.5 -20.5t81 -13.5t73 -5q78 0 139 23.5 t102 74.5q33 41 44.5 102.5t11.5 178.5v98q-35 -57 -113 -94t-168 -37q-109 0 -186.5 35t-129 97.5t-75 149.5t-23.5 189zM213 489q0 -78 14.5 -150.5t50 -128.5t95 -90t149.5 -34q137 0 203 80t66 207v512q-35 16 -86.5 28.5t-110.5 12.5q-156 0 -252 -84 q-68 -59 -98.5 -150.5t-30.5 -202.5z" />
<glyph unicode="h" horiz-adv-x="1103" d="M186 0v1401h115v-529q16 31 50 60t73 45q80 35 186 35q78 0 145.5 -27t110.5 -72q53 -55 66.5 -129.5t13.5 -148.5v-635h-115v627q0 86 -11 136t-48 89q-33 35 -80 50.5t-104 15.5q-63 0 -119.5 -18.5t-95.5 -61.5q-41 -45 -56.5 -105.5t-15.5 -159.5v-573h-115z" />
<glyph unicode="i" horiz-adv-x="518" d="M86 905v88h227v-807q0 -61 11.5 -83.5t46.5 -22.5q29 0 49 10l-6 -82q-12 -6 -36 -10t-44 -4q-135 0 -135 147v764h-113zM164 1272q0 33 23.5 56.5t56.5 23.5t57.5 -23.5t24.5 -56.5t-25 -57.5t-57 -24.5q-33 0 -56.5 24.5t-23.5 57.5z" />
<glyph unicode="j" horiz-adv-x="507" d="M-53 -399l2 86q27 -10 55.5 -15.5t50.5 -5.5q59 0 94 25.5t52 68.5q14 35 16 93.5t2 138.5v913h-127v88h242v-1020q0 -47 -1 -82.5t-3 -65.5t-8.5 -53.5t-14.5 -47.5q-27 -70 -91 -107t-138 -37q-35 0 -69 5t-62 16zM184 1272q0 33 23.5 56.5t56.5 23.5t57.5 -23.5 t24.5 -56.5t-24.5 -57.5t-57.5 -24.5t-56.5 24.5t-23.5 57.5z" />
<glyph unicode="k" horiz-adv-x="974" d="M66 1313v88h227v-795h170l282 387h123l-307 -424l240 -422q20 -35 41.5 -51t56.5 -16q23 0 45 14l-2 -82q-14 -8 -35.5 -13t-42.5 -5q-53 0 -89 23.5t-70 82.5l-236 414h-176v-514h-115v1313h-112z" />
<glyph unicode="l" horiz-adv-x="497" d="M66 1313v88h227v-1215q0 -57 10 -81.5t47 -24.5q29 0 49 10l-6 -82q-29 -14 -80 -14q-135 0 -135 147v1172h-112z" />
<glyph unicode="m" horiz-adv-x="1712" d="M70 905v88h200l19 -123q47 70 129 107q41 18 83 26.5t97 8.5q78 0 143.5 -27t108.5 -72q33 -35 47 -73q23 43 60.5 78.5t89.5 58.5q41 18 82.5 26.5t97.5 8.5q78 0 143.5 -27t108.5 -72q53 -55 64 -129.5t11 -148.5v-635h-114v627q0 86 -9.5 136t-46.5 89 q-31 35 -76.5 50.5t-103.5 15.5q-63 0 -116.5 -18.5t-92.5 -61.5q-41 -45 -55 -105.5t-14 -159.5v-573h-115v627q0 86 -9 136t-46 89q-31 35 -77 50.5t-104 15.5q-63 0 -116 -18.5t-92 -61.5q-41 -45 -55.5 -105.5t-14.5 -159.5v-573h-115v905h-112z" />
<glyph unicode="n" horiz-adv-x="1099" d="M76 905v88h200l19 -123q47 70 131 107q76 35 186 35q78 0 145.5 -27t110.5 -72q53 -55 66.5 -129.5t13.5 -148.5v-635h-114v627q0 86 -11.5 136t-48.5 89q-33 35 -80 50.5t-104 15.5q-63 0 -119.5 -18.5t-95.5 -61.5q-41 -45 -56.5 -105.5t-15.5 -159.5v-573h-115v905 h-112z" />
<glyph unicode="o" horiz-adv-x="1019" d="M90 496q0 123 31 219t86 161.5t132 100.5t171 35t171 -35t132 -100.5t86 -161.5t31 -219t-31 -218.5t-86 -162t-132 -100t-171 -33.5t-171 33.5t-132 100t-86 162t-31 218.5zM207 496q0 -113 22.5 -194t62.5 -133t96 -76.5t122 -24.5t122 24.5t96 76.5t62.5 133t22.5 194 q0 111 -22.5 192.5t-62.5 133.5t-96.5 78t-121.5 26q-133 0 -218 -103.5t-85 -326.5z" />
<glyph unicode="p" horiz-adv-x="1060" d="M70 905v88h206l15 -123q29 53 92 93q78 49 197 49q98 0 170.5 -36t122 -102.5t74 -158.5t24.5 -203q0 -119 -26.5 -217t-84 -168t-147.5 -107.5t-217 -37.5q-51 0 -101.5 6t-97.5 16v-412h-115v1313h-112zM297 96q43 -16 94 -23t103 -7q106 0 175.5 32.5t110.5 91 t57.5 140.5t16.5 180q0 414 -285 414q-78 0 -130 -22.5t-83 -61.5q-33 -41 -46 -97.5t-13 -134.5v-512z" />
<glyph unicode="q" horiz-adv-x="1054" d="M90 471q0 141 41 250.5t127 181.5q127 109 326 109q86 0 168 -20.5t147 -55.5v-1053q0 -102 12.5 -171.5t34.5 -114.5l-108 -23q-16 25 -35 79t-19 157v323q-33 -63 -110.5 -107t-169.5 -44q-109 0 -187.5 38.5t-129 105.5t-74 156t-23.5 189zM207 487q0 -76 14.5 -150.5 t49 -135t95 -97t150.5 -36.5q68 0 119 24.5t84 67.5t49 99t16 120v506q-35 16 -86 28.5t-110 12.5q-156 0 -252 -84q-68 -59 -98.5 -151.5t-30.5 -203.5z" />
<glyph unicode="r" horiz-adv-x="671" d="M70 905v88h200l21 -147q37 78 101.5 122t150.5 44q10 0 26.5 -1t26.5 -3v-105q-10 2 -24.5 3t-30.5 1q-49 0 -94.5 -20.5t-75.5 -61.5q-41 -51 -57.5 -122.5t-16.5 -176.5v-526h-115v905h-112z" />
<glyph unicode="s" horiz-adv-x="854" d="M117 43l12 98q63 -35 138 -54t147 -19q63 0 108 15t74 39.5t42 56.5t13 67q0 74 -39 118t-96 71.5t-124.5 50t-125 54t-96.5 81t-39 133.5q0 68 27.5 117t75 79.5t108.5 46t129 15.5q57 0 117.5 -10.5t107.5 -26.5v-94q-39 18 -103.5 32.5t-129.5 14.5q-111 0 -168 -45 t-57 -121q0 -61 38.5 -98t96 -65t125 -51.5t125 -58t96.5 -89t39 -142.5q0 -119 -88 -197.5t-262 -78.5q-74 0 -153 17t-138 44z" />
<glyph unicode="t" horiz-adv-x="679" d="M61 905v88h144v264l114 50v-314h240v-88h-240v-635q0 -109 29 -151q33 -49 113 -49q41 0 81 10t68 24l-2 -88q-33 -16 -78 -25t-81 -9q-59 0 -109.5 15t-83.5 56q-27 33 -39 77t-12 122v653h-144z" />
<glyph unicode="u" horiz-adv-x="1099" d="M156 358v635h114v-626q0 -86 11.5 -136.5t48.5 -89.5q33 -35 80 -50t104 -15q63 0 119.5 18.5t95.5 61.5q41 45 56.5 105.5t15.5 158.5v573h114v-807q0 -61 11.5 -83.5t46.5 -22.5q29 0 49 10l-6 -82q-12 -6 -36 -10t-44 -4q-125 0 -131 129q-53 -78 -138 -109.5 t-175 -31.5q-78 0 -145.5 26.5t-110.5 71.5q-53 55 -66.5 130t-13.5 148z" />
<glyph unicode="v" horiz-adv-x="872" d="M29 993h121l233 -688q16 -49 31.5 -96t23.5 -88q6 39 22.5 92t33.5 96l243 684h107l-363 -993h-94z" />
<glyph unicode="w" horiz-adv-x="1312" d="M29 993h118l220 -676q12 -35 27.5 -88t25.5 -94q8 35 22.5 86t30.5 103l154 454l-72 215h117l213 -678q12 -41 24.5 -93t22.5 -87q10 47 22.5 102.5t22.5 88.5l203 667h104l-309 -993h-92l-211 637l-215 -637h-92z" />
<glyph unicode="x" horiz-adv-x="874" d="M25 0l346 502l-301 491h120l248 -407l269 407h112l-327 -493l221 -365q20 -35 36.5 -46t41.5 -11q16 0 29.5 4t29.5 12l-4 -82q-29 -18 -80 -18q-49 0 -79 21.5t-60 70.5l-203 332l-283 -418h-116z" />
<glyph unicode="y" horiz-adv-x="1075" d="M156 358v635h114v-626q0 -86 11.5 -136.5t48.5 -89.5q33 -35 80 -50t104 -15q63 0 119.5 18.5t95.5 61.5q41 45 56.5 105.5t15.5 158.5v573h114v-921q0 -70 -2 -124t-8 -97.5t-19.5 -77t-33.5 -64.5q-29 -41 -69 -68.5t-85 -44t-93 -23.5t-93 -7q-80 0 -166 15.5 t-141 43.5v94q29 -14 66.5 -26t78.5 -20.5t81 -13.5t73 -5q78 0 139.5 23.5t101.5 74.5q33 41 44.5 103.5t11.5 179.5v92q-51 -84 -134 -114.5t-175 -30.5q-78 0 -145.5 26.5t-110.5 71.5q-53 55 -66.5 130t-13.5 148z" />
<glyph unicode="z" horiz-adv-x="839" d="M115 0v82l524 823h-498v88h621v-80l-522 -825h536l-10 -88h-651z" />
<glyph unicode="{" horiz-adv-x="536" d="M84 469v45l14 4q61 16 91 42t30 95q0 55 -1 124t-3 137.5t-3 134t-1 114.5q0 236 221 236h39v-62h-33q-63 0 -89.5 -29.5t-26.5 -105.5q0 -47 6 -110.5t12 -131t12 -133t6 -120.5q0 -86 -31.5 -137.5t-113.5 -79.5q82 -29 113.5 -80.5t31.5 -137.5q0 -55 -6 -120.5 t-12 -133t-12 -131t-6 -110.5q0 -76 26.5 -105.5t89.5 -29.5h33v-62h-39q-221 0 -221 236q0 49 1 114.5t3 134t3 137t1 124.5q0 70 -29.5 95.5t-91.5 41.5z" />
<glyph unicode="|" horiz-adv-x="442" d="M172 -512v2048h98v-2048h-98z" />
<glyph unicode="}" horiz-adv-x="536" d="M66 -356h32q63 0 90 29.5t27 105.5q0 47 -6 110.5t-12.5 131t-12.5 133t-6 120.5q0 86 32 137.5t114 80.5q-82 29 -114 80t-32 137q0 55 6 120.5t12.5 133t12.5 131t6 110.5q0 76 -26.5 105.5t-90.5 29.5h-32v62h38q221 0 222 -236q0 -49 -1 -114.5t-3.5 -134t-3.5 -137 t-1 -124.5q0 -70 30 -95t91 -42l15 -4v-45l-15 -4q-61 -16 -91 -42t-30 -95q0 -55 1 -124t3.5 -137.5t3.5 -134t1 -114.5q0 -236 -222 -236h-38v62z" />
<glyph unicode="~" horiz-adv-x="1003" d="M98 420q49 119 108.5 173t143.5 54q57 0 99.5 -23.5t78 -53t70.5 -53t78 -23.5q51 0 91 38.5t89 110.5l49 -39q-49 -119 -108.5 -173t-143.5 -54q-55 0 -95 23.5t-73.5 53t-70.5 53t-86 23.5q-51 0 -90 -38.5t-88 -110.5z" />
<glyph unicode="&#xa1;" horiz-adv-x="573" d="M201 926q0 35 25.5 60.5t60.5 25.5t59.5 -25.5t24.5 -60.5t-24.5 -59.5t-59.5 -24.5t-60.5 24.5t-25.5 59.5zM207 -205l47 836h65l48 -836q4 -59 -16.5 -82.5t-63.5 -23.5t-63.5 23.5t-16.5 82.5z" />
<glyph unicode="&#xa2;" horiz-adv-x="1081" d="M168 500q0 217 96 351t268 157v206h89v-202q137 -10 221 -97q23 -25 42 -61.5t29 -75.5l-98 -26q-20 72 -68.5 117.5t-125.5 54.5v-852q70 2 134 23.5t117 60.5l-2 -93q-41 -29 -108.5 -53t-140.5 -28v-203h-89v207q-186 23 -275 155.5t-89 358.5zM285 502 q0 -78 12 -148.5t42 -126t77 -94.5t116 -53v842q-115 -23 -181 -128.5t-66 -291.5z" />
<glyph unicode="&#xa3;" horiz-adv-x="1081" d="M111 604v78h163q-31 61 -55 129t-24 154q0 84 28.5 149.5t78.5 109.5t120 67.5t153 23.5q143 0 241.5 -76t123.5 -235l-98 -19q-23 111 -86.5 174.5t-186.5 63.5q-117 0 -186.5 -68t-69.5 -182q0 -82 26 -149.5t67 -141.5h405v-78h-362q25 -47 42 -101t17 -122 q0 -100 -41 -171t-111 -120h629l-14 -90h-758v80q88 47 132 127t44 164q0 63 -22.5 119.5t-51.5 113.5h-204z" />
<glyph unicode="&#xa4;" horiz-adv-x="1081" d="M143 229l146 199q-49 86 -49 221t49 221l-146 199h115l88 -123q80 74 195 74t194 -74l88 123h115l-145 -199q49 -86 49 -221t-49 -221l145 -199h-115l-88 123q-80 -74 -194 -73q-115 0 -195 73l-88 -123h-115zM340 649q0 -150 56.5 -217t144.5 -67t144 67t56 217 t-56 217.5t-144 67.5t-144.5 -67.5t-56.5 -217.5z" />
<glyph unicode="&#xa5;" horiz-adv-x="1081" d="M76 1296h131l295 -614q16 -35 29.5 -72t17.5 -59h2q4 25 16.5 57.5t28.5 67.5l295 618h115l-381 -798h276v-88h-295v-97h295v-88h-295v-223h-125v223h-295v88h295v97h-295v88h277z" />
<glyph unicode="&#xa6;" horiz-adv-x="442" d="M172 266h98v-778h-98v778zM172 758v778h98v-778h-98z" />
<glyph unicode="&#xa7;" horiz-adv-x="1081" d="M227 393q0 127 72 215t199 123q-66 33 -116 62.5t-85 64.5t-52.5 78t-17.5 100q0 131 94.5 205t245.5 74q55 0 123 -11.5t105 -25.5l-13 -90q-43 16 -100 29.5t-119 13.5q-113 0 -170 -54.5t-57 -132.5q0 -63 39 -105t96 -77t125 -68.5t125 -77.5t96 -106.5t39 -152.5 q0 -127 -73.5 -217t-200.5 -125q59 -31 109 -58.5t87 -61.5t57.5 -78t20.5 -103q0 -131 -93 -205t-247 -74q-55 0 -122.5 11.5t-104.5 25.5l12 90q43 -16 100.5 -29.5t118.5 -13.5q113 0 170.5 54.5t57.5 131.5q0 61 -39 104.5t-96.5 78.5t-125 68.5t-125 77.5t-96.5 105.5 t-39 153.5zM332 408q0 -78 40 -135.5t117 -104.5q129 25 196 98.5t67 175.5q0 78 -40 135.5t-118 104.5q-129 -25 -195.5 -98.5t-66.5 -175.5z" />
<glyph unicode="&#xa8;" d="M16 1253q0 41 27 68t68 27q39 0 65.5 -27t26.5 -68t-25.5 -66.5t-66.5 -25.5t-68 26.5t-27 65.5zM319 1253q0 41 27 68t66 27q41 0 67.5 -27t26.5 -68q0 -39 -26.5 -65.5t-67.5 -26.5t-67 25.5t-26 66.5z" />
<glyph unicode="&#xa9;" horiz-adv-x="1564" d="M127 649q0 150 46 272.5t132 211t207 135.5t270 47q150 0 271 -47t207 -135.5t132 -211t46 -272.5q0 -152 -46 -273.5t-132 -209.5t-207 -135t-271 -47t-270.5 47t-206.5 135t-132 210t-46 273zM221 649q0 -139 41 -248.5t115 -185.5t177 -116t228 -40t228.5 40 t177.5 116t114.5 185.5t40.5 248.5t-40.5 249t-114.5 185.5t-177.5 115.5t-228.5 40t-228 -40t-177 -115.5t-115 -185.5t-41 -249zM500 653q0 164 72.5 266.5t224.5 102.5q86 0 145 -47q47 -39 74 -117l-86 -22q-20 55 -51 80.5t-84 25.5q-188 0 -189 -285q0 -55 7.5 -109 t30 -95t63.5 -67t106 -26q47 0 99.5 15.5t88.5 38.5l-2 -84q-35 -20 -89 -35.5t-105 -15.5q-90 0 -148.5 30.5t-93.5 82.5t-49 120t-14 141z" />
<glyph unicode="&#xaa;" horiz-adv-x="737" d="M135 891q0 55 19.5 92t52.5 59.5t76 32.5t92 10q37 0 71.5 -4t57.5 -8v45q0 74 -37 104.5t-111 30.5q-41 0 -85 -10t-87 -26l-2 63q41 16 89 25.5t89 9.5q106 0 163 -44t57 -155v-295q0 -35 6 -46t24 -11t35 8l-4 -57q-10 -6 -24.5 -8t-24.5 -2q-41 0 -60.5 17t-23.5 50 q-25 -39 -72 -57.5t-94 -18.5q-92 0 -149.5 51.5t-57.5 143.5zM211 895q0 -61 36 -100t101 -39q88 0 122 47t34 129v86q-20 4 -55 8t-70 4q-72 0 -120 -28.5t-48 -106.5z" />
<glyph unicode="&#xab;" horiz-adv-x="925" d="M184 496q0 8 6.5 16t12.5 16l270 301l29 -79l-193 -254l193 -254l-29 -80l-270 301q-6 8 -12.5 16t-6.5 17zM444 496q0 8 6.5 16t12.5 16l270 301l29 -79l-193 -254l193 -254l-29 -80l-270 301q-6 8 -12.5 16t-6.5 17z" />
<glyph unicode="&#xac;" horiz-adv-x="1003" d="M209 762v90h586v-393h-90v303h-496z" />
<glyph unicode="&#xad;" horiz-adv-x="677" d="M123 436v103h432v-103h-432z" />
<glyph unicode="&#xae;" horiz-adv-x="1564" d="M127 649q0 150 46 272.5t132 211t207 135.5t270 47q150 0 271 -47t207 -135.5t132 -211t46 -272.5q0 -152 -46 -273.5t-132 -209.5t-207 -135t-271 -47t-270.5 47t-206.5 135t-132 210t-46 273zM221 649q0 -139 41 -248.5t115 -185.5t177 -116t228 -40t228.5 40 t177.5 116t114.5 185.5t40.5 248.5t-40.5 249t-114.5 185.5t-177.5 115.5t-228.5 40t-228 -40t-177 -115.5t-115 -185.5t-41 -249zM504 932v78h274q125 0 195.5 -54.5t70.5 -156.5q0 -84 -39.5 -140.5t-119.5 -78.5l106 -187q18 -33 41 -33q10 0 24.5 4.5t22.5 8.5l-4 -70 q-10 -8 -26.5 -13t-32.5 -5q-45 0 -67.5 19.5t-43.5 53.5l-121 209h-125v-280h-100v645h-55zM659 647h115q94 0 130 41t36 107q0 74 -41 105.5t-137 31.5h-103v-285z" />
<glyph unicode="&#xaf;" d="M49 1249v94h424v-94h-424z" />
<glyph unicode="&#xb0;" horiz-adv-x="909" d="M152 995q0 70 21.5 128.5t61 101.5t96 66.5t124.5 23.5t123 -23.5t95 -66.5t62.5 -101.5t22.5 -128.5t-22.5 -128t-62.5 -101t-95.5 -66.5t-122.5 -23.5q-68 0 -124.5 23.5t-96 66.5t-61 101.5t-21.5 127.5zM252 995q0 -100 50 -170.5t153 -70.5q102 0 152 70.5t50 170.5 t-50 171t-152 71t-152.5 -70.5t-50.5 -171.5z" />
<glyph unicode="&#xb1;" horiz-adv-x="1003" d="M209 0v90h586v-90h-586zM209 610v90h248v248h90v-248h248v-90h-248v-248h-90v248h-248z" />
<glyph unicode="&#xb2;" horiz-adv-x="737" d="M145 1139q49 176 232 176q113 0 171 -59.5t58 -163.5q0 -61 -25.5 -105.5t-63.5 -80.5t-83 -67.5t-84 -67.5t-65.5 -82t-28.5 -109h356l-12 -76h-434v41q0 86 25.5 145.5t64.5 102.5t84 74.5t84 64.5t64.5 69.5t25.5 92.5q0 70 -37 108.5t-106 38.5q-66 0 -98.5 -32.5 t-51.5 -92.5z" />
<glyph unicode="&#xb3;" horiz-adv-x="737" d="M141 1151q53 164 234 164q109 0 164 -57.5t55 -145.5q0 -59 -25.5 -102t-70.5 -70q68 -23 101.5 -77t33.5 -122q0 -113 -73 -176t-202 -63q-49 0 -102 11t-92 34l6 86q47 -33 97 -46.5t95 -13.5q84 0 130.5 44.5t46.5 125.5q0 66 -48.5 107t-146.5 41v74q76 4 118 44 t42 105q0 57 -34 93t-99 36q-113 0 -154 -115z" />
<glyph unicode="&#xb4;" d="M78 1149q29 43 64.5 79t72.5 63.5t74 43t71 15.5q84 0 84 -72q0 -14 -7 -35.5t-17 -32.5q-14 4 -34.5 9.5t-43.5 5.5q-57 0 -118.5 -28t-123.5 -85z" />
<glyph unicode="&#xb6;" horiz-adv-x="876" d="M86 1028q0 59 24.5 112.5t65.5 90.5q72 66 213 65h410v-77h-121v-1688h-94v1688h-144v-1688h-92v1229q-55 2 -102 23.5t-83 57.5t-56.5 84t-20.5 103z" />
<glyph unicode="&#xb7;" horiz-adv-x="464" d="M147 522q0 35 25 59.5t59 24.5q35 0 60.5 -24.5t25.5 -59.5t-25.5 -60.5t-60.5 -25.5t-59.5 25.5t-24.5 60.5z" />
<glyph unicode="&#xb8;" d="M123 -100q0 20 10 42.5t37 53.5q12 14 20 27q14 20 33 38l56 -18q-6 -6 -14.5 -15.5t-14.5 -17.5q-8 -8 -17 -18q-29 -35 -28 -51q0 -23 30.5 -31t66.5 -19.5t66.5 -32t30.5 -67.5q0 -59 -56 -95t-173 -36l-12 49q66 4 110.5 18.5t44.5 47.5q0 27 -29.5 38t-65.5 20 t-65.5 22.5t-29.5 44.5z" />
<glyph unicode="&#xb9;" horiz-adv-x="737" d="M188 1206l195 109h57v-727h115v-72h-336v72h131v622l-123 -69z" />
<glyph unicode="&#xba;" horiz-adv-x="737" d="M113 1006q0 147 69.5 228t186.5 81t186.5 -81t69.5 -228t-70 -228.5t-186 -81.5q-117 0 -186.5 81t-69.5 229zM190 1006q0 -133 50.5 -191.5t128.5 -58.5t128 58.5t50 191.5q0 131 -50.5 190t-127.5 59q-78 0 -128.5 -58t-50.5 -191z" />
<glyph unicode="&#xbb;" horiz-adv-x="925" d="M164 242l192 254l-192 254l29 79l270 -301l12 -16t6 -16t-6 -16.5t-12 -16.5l-270 -301zM424 242l192 254l-192 254l29 79l270 -301l12 -16t6 -16t-6 -16.5t-12 -16.5l-270 -301z" />
<glyph unicode="&#xbc;" horiz-adv-x="1576" d="M180 1206l195 109h57v-727h115v-72h-336v72h131v622l-123 -69zM522 -18l430 1333h88l-430 -1333h-88zM872 219l326 588l74 -37l-293 -524h272v143h82v-143h103v-74h-103v-172h-82v172h-344z" />
<glyph unicode="&#xbd;" horiz-adv-x="1576" d="M172 1206l195 109h57v-727h115v-72h-336v72h131v622l-123 -69zM514 -18l430 1333h88l-430 -1333h-88zM950 635q49 176 232 176q113 0 171 -59.5t58 -163.5q0 -61 -25.5 -105.5t-63.5 -80t-83 -67.5t-84 -68t-65.5 -82t-28.5 -109h356l-12 -76h-434v41q0 86 25.5 145.5 t64.5 102.5t84 74.5t84 64.5t64.5 70t25.5 92q0 70 -37 108.5t-106 38.5q-66 0 -99 -32.5t-51 -92.5z" />
<glyph unicode="&#xbe;" horiz-adv-x="1576" d="M141 1151q53 164 234 164q109 0 164 -57.5t55 -145.5q0 -59 -25.5 -102t-70.5 -70q68 -23 101.5 -77t33.5 -122q0 -113 -73 -176t-202 -63q-49 0 -102 11t-92 34l6 86q47 -33 97 -46.5t95 -13.5q84 0 130.5 44.5t46.5 125.5q0 66 -48.5 107t-146.5 41v74q76 4 118 44 t42 105q0 57 -34 93t-99 36q-113 0 -154 -115zM592 -18l430 1333h88l-430 -1333h-88zM942 219l326 588l73 -37l-292 -524h272v143h82v-143h102v-74h-102v-172h-82v172h-344z" />
<glyph unicode="&#xbf;" horiz-adv-x="960" d="M139 45q0 166 88 248t252 104l19 236h63l17 -301l-25 -2q-152 -12 -226.5 -79t-74.5 -208q0 -125 69.5 -195.5t186.5 -70.5q111 0 173 52t87 146l90 -20q-12 -68 -45 -117t-80 -83t-105.5 -50t-121.5 -16q-182 0 -274.5 96t-92.5 260zM440 926q0 35 26 60.5t60 25.5 q35 0 59.5 -25.5t24.5 -60.5t-24.5 -59.5t-59.5 -24.5t-60.5 24.5t-25.5 59.5z" />
<glyph unicode="&#xc0;" horiz-adv-x="1196" d="M96 0l408 1206h-113v90h260l469 -1296h-127l-110 313h-559l-105 -313h-123zM352 401h500l-229 648q-8 23 -17.5 56.5t-11.5 65.5q-4 -35 -11.5 -67.5t-15.5 -54.5zM373 1565q0 72 84 71q68 0 145.5 -58t136.5 -142l-22 -37q-61 57 -123 84.5t-119 27.5q-23 0 -43 -5 t-35 -9q-10 10 -17 31.5t-7 36.5z" />
<glyph unicode="&#xc1;" horiz-adv-x="1196" d="M96 0l408 1206h-113v90h260l469 -1296h-127l-110 313h-559l-105 -313h-123zM352 401h500l-229 648q-8 23 -17.5 56.5t-11.5 65.5q-4 -35 -11.5 -67.5t-15.5 -54.5zM362 1436q29 43 65 78.5t73 63.5t73.5 43t71.5 15q84 1 84 -71q0 -14 -7 -36t-17 -32q-14 4 -35 9t-43 5 q-57 0 -119 -27.5t-123 -84.5z" />
<glyph unicode="&#xc2;" horiz-adv-x="1196" d="M96 0l408 1206h-113v90h260l469 -1296h-127l-110 313h-559l-105 -313h-123zM340 1411l152 193q16 20 27 27t30 7h43q18 0 29.5 -7t27.5 -27l152 -193h-107l-123 160l-125 -160h-106zM352 401h500l-229 648q-8 23 -17.5 56.5t-11.5 65.5q-4 -35 -11.5 -67.5t-15.5 -54.5z " />
<glyph unicode="&#xc3;" horiz-adv-x="1196" d="M96 0l408 1206h-113v90h260l469 -1296h-127l-110 313h-559l-105 -313h-123zM322 1450q6 78 39.5 124t99.5 46q33 0 58.5 -12.5t48 -25.5t45 -25.5t49.5 -12.5q25 0 42 17.5t31 58.5h53q-6 -78 -39.5 -124t-99.5 -46q-37 0 -62.5 12.5t-48 25.5t-44 25.5t-45.5 12.5 q-25 0 -42.5 -17.5t-31.5 -58.5h-53zM352 401h500l-229 648q-8 23 -17.5 56.5t-11.5 65.5q-4 -35 -11.5 -67.5t-15.5 -54.5z" />
<glyph unicode="&#xc4;" horiz-adv-x="1196" d="M96 0l408 1206h-113v90h260l469 -1296h-127l-110 313h-559l-105 -313h-123zM324 1534q0 41 26.5 67.5t67.5 26.5q39 0 65.5 -26.5t26.5 -67.5t-25.5 -66.5t-66.5 -25.5t-67.5 26.5t-26.5 65.5zM352 401h500l-229 648q-8 23 -17.5 56.5t-11.5 65.5q-4 -35 -11.5 -67.5 t-15.5 -54.5zM627 1534q0 41 26.5 67.5t65.5 26.5q41 0 67.5 -26.5t26.5 -67.5q0 -39 -26.5 -65.5t-67.5 -26.5t-66.5 25.5t-25.5 66.5z" />
<glyph unicode="&#xc5;" horiz-adv-x="1196" d="M96 0l408 1206h-113v90h260l469 -1296h-127l-110 313h-559l-105 -313h-123zM352 401h500l-229 648q-8 23 -17.5 56.5t-11.5 65.5q-4 -35 -11.5 -67.5t-15.5 -54.5zM391 1567q0 72 48 115.5t116 43.5t116 -43.5t48 -115.5t-48 -116t-116 -44t-116 44t-48 116zM465 1567 q0 -39 23.5 -68t66.5 -29t66.5 29t23.5 68t-23.5 67.5t-66.5 28.5t-66.5 -28.5t-23.5 -67.5z" />
<glyph unicode="&#xc6;" horiz-adv-x="1705" d="M41 0l698 1206h-159v90h979v-90h-576v-504h467v-88h-467v-524h621l-17 -90h-729v315h-502l-178 -315h-137zM408 403h450v797z" />
<glyph unicode="&#xc7;" horiz-adv-x="1091" d="M106 655q0 152 31 274t93.5 208t156.5 132t223 46q72 0 137.5 -19.5t114.5 -60.5q41 -33 68.5 -78t44.5 -98l-98 -31q-33 92 -94.5 144.5t-172.5 52.5q-186 0 -279 -143.5t-93 -419.5q0 -104 14 -209t57 -188t123 -135t211 -52q43 0 89 7t88 19.5t78 26.5t60 29l-4 -99 q-25 -16 -62.5 -30.5t-81.5 -24.5t-92 -17t-93 -7q-6 0 -12.5 1t-10.5 1q-20 -27 -20 -43q0 -23 30.5 -31t66.5 -19.5t66.5 -32t30.5 -67.5q0 -59 -56 -95t-173 -36l-12 49q66 4 110.5 18.5t44.5 47.5q0 27 -29.5 38t-65.5 20t-65.5 22.5t-29.5 44.5q0 18 8 38.5t31 49.5 q-127 14 -210 73.5t-132.5 149.5t-70 204.5t-20.5 239.5z" />
<glyph unicode="&#xc8;" horiz-adv-x="1019" d="M172 0v1296h700v-90h-575v-504h467v-88h-467v-524h621l-17 -90h-729zM354 1565q0 72 84 71q68 0 146 -58t137 -142l-23 -37q-61 57 -122.5 84.5t-118.5 27.5q-23 0 -43.5 -5t-34.5 -9q-10 10 -17.5 31.5t-7.5 36.5z" />
<glyph unicode="&#xc9;" horiz-adv-x="1019" d="M172 0v1296h700v-90h-575v-504h467v-88h-467v-524h621l-17 -90h-729zM352 1436q29 43 65 78.5t72.5 63.5t73.5 43t72 15q84 1 84 -71q0 -14 -7 -36t-18 -32q-14 4 -34.5 9t-43.5 5q-57 0 -118.5 -27.5t-122.5 -84.5z" />
<glyph unicode="&#xca;" horiz-adv-x="1019" d="M172 0v1296h700v-90h-575v-504h467v-88h-467v-524h621l-17 -90h-729zM293 1411l151 193q16 20 27.5 27t30.5 7h43q18 0 29.5 -7t27.5 -27l152 -193h-107l-123 160l-125 -160h-106z" />
<glyph unicode="&#xcb;" horiz-adv-x="1019" d="M172 0v1296h700v-90h-575v-504h467v-88h-467v-524h621l-17 -90h-729zM276 1534q0 41 27 67.5t68 26.5q39 0 65.5 -26.5t26.5 -67.5t-25.5 -66.5t-66.5 -25.5t-68 26.5t-27 65.5zM580 1534q0 41 26.5 67.5t65.5 26.5q41 0 67.5 -26.5t26.5 -67.5q0 -39 -26.5 -65.5 t-67.5 -26.5t-66.5 25.5t-25.5 66.5z" />
<glyph unicode="&#xcc;" horiz-adv-x="706" d="M154 0v80h137v1139h-137v77h399v-77h-137v-1139h137v-80h-399zM166 1565q0 72 84 71q68 0 145.5 -58t136.5 -142l-22 -37q-61 57 -122.5 84.5t-119.5 27.5q-23 0 -43 -5t-35 -9q-10 10 -17 31.5t-7 36.5z" />
<glyph unicode="&#xcd;" horiz-adv-x="706" d="M154 0v80h137v1139h-137v77h399v-77h-137v-1139h137v-80h-399zM168 1436q29 43 64.5 78.5t72.5 63.5t74 43t72 15q84 1 84 -71q0 -14 -7.5 -36t-17.5 -32q-14 4 -34.5 9t-43.5 5q-57 0 -118.5 -27.5t-123.5 -84.5z" />
<glyph unicode="&#xce;" horiz-adv-x="706" d="M123 1411l151 193q16 20 27.5 27t30.5 7h43q18 0 29.5 -7t27.5 -27l152 -193h-107l-123 160l-125 -160h-106zM154 0v80h137v1139h-137v77h399v-77h-137v-1139h137v-80h-399z" />
<glyph unicode="&#xcf;" horiz-adv-x="706" d="M109 1534q0 41 26.5 67.5t67.5 26.5q39 0 65.5 -26.5t26.5 -67.5t-25.5 -66.5t-66.5 -25.5t-67.5 26.5t-26.5 65.5zM154 0v80h137v1139h-137v77h399v-77h-137v-1139h137v-80h-399zM412 1534q0 41 26.5 67.5t65.5 26.5q41 0 67.5 -26.5t26.5 -67.5q0 -39 -26.5 -65.5 t-67.5 -26.5t-66.5 25.5t-25.5 66.5z" />
<glyph unicode="&#xd0;" horiz-adv-x="1228" d="M47 600v88h137v518h-108v90h362q86 0 156 -5t129 -17q100 -23 175 -67t125 -117.5t74.5 -179t24.5 -248.5q0 -180 -35.5 -310.5t-111.5 -208.5q-72 -72 -180.5 -107.5t-262.5 -35.5h-348v600h-137zM309 90h193q156 0 253 41t150 119q51 78 68.5 183.5t17.5 236.5 q0 223 -65.5 344t-218.5 164q-49 14 -116 21t-136 7h-146v-518h203v-88h-203v-510z" />
<glyph unicode="&#xd1;" horiz-adv-x="1261" d="M172 0v1296h96l639 -966q20 -31 39 -67t33 -68v1101h111v-1296h-95l-643 975q-14 23 -34.5 58.5t-34.5 70.5v-1104h-111zM406 1450q6 78 39.5 124t99.5 46q33 0 58.5 -12.5t48 -25.5t45 -25.5t48.5 -12.5q25 0 42.5 17.5t31.5 58.5h53q-6 -78 -39.5 -124t-99.5 -46 q-37 0 -62.5 12.5t-48 25.5t-44 25.5t-46.5 12.5t-42 -17.5t-31 -58.5h-53z" />
<glyph unicode="&#xd2;" horiz-adv-x="1200" d="M106 647q0 332 130.5 500t363.5 168t363.5 -168t130.5 -500t-130 -498.5t-364 -166.5q-233 0 -363.5 166.5t-130.5 498.5zM238 647q0 -129 19 -234.5t62 -180t113 -115.5t168 -41t168 41t113 115.5t62.5 180t19.5 234.5t-19.5 235.5t-62.5 181.5t-113 116t-168 41 t-168 -41t-113 -116t-62 -181.5t-19 -235.5zM418 1565q0 72 84 71q68 0 145.5 -58t136.5 -142l-22 -37q-61 57 -122.5 84.5t-119.5 27.5q-23 0 -43 -5t-35 -9q-10 10 -17 31.5t-7 36.5z" />
<glyph unicode="&#xd3;" horiz-adv-x="1200" d="M106 647q0 332 130.5 500t363.5 168t363.5 -168t130.5 -500t-130 -498.5t-364 -166.5q-233 0 -363.5 166.5t-130.5 498.5zM238 647q0 -129 19 -234.5t62 -180t113 -115.5t168 -41t168 41t113 115.5t62.5 180t19.5 234.5t-19.5 235.5t-62.5 181.5t-113 116t-168 41 t-168 -41t-113 -116t-62 -181.5t-19 -235.5zM414 1436q29 43 64.5 78.5t72.5 63.5t74 43t71 15q84 1 84 -71q0 -14 -7 -36t-17 -32q-14 4 -35 9t-43 5q-57 0 -118.5 -27.5t-123.5 -84.5z" />
<glyph unicode="&#xd4;" horiz-adv-x="1200" d="M106 647q0 332 130.5 500t363.5 168t363.5 -168t130.5 -500t-130 -498.5t-364 -166.5q-233 0 -363.5 166.5t-130.5 498.5zM238 647q0 -129 19 -234.5t62 -180t113 -115.5t168 -41t168 41t113 115.5t62.5 180t19.5 234.5t-19.5 235.5t-62.5 181.5t-113 116t-168 41 t-168 -41t-113 -116t-62 -181.5t-19 -235.5zM369 1411l151 193q16 20 27.5 27t30.5 7h43q18 0 29.5 -7t27.5 -27l151 -193h-106l-123 160l-125 -160h-106z" />
<glyph unicode="&#xd5;" horiz-adv-x="1200" d="M106 647q0 332 130.5 500t363.5 168t363.5 -168t130.5 -500t-130 -498.5t-364 -166.5q-233 0 -363.5 166.5t-130.5 498.5zM238 647q0 -129 19 -234.5t62 -180t113 -115.5t168 -41t168 41t113 115.5t62.5 180t19.5 234.5t-19.5 235.5t-62.5 181.5t-113 116t-168 41 t-168 -41t-113 -116t-62 -181.5t-19 -235.5zM367 1450q6 78 39.5 124t99.5 46q33 0 58.5 -12.5t48 -25.5t45 -25.5t49.5 -12.5q25 0 42 17.5t31 58.5h54q-6 -78 -40 -124t-100 -46q-37 0 -62.5 12.5t-48 25.5t-44 25.5t-45.5 12.5q-25 0 -42.5 -17.5t-31.5 -58.5h-53z" />
<glyph unicode="&#xd6;" horiz-adv-x="1200" d="M106 647q0 332 130.5 500t363.5 168t363.5 -168t130.5 -500t-130 -498.5t-364 -166.5q-233 0 -363.5 166.5t-130.5 498.5zM238 647q0 -129 19 -234.5t62 -180t113 -115.5t168 -41t168 41t113 115.5t62.5 180t19.5 234.5t-19.5 235.5t-62.5 181.5t-113 116t-168 41 t-168 -41t-113 -116t-62 -181.5t-19 -235.5zM354 1534q0 41 27 67.5t68 26.5q39 0 65.5 -26.5t26.5 -67.5t-26 -66.5t-66 -25.5q-41 0 -68 26.5t-27 65.5zM657 1534q0 41 27 67.5t66 26.5q41 0 67.5 -26.5t26.5 -67.5q0 -39 -26.5 -65.5t-67.5 -26.5t-67 25.5t-26 66.5z" />
<glyph unicode="&#xd7;" horiz-adv-x="1003" d="M262 479l176 176l-176 176l64 64l176 -176l176 176l63 -64l-176 -176l176 -176l-63 -63l-176 176l-176 -176z" />
<glyph unicode="&#xd8;" horiz-adv-x="1200" d="M106 647q0 332 130.5 500t363.5 168q129 0 229 -53l82 176h111l-111 -236q88 -82 135.5 -219t47.5 -336q0 -332 -130 -498.5t-364 -166.5q-135 0 -233 55l-82 -178h-111l111 237q-86 82 -132.5 219.5t-46.5 331.5zM238 647q0 -141 22.5 -253.5t75.5 -188.5l450 964 q-78 51 -186 52q-98 0 -168 -41t-113 -116t-62 -181.5t-19 -235.5zM412 129q78 -53 188 -53q98 0 168 41t113 115.5t62.5 180t19.5 234.5q0 143 -24 257t-77 190z" />
<glyph unicode="&#xd9;" horiz-adv-x="1220" d="M170 432v864h125v-837q0 -109 13.5 -173.5t41.5 -109.5q37 -57 105.5 -83.5t154.5 -26.5q188 0 260 110q29 45 43.5 112.5t14.5 176.5v831h125v-839q0 -113 -16.5 -186.5t-55.5 -133.5q-102 -156 -375 -155q-236 0 -344 127q-49 57 -70.5 131.5t-21.5 191.5zM428 1565 q0 72 84 71q68 0 145.5 -58t137.5 -142l-23 -37q-61 57 -122.5 84.5t-119.5 27.5q-23 0 -43 -5t-34 -9q-10 10 -17.5 31.5t-7.5 36.5z" />
<glyph unicode="&#xda;" horiz-adv-x="1220" d="M170 432v864h125v-837q0 -109 13.5 -173.5t41.5 -109.5q37 -57 105.5 -83.5t154.5 -26.5q188 0 260 110q29 45 43.5 112.5t14.5 176.5v831h125v-839q0 -113 -16.5 -186.5t-55.5 -133.5q-102 -156 -375 -155q-236 0 -344 127q-49 57 -70.5 131.5t-21.5 191.5zM432 1436 q29 43 64.5 78.5t72.5 63.5t74 43t72 15q84 1 84 -71q0 -14 -7.5 -36t-17.5 -32q-14 4 -34.5 9t-43.5 5q-57 0 -118.5 -27.5t-122.5 -84.5z" />
<glyph unicode="&#xdb;" horiz-adv-x="1220" d="M170 432v864h125v-837q0 -109 13.5 -173.5t41.5 -109.5q37 -57 105.5 -83.5t154.5 -26.5q188 0 260 110q29 45 43.5 112.5t14.5 176.5v831h125v-839q0 -113 -16.5 -186.5t-55.5 -133.5q-102 -156 -375 -155q-236 0 -344 127q-49 57 -70.5 131.5t-21.5 191.5zM379 1411 l151 193q16 20 27.5 27t30.5 7h43q18 0 29.5 -7t27.5 -27l152 -193h-107l-123 160l-125 -160h-106z" />
<glyph unicode="&#xdc;" horiz-adv-x="1220" d="M170 432v864h125v-837q0 -109 13.5 -173.5t41.5 -109.5q37 -57 105.5 -83.5t154.5 -26.5q188 0 260 110q29 45 43.5 112.5t14.5 176.5v831h125v-839q0 -113 -16.5 -186.5t-55.5 -133.5q-102 -156 -375 -155q-236 0 -344 127q-49 57 -70.5 131.5t-21.5 191.5zM365 1534 q0 41 26.5 67.5t67.5 26.5q39 0 65.5 -26.5t26.5 -67.5t-25.5 -66.5t-66.5 -25.5t-67.5 26.5t-26.5 65.5zM668 1534q0 41 26.5 67.5t65.5 26.5q41 0 67.5 -26.5t26.5 -67.5q0 -39 -26.5 -65.5t-67.5 -26.5t-66.5 25.5t-25.5 66.5z" />
<glyph unicode="&#xdd;" horiz-adv-x="1062" d="M74 1296h131l295 -614q16 -35 29.5 -72t17.5 -59h2q4 25 16.5 57.5t28.5 67.5l295 620h115l-400 -839v-457h-125v459zM360 1436q29 43 65 78.5t73 63.5t73.5 43t71.5 15q84 1 84 -71q0 -14 -7 -36t-18 -32q-14 4 -34.5 9t-42.5 5q-57 0 -119 -27.5t-123 -84.5z" />
<glyph unicode="&#xde;" horiz-adv-x="1087" d="M172 0v1296h127v-231h215q117 0 197 -19.5t139 -54.5q158 -96 158 -319q0 -199 -115 -307.5t-373 -108.5h-223v-256h-125zM297 346h188q90 0 163 12.5t125 48t80 98.5t28 163q0 154 -85 230.5t-278 76.5h-221v-629z" />
<glyph unicode="&#xdf;" horiz-adv-x="1134" d="M61 905v88h142v15q0 104 15 170.5t58 121.5q51 66 134.5 95.5t179.5 29.5q92 0 157.5 -27.5t107.5 -73.5t62.5 -108.5t20.5 -130.5q0 -18 -2 -43.5t-5 -51t-6 -48t-7 -37.5q-31 8 -78 15.5t-90 7.5q-113 0 -169.5 -46t-56.5 -122q0 -63 38 -100t95.5 -64t124 -50.5 t124 -58t95 -89t37.5 -140.5q0 -119 -88 -197.5t-260 -78.5q-74 0 -148.5 17t-131.5 42v100q76 -37 143.5 -55t138.5 -18q63 0 108.5 15t73 39.5t41 56.5t13.5 67q0 74 -38 118t-95.5 72.5t-123 51t-122.5 53t-95 80t-38 131.5q0 59 23.5 105t64.5 81q92 74 241 74 q39 0 86 -6q4 12 5.5 33.5t1.5 43.5q0 125 -63.5 192.5t-188.5 67.5q-61 0 -117.5 -19t-91.5 -67q-33 -43 -46.5 -98t-13.5 -151v-1008h-114v905h-142z" />
<glyph unicode="&#xe0;" horiz-adv-x="1013" d="M111 301q0 88 30.5 150.5t85 101.5t125 56.5t150.5 17.5q66 0 126 -6.5t95 -14.5v80q0 129 -63.5 183.5t-188.5 54.5q-70 0 -141.5 -16.5t-136.5 -45.5l-5 92q63 27 143.5 42.5t147.5 15.5q174 0 266.5 -73t92.5 -255v-498q0 -59 10 -82.5t47 -23.5q29 0 49 10l-6 -82 q-12 -8 -33.5 -11t-40.5 -3q-133 0 -135 129q-35 -74 -114.5 -107.5t-165.5 -33.5q-152 0 -245 82.5t-93 236.5zM223 307q0 -106 61.5 -172.5t172.5 -66.5q150 0 208 84t58 223v147q-31 6 -90.5 13.5t-122.5 7.5q-61 0 -113.5 -11.5t-90.5 -39t-60.5 -72.5t-22.5 -113z M328 1268q0 72 84 71q68 0 145.5 -58t136.5 -142l-22 -37q-61 57 -123 84.5t-119 27.5q-23 0 -43 -5t-35 -9q-10 10 -17 31.5t-7 36.5z" />
<glyph unicode="&#xe1;" horiz-adv-x="1013" d="M111 301q0 88 30.5 150.5t85 101.5t125 56.5t150.5 17.5q66 0 126 -6.5t95 -14.5v80q0 129 -63.5 183.5t-188.5 54.5q-70 0 -141.5 -16.5t-136.5 -45.5l-5 92q63 27 143.5 42.5t147.5 15.5q174 0 266.5 -73t92.5 -255v-498q0 -59 10 -82.5t47 -23.5q29 0 49 10l-6 -82 q-12 -8 -33.5 -11t-40.5 -3q-133 0 -135 129q-35 -74 -114.5 -107.5t-165.5 -33.5q-152 0 -245 82.5t-93 236.5zM223 307q0 -106 61.5 -172.5t172.5 -66.5q150 0 208 84t58 223v147q-31 6 -90.5 13.5t-122.5 7.5q-61 0 -113.5 -11.5t-90.5 -39t-60.5 -72.5t-22.5 -113z M317 1139q29 43 65 78.5t73 63.5t73.5 43t71.5 15q84 1 84 -71q0 -14 -7 -36t-18 -32q-14 4 -34.5 9t-42.5 5q-57 0 -119 -27.5t-123 -84.5z" />
<glyph unicode="&#xe2;" horiz-adv-x="1013" d="M111 301q0 88 30.5 150.5t85 101.5t125 56.5t150.5 17.5q66 0 126 -6.5t95 -14.5v80q0 129 -63.5 183.5t-188.5 54.5q-70 0 -141.5 -16.5t-136.5 -45.5l-5 92q63 27 143.5 42.5t147.5 15.5q174 0 266.5 -73t92.5 -255v-498q0 -59 10 -82.5t47 -23.5q29 0 49 10l-6 -82 q-12 -8 -33.5 -11t-40.5 -3q-133 0 -135 129q-35 -74 -114.5 -107.5t-165.5 -33.5q-152 0 -245 82.5t-93 236.5zM223 307q0 -106 61.5 -172.5t172.5 -66.5q150 0 208 84t58 223v147q-31 6 -90.5 13.5t-122.5 7.5q-61 0 -113.5 -11.5t-90.5 -39t-60.5 -72.5t-22.5 -113z M276 1122l152 193q16 20 27.5 27.5t29.5 7.5h43q18 0 29.5 -7.5t28.5 -27.5l151 -193h-106l-123 160l-125 -160h-107z" />
<glyph unicode="&#xe3;" horiz-adv-x="1013" d="M111 301q0 88 30.5 150.5t85 101.5t125 56.5t150.5 17.5q66 0 126 -6.5t95 -14.5v80q0 129 -63.5 183.5t-188.5 54.5q-70 0 -141.5 -16.5t-136.5 -45.5l-5 92q63 27 143.5 42.5t147.5 15.5q174 0 266.5 -73t92.5 -255v-498q0 -59 10 -82.5t47 -23.5q29 0 49 10l-6 -82 q-12 -8 -33.5 -11t-40.5 -3q-133 0 -135 129q-35 -74 -114.5 -107.5t-165.5 -33.5q-152 0 -245 82.5t-93 236.5zM223 307q0 -106 61.5 -172.5t172.5 -66.5q150 0 208 84t58 223v147q-31 6 -90.5 13.5t-122.5 7.5q-61 0 -113.5 -11.5t-90.5 -39t-60.5 -72.5t-22.5 -113z M266 1153q6 78 40 124t100 46q33 0 58 -12.5t48 -25.5t45.5 -25.5t48.5 -12.5q25 0 42.5 17.5t31.5 58.5h53q-6 -78 -40 -124t-99 -46q-37 0 -62.5 12.5t-48 25.5t-44 25.5t-46.5 12.5t-42 -17.5t-32 -58.5h-53z" />
<glyph unicode="&#xe4;" horiz-adv-x="1013" d="M111 301q0 88 30.5 150.5t85 101.5t125 56.5t150.5 17.5q66 0 126 -6.5t95 -14.5v80q0 129 -63.5 183.5t-188.5 54.5q-70 0 -141.5 -16.5t-136.5 -45.5l-5 92q63 27 143.5 42.5t147.5 15.5q174 0 266.5 -73t92.5 -255v-498q0 -59 10 -82.5t47 -23.5q29 0 49 10l-6 -82 q-12 -8 -33.5 -11t-40.5 -3q-133 0 -135 129q-35 -74 -114.5 -107.5t-165.5 -33.5q-152 0 -245 82.5t-93 236.5zM223 307q0 -106 61.5 -172.5t172.5 -66.5q150 0 208 84t58 223v147q-31 6 -90.5 13.5t-122.5 7.5q-61 0 -113.5 -11.5t-90.5 -39t-60.5 -72.5t-22.5 -113z M256 1237q0 41 26.5 67.5t67.5 26.5q39 0 65.5 -26.5t26.5 -67.5t-25.5 -66.5t-66.5 -25.5t-67.5 26.5t-26.5 65.5zM559 1237q0 41 26.5 67.5t65.5 26.5q41 0 67.5 -26.5t26.5 -67.5q0 -39 -26.5 -65.5t-67.5 -26.5t-66.5 25.5t-25.5 66.5z" />
<glyph unicode="&#xe5;" horiz-adv-x="1013" d="M111 301q0 88 30.5 150.5t85 101.5t125 56.5t150.5 17.5q66 0 126 -6.5t95 -14.5v80q0 129 -63.5 183.5t-188.5 54.5q-70 0 -141.5 -16.5t-136.5 -45.5l-5 92q63 27 143.5 42.5t147.5 15.5q174 0 266.5 -73t92.5 -255v-498q0 -59 10 -82.5t47 -23.5q29 0 49 10l-6 -82 q-12 -8 -33.5 -11t-40.5 -3q-133 0 -135 129q-35 -74 -114.5 -107.5t-165.5 -33.5q-152 0 -245 82.5t-93 236.5zM223 307q0 -106 61.5 -172.5t172.5 -66.5q150 0 208 84t58 223v147q-31 6 -90.5 13.5t-122.5 7.5q-61 0 -113.5 -11.5t-90.5 -39t-60.5 -72.5t-22.5 -113z M338 1276q0 72 48 116t116 44t116 -44t48 -116t-48.5 -116t-115.5 -44q-68 0 -116 44t-48 116zM412 1276q0 -39 23.5 -67.5t66.5 -28.5t66.5 28.5t23.5 67.5t-23.5 67.5t-66.5 28.5t-66.5 -28.5t-23.5 -67.5z" />
<glyph unicode="&#xe6;" horiz-adv-x="1609" d="M111 301q0 88 30.5 150.5t85 101.5t125 56.5t150.5 17.5q66 0 126 -6.5t95 -14.5v80q0 129 -63.5 183.5t-188.5 54.5q-70 0 -141.5 -16.5t-136.5 -45.5l-5 92q63 27 143.5 42.5t147.5 15.5q129 0 213 -38t119 -130q113 168 330 168q166 0 267 -122t101 -343 q0 -47 -14 -66.5t-59 -19.5h-598q4 -86 24.5 -158t60.5 -123t100 -79.5t144 -28.5t165 25.5t138 66.5l-2 -94q-25 -18 -61.5 -35t-78.5 -29t-86 -18t-83 -6q-139 0 -231 55t-144 153q-27 -92 -113.5 -150t-221.5 -58q-152 0 -245 82.5t-93 236.5zM223 307 q0 -106 61.5 -172.5t172.5 -66.5q150 0 208 84t58 223v147q-31 6 -90.5 13.5t-122.5 7.5q-61 0 -113.5 -11.5t-90.5 -39t-60.5 -72.5t-22.5 -113zM838 545h544q15 0 15 16q0 80 -15.5 146.5t-47 114.5t-82 76t-119.5 28q-137 0 -212 -98.5t-83 -282.5z" />
<glyph unicode="&#xe7;" horiz-adv-x="923" d="M90 500q0 117 30 211t85 161.5t134 103.5t177 36q158 0 248 -97q23 -25 42 -61.5t30 -75.5l-99 -26q-23 78 -78 126t-147 48q-139 0 -222 -106.5t-83 -317.5q0 -90 16.5 -168t54 -136.5t101 -92t158.5 -33.5q72 0 138 21.5t120 62.5l-2 -93q-43 -33 -119 -57t-154 -24 q-23 0 -33 2q-20 -27 -20 -43q0 -23 30.5 -31t66.5 -19.5t67 -32t31 -67.5q0 -59 -56.5 -95t-173.5 -36l-12 49q66 4 110.5 18.5t44.5 47.5q0 27 -29.5 38t-65.5 20t-65.5 22.5t-29.5 44.5q0 20 9 40.5t32 49.5q-170 29 -253 161t-83 349z" />
<glyph unicode="&#xe8;" horiz-adv-x="978" d="M90 492q0 129 31 226t86 162.5t132 98.5t169 33q82 0 150.5 -32t117.5 -93.5t76 -148t27 -197.5q0 -47 -14.5 -66.5t-59.5 -19.5h-598q8 -172 86 -277.5t244 -105.5q84 0 164.5 25.5t138.5 66.5l-2 -94q-25 -18 -62 -35t-79 -29t-86 -18t-83 -6q-111 0 -193.5 35.5 t-137 102t-81 161t-26.5 211.5zM207 539h545q14 0 14 16q0 80 -15.5 147.5t-48 116.5t-83 78t-119.5 29q-137 0 -211 -101.5t-82 -285.5zM326 1268q0 72 84 71q68 0 145.5 -58t136.5 -142l-22 -37q-61 57 -123 84.5t-119 27.5q-23 0 -43 -5t-35 -9q-10 10 -17 31.5t-7 36.5z " />
<glyph unicode="&#xe9;" horiz-adv-x="978" d="M90 492q0 129 31 226t86 162.5t132 98.5t169 33q82 0 150.5 -32t117.5 -93.5t76 -148t27 -197.5q0 -47 -14.5 -66.5t-59.5 -19.5h-598q8 -172 86 -277.5t244 -105.5q84 0 164.5 25.5t138.5 66.5l-2 -94q-25 -18 -62 -35t-79 -29t-86 -18t-83 -6q-111 0 -193.5 35.5 t-137 102t-81 161t-26.5 211.5zM207 539h545q14 0 14 16q0 80 -15.5 147.5t-48 116.5t-83 78t-119.5 29q-137 0 -211 -101.5t-82 -285.5zM287 1139q29 43 64.5 78.5t72.5 63.5t74 43t71 15q84 1 84 -71q0 -14 -7 -36t-17 -32q-14 4 -35 9t-43 5q-57 0 -118.5 -27.5 t-123.5 -84.5z" />
<glyph unicode="&#xea;" horiz-adv-x="978" d="M90 492q0 129 31 226t86 162.5t132 98.5t169 33q82 0 150.5 -32t117.5 -93.5t76 -148t27 -197.5q0 -47 -14.5 -66.5t-59.5 -19.5h-598q8 -172 86 -277.5t244 -105.5q84 0 164.5 25.5t138.5 66.5l-2 -94q-25 -18 -62 -35t-79 -29t-86 -18t-83 -6q-111 0 -193.5 35.5 t-137 102t-81 161t-26.5 211.5zM207 539h545q14 0 14 16q0 80 -15.5 147.5t-48 116.5t-83 78t-119.5 29q-137 0 -211 -101.5t-82 -285.5zM264 1122l152 193q16 20 27.5 27.5t29.5 7.5h43q18 0 29.5 -7.5t27.5 -27.5l152 -193h-107l-122 160l-125 -160h-107z" />
<glyph unicode="&#xeb;" horiz-adv-x="978" d="M90 492q0 129 31 226t86 162.5t132 98.5t169 33q82 0 150.5 -32t117.5 -93.5t76 -148t27 -197.5q0 -47 -14.5 -66.5t-59.5 -19.5h-598q8 -172 86 -277.5t244 -105.5q84 0 164.5 25.5t138.5 66.5l-2 -94q-25 -18 -62 -35t-79 -29t-86 -18t-83 -6q-111 0 -193.5 35.5 t-137 102t-81 161t-26.5 211.5zM207 539h545q14 0 14 16q0 80 -15.5 147.5t-48 116.5t-83 78t-119.5 29q-137 0 -211 -101.5t-82 -285.5zM248 1237q0 41 26.5 67.5t67.5 26.5q39 0 65.5 -26.5t26.5 -67.5t-25.5 -66.5t-66.5 -25.5t-67.5 26.5t-26.5 65.5zM551 1237 q0 41 26.5 67.5t65.5 26.5q41 0 67.5 -26.5t26.5 -67.5q0 -39 -26.5 -65.5t-67.5 -26.5t-66.5 25.5t-25.5 66.5z" />
<glyph unicode="&#xec;" d="M33 1268q0 72 84 71q68 0 145.5 -58t136.5 -142l-22 -37q-61 57 -122.5 84.5t-119.5 27.5q-23 0 -43 -5t-35 -9q-10 10 -17 31.5t-7 36.5zM86 905v88h227v-807q0 -61 11.5 -83.5t46.5 -22.5q29 0 49 10l-6 -82q-12 -6 -36 -10t-44 -4q-135 0 -135 147v764h-113z" />
<glyph unicode="&#xed;" d="M23 1139q29 43 64.5 78.5t72.5 63.5t73.5 43t71.5 15q84 1 84 -71q0 -14 -7 -36t-17 -32q-14 4 -35 9t-43 5q-57 0 -119 -27.5t-123 -84.5zM86 905v88h227v-807q0 -61 11.5 -83.5t46.5 -22.5q29 0 49 10l-6 -82q-12 -6 -36 -10t-44 -4q-135 0 -135 147v764h-113z" />
<glyph unicode="&#xee;" d="M18 1122l152 193q16 20 27.5 27.5t29.5 7.5h43q18 0 29.5 -7.5t28.5 -27.5l151 -193h-106l-123 160l-125 -160h-107zM86 905v88h227v-807q0 -61 11.5 -83.5t46.5 -22.5q29 0 49 10l-6 -82q-12 -6 -36 -10t-44 -4q-135 0 -135 147v764h-113z" />
<glyph unicode="&#xef;" d="M2 1237q0 41 26.5 67.5t67.5 26.5q39 0 65.5 -26.5t26.5 -67.5t-25.5 -66.5t-66.5 -25.5t-67.5 26.5t-26.5 65.5zM86 905v88h227v-807q0 -61 11.5 -83.5t46.5 -22.5q29 0 49 10l-6 -82q-12 -6 -36 -10t-44 -4q-135 0 -135 147v764h-113zM305 1237q0 41 26.5 67.5 t65.5 26.5q41 0 68 -26.5t27 -67.5q0 -39 -27 -65.5t-68 -26.5t-66.5 25.5t-25.5 66.5z" />
<glyph unicode="&#xf0;" horiz-adv-x="1085" d="M131 414q0 92 29.5 168.5t84 131t128 85t162.5 30.5q76 0 156.5 -21.5t135.5 -47.5q-14 129 -56 236.5t-134 172.5l-49 -114l-64 24l54 125q-31 16 -79 24.5t-100 10.5l17 76q53 0 105 -7.5t91 -21.5l52 121l65 -25l-53 -125q80 -43 133 -111.5t86 -156.5t47 -193 t14 -218q0 -125 -22.5 -233.5t-72.5 -189.5t-131 -127t-198 -46q-96 0 -169.5 32.5t-126 91t-79 137.5t-26.5 171zM254 414q0 -70 17.5 -132.5t53 -110.5t88 -75.5t122.5 -27.5q86 0 144 35.5t94 100t50.5 153.5t14.5 198v57.5t-2 57.5q-57 33 -130 52t-133 19 q-158 0 -238.5 -90t-80.5 -237z" />
<glyph unicode="&#xf1;" horiz-adv-x="1099" d="M70 905v88h200l19 -123q47 70 131 107q76 35 186 35q78 0 145.5 -27t110.5 -72q53 -55 66.5 -129.5t13.5 -148.5v-635h-115v627q0 86 -11 136t-48 89q-33 35 -80 50.5t-104 15.5q-63 0 -119.5 -18.5t-95.5 -61.5q-41 -45 -56.5 -105.5t-15.5 -159.5v-573h-115v905h-112z M322 1153q6 78 39.5 124t99.5 46q33 0 58.5 -12.5t48 -25.5t45 -25.5t49.5 -12.5q25 0 42 17.5t31 58.5h53q-6 -78 -39.5 -124t-99.5 -46q-37 0 -62.5 12.5t-48 25.5t-44 25.5t-45.5 12.5q-25 0 -42.5 -17.5t-31.5 -58.5h-53z" />
<glyph unicode="&#xf2;" horiz-adv-x="1019" d="M90 496q0 123 31 219t86 161.5t132 100.5t171 35t171 -35t132 -100.5t86 -161.5t31 -219t-31 -218.5t-86 -162t-132 -100t-171 -33.5t-171 33.5t-132 100t-86 162t-31 218.5zM207 496q0 -113 22.5 -194t62.5 -133t96 -76.5t122 -24.5t122 24.5t96 76.5t62.5 133t22.5 194 q0 111 -22.5 192.5t-62.5 133.5t-96.5 78t-121.5 26q-133 0 -218 -103.5t-85 -326.5zM330 1268q0 72 84 71q68 0 145.5 -58t136.5 -142l-22 -37q-61 57 -123 84.5t-119 27.5q-23 0 -43 -5t-35 -9q-10 10 -17 31.5t-7 36.5z" />
<glyph unicode="&#xf3;" horiz-adv-x="1019" d="M90 496q0 123 31 219t86 161.5t132 100.5t171 35t171 -35t132 -100.5t86 -161.5t31 -219t-31 -218.5t-86 -162t-132 -100t-171 -33.5t-171 33.5t-132 100t-86 162t-31 218.5zM207 496q0 -113 22.5 -194t62.5 -133t96 -76.5t122 -24.5t122 24.5t96 76.5t62.5 133t22.5 194 q0 111 -22.5 192.5t-62.5 133.5t-96.5 78t-121.5 26q-133 0 -218 -103.5t-85 -326.5zM317 1139q29 43 65 78.5t73 63.5t73.5 43t71.5 15q84 1 84 -71q0 -14 -7 -36t-18 -32q-14 4 -34.5 9t-42.5 5q-57 0 -119 -27.5t-123 -84.5z" />
<glyph unicode="&#xf4;" horiz-adv-x="1019" d="M90 496q0 123 31 219t86 161.5t132 100.5t171 35t171 -35t132 -100.5t86 -161.5t31 -219t-31 -218.5t-86 -162t-132 -100t-171 -33.5t-171 33.5t-132 100t-86 162t-31 218.5zM207 496q0 -113 22.5 -194t62.5 -133t96 -76.5t122 -24.5t122 24.5t96 76.5t62.5 133t22.5 194 q0 111 -22.5 192.5t-62.5 133.5t-96.5 78t-121.5 26q-133 0 -218 -103.5t-85 -326.5zM283 1122l151 193q16 20 27.5 27.5t30.5 7.5h43q18 0 29 -7.5t28 -27.5l151 -193h-106l-123 160l-125 -160h-106z" />
<glyph unicode="&#xf5;" horiz-adv-x="1019" d="M90 496q0 123 31 219t86 161.5t132 100.5t171 35t171 -35t132 -100.5t86 -161.5t31 -219t-31 -218.5t-86 -162t-132 -100t-171 -33.5t-171 33.5t-132 100t-86 162t-31 218.5zM207 496q0 -113 22.5 -194t62.5 -133t96 -76.5t122 -24.5t122 24.5t96 76.5t62.5 133t22.5 194 q0 111 -22.5 192.5t-62.5 133.5t-96.5 78t-121.5 26q-133 0 -218 -103.5t-85 -326.5zM274 1153q6 78 40 124t100 46q33 0 58.5 -12.5t48 -25.5t45 -25.5t48.5 -12.5q25 0 42.5 17.5t31.5 58.5h53q-6 -78 -39.5 -124t-99.5 -46q-37 0 -62.5 12.5t-48 25.5t-44 25.5 t-46.5 12.5t-42 -17.5t-31 -58.5h-54z" />
<glyph unicode="&#xf6;" horiz-adv-x="1019" d="M90 496q0 123 31 219t86 161.5t132 100.5t171 35t171 -35t132 -100.5t86 -161.5t31 -219t-31 -218.5t-86 -162t-132 -100t-171 -33.5t-171 33.5t-132 100t-86 162t-31 218.5zM207 496q0 -113 22.5 -194t62.5 -133t96 -76.5t122 -24.5t122 24.5t96 76.5t62.5 133t22.5 194 q0 111 -22.5 192.5t-62.5 133.5t-96.5 78t-121.5 26q-133 0 -218 -103.5t-85 -326.5zM266 1237q0 41 26.5 67.5t67.5 26.5q39 0 66 -26.5t27 -67.5t-26 -66.5t-67 -25.5t-67.5 26.5t-26.5 65.5zM569 1237q0 41 27 67.5t66 26.5q41 0 67.5 -26.5t26.5 -67.5q0 -39 -27 -65.5 t-67 -26.5q-41 0 -67 25.5t-26 66.5z" />
<glyph unicode="&#xf7;" horiz-adv-x="1003" d="M209 610v90h586v-90h-586zM424 414q0 33 22.5 54t55.5 21t54.5 -21t21.5 -54t-21.5 -55.5t-54.5 -22.5t-55.5 22.5t-22.5 55.5zM424 899q0 33 22.5 54.5t55.5 21.5t54.5 -21.5t21.5 -54.5t-21.5 -55.5t-54.5 -22.5t-55.5 22.5t-22.5 55.5z" />
<glyph unicode="&#xf8;" horiz-adv-x="1019" d="M90 496q0 123 31 219t86 161.5t132 100.5t171 35q96 0 170 -33l65 145h101l-88 -192q82 -63 127 -172.5t45 -263.5q0 -123 -31 -218.5t-86 -162t-132 -100t-171 -33.5t-168 32l-72 -155h-100l92 202q-82 63 -127 172t-45 263zM207 496q0 -121 25.5 -204t72.5 -136 l336 739q-59 31 -131 31q-133 0 -218 -103.5t-85 -326.5zM379 96q55 -29 131 -28q66 0 122 24.5t96 76.5t62.5 133t22.5 194q0 121 -25.5 204.5t-72.5 137.5z" />
<glyph unicode="&#xf9;" horiz-adv-x="1099" d="M156 358v635h114v-626q0 -86 11.5 -136.5t48.5 -89.5q33 -35 80 -50t104 -15q63 0 119.5 18.5t95.5 61.5q41 45 56.5 105.5t15.5 158.5v573h114v-807q0 -61 11.5 -83.5t46.5 -22.5q29 0 49 10l-6 -82q-12 -6 -36 -10t-44 -4q-125 0 -131 129q-53 -78 -138 -109.5 t-175 -31.5q-78 0 -145.5 26.5t-110.5 71.5q-53 55 -66.5 130t-13.5 148zM358 1268q0 72 84 71q68 0 146 -58t137 -142l-23 -37q-61 57 -122.5 84.5t-118.5 27.5q-23 0 -43.5 -5t-34.5 -9q-10 10 -17.5 31.5t-7.5 36.5z" />
<glyph unicode="&#xfa;" horiz-adv-x="1099" d="M156 358v635h114v-626q0 -86 11.5 -136.5t48.5 -89.5q33 -35 80 -50t104 -15q63 0 119.5 18.5t95.5 61.5q41 45 56.5 105.5t15.5 158.5v573h114v-807q0 -61 11.5 -83.5t46.5 -22.5q29 0 49 10l-6 -82q-12 -6 -36 -10t-44 -4q-125 0 -131 129q-53 -78 -138 -109.5 t-175 -31.5q-78 0 -145.5 26.5t-110.5 71.5q-53 55 -66.5 130t-13.5 148zM356 1139q29 43 65 78.5t72.5 63.5t73.5 43t72 15q84 1 84 -71q0 -14 -7 -36t-18 -32q-14 4 -34.5 9t-42.5 5q-57 0 -119 -27.5t-123 -84.5z" />
<glyph unicode="&#xfb;" horiz-adv-x="1099" d="M156 358v635h114v-626q0 -86 11.5 -136.5t48.5 -89.5q33 -35 80 -50t104 -15q63 0 119.5 18.5t95.5 61.5q41 45 56.5 105.5t15.5 158.5v573h114v-807q0 -61 11.5 -83.5t46.5 -22.5q29 0 49 10l-6 -82q-12 -6 -36 -10t-44 -4q-125 0 -131 129q-53 -78 -138 -109.5 t-175 -31.5q-78 0 -145.5 26.5t-110.5 71.5q-53 55 -66.5 130t-13.5 148zM297 1122l152 193q16 20 27 27.5t30 7.5h43q18 0 29.5 -7.5t27.5 -27.5l152 -193h-107l-123 160l-125 -160h-106z" />
<glyph unicode="&#xfc;" horiz-adv-x="1099" d="M156 358v635h114v-626q0 -86 11.5 -136.5t48.5 -89.5q33 -35 80 -50t104 -15q63 0 119.5 18.5t95.5 61.5q41 45 56.5 105.5t15.5 158.5v573h114v-807q0 -61 11.5 -83.5t46.5 -22.5q29 0 49 10l-6 -82q-12 -6 -36 -10t-44 -4q-125 0 -131 129q-53 -78 -138 -109.5 t-175 -31.5q-78 0 -145.5 26.5t-110.5 71.5q-53 55 -66.5 130t-13.5 148zM295 1237q0 41 26.5 67.5t67.5 26.5q39 0 65.5 -26.5t26.5 -67.5t-25.5 -66.5t-66.5 -25.5t-67.5 26.5t-26.5 65.5zM598 1237q0 41 26.5 67.5t65.5 26.5q41 0 67.5 -26.5t26.5 -67.5 q0 -39 -26.5 -65.5t-67.5 -26.5t-66.5 25.5t-25.5 66.5z" />
<glyph unicode="&#xfd;" horiz-adv-x="1075" d="M156 358v635h114v-626q0 -86 11.5 -136.5t48.5 -89.5q33 -35 80 -50t104 -15q63 0 119.5 18.5t95.5 61.5q41 45 56.5 105.5t15.5 158.5v573h114v-921q0 -70 -2 -124t-8 -97.5t-19.5 -77t-33.5 -64.5q-29 -41 -69 -68.5t-85 -44t-93 -23.5t-93 -7q-80 0 -166 15.5 t-141 43.5v94q29 -14 66.5 -26t78.5 -20.5t81 -13.5t73 -5q78 0 139.5 23.5t101.5 74.5q33 41 44.5 103.5t11.5 179.5v92q-51 -84 -134 -114.5t-175 -30.5q-78 0 -145.5 26.5t-110.5 71.5q-53 55 -66.5 130t-13.5 148zM365 1139q29 43 64.5 78.5t72.5 63.5t73.5 43t71.5 15 q84 1 84 -71q0 -14 -7 -36t-17 -32q-14 4 -35 9t-43 5q-57 0 -118.5 -27.5t-123.5 -84.5z" />
<glyph unicode="&#xfe;" horiz-adv-x="1064" d="M186 -408v1807h115v-518q31 47 86 82q78 49 197 49q98 0 170.5 -39t122 -107.5t74 -162.5t24.5 -205t-24.5 -206t-74 -164t-122 -107.5t-170.5 -38.5q-82 0 -159 29.5t-124 101.5v-521h-115zM301 385q0 -78 13.5 -134t45.5 -97q31 -39 83.5 -61.5t129.5 -22.5 q145 0 215 110.5t70 317.5t-69.5 316.5t-215.5 109.5q-78 0 -130 -22.5t-83 -61.5q-33 -41 -46 -97.5t-13 -134.5v-223z" />
<glyph unicode="&#xff;" horiz-adv-x="1075" d="M156 358v635h114v-626q0 -86 11.5 -136.5t48.5 -89.5q33 -35 80 -50t104 -15q63 0 119.5 18.5t95.5 61.5q41 45 56.5 105.5t15.5 158.5v573h114v-921q0 -70 -2 -124t-8 -97.5t-19.5 -77t-33.5 -64.5q-29 -41 -69 -68.5t-85 -44t-93 -23.5t-93 -7q-80 0 -166 15.5 t-141 43.5v94q29 -14 66.5 -26t78.5 -20.5t81 -13.5t73 -5q78 0 139.5 23.5t101.5 74.5q33 41 44.5 103.5t11.5 179.5v92q-51 -84 -134 -114.5t-175 -30.5q-78 0 -145.5 26.5t-110.5 71.5q-53 55 -66.5 130t-13.5 148zM289 1237q0 41 26.5 67.5t67.5 26.5q39 0 65.5 -26.5 t26.5 -67.5t-25.5 -66.5t-66.5 -25.5t-67.5 26.5t-26.5 65.5zM592 1237q0 41 26.5 67.5t65.5 26.5q41 0 67.5 -26.5t26.5 -67.5q0 -39 -26.5 -65.5t-67.5 -26.5t-66.5 25.5t-25.5 66.5z" />
<glyph unicode="&#x100;" horiz-adv-x="1196" d="M96 0l408 1206h-113v90h260l469 -1296h-127l-110 313h-559l-105 -313h-123zM346 1462v94h424v-94h-424zM352 401h500l-229 648q-8 23 -17.5 56.5t-11.5 65.5q-4 -35 -11.5 -67.5t-15.5 -54.5z" />
<glyph unicode="&#x101;" horiz-adv-x="1013" d="M111 301q0 88 30.5 150.5t85 101.5t125 56.5t150.5 17.5q66 0 126 -6.5t95 -14.5v80q0 129 -63.5 183.5t-188.5 54.5q-70 0 -141.5 -16.5t-136.5 -45.5l-5 92q63 27 143.5 42.5t147.5 15.5q174 0 266.5 -73t92.5 -255v-498q0 -59 10 -82.5t47 -23.5q29 0 49 10l-6 -82 q-12 -8 -33.5 -11t-40.5 -3q-133 0 -135 129q-35 -74 -114.5 -107.5t-165.5 -33.5q-152 0 -245 82.5t-93 236.5zM223 307q0 -106 61.5 -172.5t172.5 -66.5q150 0 208 84t58 223v147q-31 6 -90.5 13.5t-122.5 7.5q-61 0 -113.5 -11.5t-90.5 -39t-60.5 -72.5t-22.5 -113z M279 1188v94h423v-94h-423z" />
<glyph unicode="&#x102;" horiz-adv-x="1196" d="M96 0l408 1206h-113v90h260l469 -1296h-127l-110 313h-559l-105 -313h-123zM352 401h500l-229 648q-8 23 -17.5 56.5t-11.5 65.5q-4 -35 -11.5 -67.5t-15.5 -54.5zM356 1610h76q16 -59 47 -89t90 -30t90 29.5t48 89.5h75q-6 -109 -64.5 -158t-148.5 -49t-148.5 49 t-64.5 158z" />
<glyph unicode="&#x103;" horiz-adv-x="1013" d="M111 301q0 88 30.5 150.5t85 101.5t125 56.5t150.5 17.5q66 0 126 -6.5t95 -14.5v80q0 129 -63.5 183.5t-188.5 54.5q-70 0 -141.5 -16.5t-136.5 -45.5l-5 92q63 27 143.5 42.5t147.5 15.5q174 0 266.5 -73t92.5 -255v-498q0 -59 10 -82.5t47 -23.5q29 0 49 10l-6 -82 q-12 -8 -33.5 -11t-40.5 -3q-133 0 -135 129q-35 -74 -114.5 -107.5t-165.5 -33.5q-152 0 -245 82.5t-93 236.5zM223 307q0 -106 61.5 -172.5t172.5 -66.5q150 0 208 84t58 223v147q-31 6 -90.5 13.5t-122.5 7.5q-61 0 -113.5 -11.5t-90.5 -39t-60.5 -72.5t-22.5 -113z M293 1331h76q16 -59 46.5 -89t90.5 -30q59 0 90 30t47 89h76q-6 -109 -64.5 -158t-148.5 -49t-148.5 49.5t-64.5 157.5z" />
<glyph unicode="&#x104;" horiz-adv-x="1196" d="M96 0l408 1206h-113v90h260l469 -1296h-47q-37 0 -68.5 -40t-31.5 -99q0 -139 182 -168l-20 -51q-125 4 -190.5 64.5t-63.5 143.5q0 59 26.5 105.5t73.5 77.5l-98 280h-559l-105 -313h-123zM352 401h500l-229 648q-8 23 -17.5 55.5t-11.5 62.5q-4 -35 -11.5 -65.5 t-15.5 -52.5z" />
<glyph unicode="&#x105;" horiz-adv-x="1013" d="M111 301q0 88 30.5 150.5t85 101.5t125 56.5t150.5 17.5q66 0 126 -6.5t95 -14.5v80q0 129 -63.5 183.5t-188.5 54.5q-70 0 -141.5 -16.5t-136.5 -45.5l-5 92q63 27 143.5 42.5t147.5 15.5q174 0 266.5 -73t92.5 -255v-498q0 -59 10 -82.5t47 -23.5q29 0 49 10l-6 -82 q-35 -27 -56.5 -64.5t-21.5 -84.5q0 -72 46 -112t136 -54l-20 -51q-125 4 -190.5 64.5t-63.5 143.5q0 88 55 148q-90 14 -94 125q-35 -74 -114.5 -107.5t-165.5 -33.5q-152 0 -245 82.5t-93 236.5zM223 307q0 -106 61.5 -172.5t172.5 -66.5q150 0 208 84t58 223v147 q-31 6 -90.5 13.5t-122.5 7.5q-61 0 -113.5 -11.5t-90.5 -39t-60.5 -72.5t-22.5 -113z" />
<glyph unicode="&#x106;" horiz-adv-x="1091" d="M106 655q0 152 31 274t93.5 208t156.5 132t223 46q72 0 137.5 -19.5t114.5 -60.5q41 -33 68.5 -78t44.5 -98l-98 -31q-33 92 -94.5 144.5t-172.5 52.5q-186 0 -279 -143.5t-93 -419.5q0 -104 14 -209t57 -188t123 -135t211 -52q43 0 89 7t88 19.5t78 26.5t60 29l-4 -99 q-25 -16 -62.5 -30.5t-81.5 -24.5t-92 -17t-93 -7q-154 0 -253.5 54t-158.5 147t-83 215t-24 257zM391 1436q29 43 65 78.5t72.5 63.5t73.5 43t72 15q84 1 84 -71q0 -14 -7.5 -36t-17.5 -32q-14 4 -34.5 9t-43.5 5q-57 0 -118.5 -27.5t-122.5 -84.5z" />
<glyph unicode="&#x107;" horiz-adv-x="923" d="M90 500q0 117 30 211t85 161.5t134 103.5t177 36q158 0 248 -97q23 -25 42 -61.5t30 -75.5l-99 -26q-23 78 -78 126t-147 48q-139 0 -222 -106.5t-83 -317.5q0 -90 16.5 -168t54 -136.5t101 -92t158.5 -33.5q72 0 138 21.5t120 62.5l-2 -93q-43 -33 -119 -57t-154 -24 q-217 0 -323.5 136t-106.5 382zM299 1149q29 43 64.5 79t72.5 63.5t74 43t72 15.5q84 0 84 -72q0 -14 -7.5 -35.5t-17.5 -32.5q-14 4 -34.5 9.5t-43.5 5.5q-57 0 -118.5 -28t-122.5 -85z" />
<glyph unicode="&#x108;" horiz-adv-x="1091" d="M106 655q0 152 31 274t93.5 208t156.5 132t223 46q72 0 137.5 -19.5t114.5 -60.5q41 -33 68.5 -78t44.5 -98l-98 -31q-33 92 -94.5 144.5t-172.5 52.5q-186 0 -279 -143.5t-93 -419.5q0 -104 14 -209t57 -188t123 -135t211 -52q43 0 89 7t88 19.5t78 26.5t60 29l-4 -99 q-25 -16 -62.5 -30.5t-81.5 -24.5t-92 -17t-93 -7q-154 0 -253.5 54t-158.5 147t-83 215t-24 257zM377 1411l151 193q16 20 27.5 27t30.5 7h43q18 0 29.5 -7t27.5 -27l152 -193h-107l-123 160l-125 -160h-106z" />
<glyph unicode="&#x109;" horiz-adv-x="923" d="M90 500q0 117 30 211t85 161.5t134 103.5t177 36q158 0 248 -97q23 -25 42 -61.5t30 -75.5l-99 -26q-23 78 -78 126t-147 48q-139 0 -222 -106.5t-83 -317.5q0 -90 16.5 -168t54 -136.5t101 -92t158.5 -33.5q72 0 138 21.5t120 62.5l-2 -93q-43 -33 -119 -57t-154 -24 q-217 0 -323.5 136t-106.5 382zM274 1122l152 193q16 20 27.5 27.5t29.5 7.5h43q18 0 29.5 -7.5t28.5 -27.5l151 -193h-106l-123 160l-125 -160h-107z" />
<glyph unicode="&#x10a;" horiz-adv-x="1091" d="M106 655q0 152 31 274t93.5 208t156.5 132t223 46q72 0 137.5 -19.5t114.5 -60.5q41 -33 68.5 -78t44.5 -98l-98 -31q-33 92 -94.5 144.5t-172.5 52.5q-186 0 -279 -143.5t-93 -419.5q0 -104 14 -209t57 -188t123 -135t211 -52q43 0 89 7t88 19.5t78 26.5t60 29l-4 -99 q-25 -16 -62.5 -30.5t-81.5 -24.5t-92 -17t-93 -7q-154 0 -253.5 54t-158.5 147t-83 215t-24 257zM494 1546q0 47 32.5 80t79.5 33t81 -33t34 -80t-35 -80.5t-82 -33.5t-78.5 33.5t-31.5 80.5z" />
<glyph unicode="&#x10b;" horiz-adv-x="923" d="M90 500q0 117 30 211t85 161.5t134 103.5t177 36q158 0 248 -97q23 -25 42 -61.5t30 -75.5l-99 -26q-23 78 -78 126t-147 48q-139 0 -222 -106.5t-83 -317.5q0 -90 16.5 -168t54 -136.5t101 -92t158.5 -33.5q72 0 138 21.5t120 62.5l-2 -93q-43 -33 -119 -57t-154 -24 q-217 0 -323.5 136t-106.5 382zM395 1243q0 47 33 80t80 33t81 -33t34 -80t-35 -81t-82 -34t-79 34t-32 81z" />
<glyph unicode="&#x10c;" horiz-adv-x="1091" d="M106 655q0 152 31 274t93.5 208t156.5 132t223 46q72 0 137.5 -19.5t114.5 -60.5q41 -33 68.5 -78t44.5 -98l-98 -31q-33 92 -94.5 144.5t-172.5 52.5q-186 0 -279 -143.5t-93 -419.5q0 -104 14 -209t57 -188t123 -135t211 -52q43 0 89 7t88 19.5t78 26.5t60 29l-4 -99 q-25 -16 -62.5 -30.5t-81.5 -24.5t-92 -17t-93 -7q-154 0 -253.5 54t-158.5 147t-83 215t-24 257zM365 1638h106l125 -159l123 159h106l-151 -192q-16 -20 -27.5 -27.5t-30.5 -7.5h-43q-18 0 -29.5 7t-27.5 28z" />
<glyph unicode="&#x10d;" horiz-adv-x="923" d="M90 500q0 117 30 211t85 161.5t134 103.5t177 36q158 0 248 -97q23 -25 42 -61.5t30 -75.5l-99 -26q-23 78 -78 126t-147 48q-139 0 -222 -106.5t-83 -317.5q0 -90 16.5 -168t54 -136.5t101 -92t158.5 -33.5q72 0 138 21.5t120 62.5l-2 -93q-43 -33 -119 -57t-154 -24 q-217 0 -323.5 136t-106.5 382zM281 1350h106l125 -160l123 160h106l-151 -193q-16 -20 -27.5 -27.5t-30.5 -7.5h-43q-18 0 -29 7.5t-28 27.5z" />
<glyph unicode="&#x10e;" horiz-adv-x="1226" d="M76 1206v90h360q86 0 156 -5t129 -17q100 -23 175 -67t125 -117.5t74.5 -179t24.5 -248.5q0 -180 -35.5 -310.5t-111.5 -208.5q-72 -72 -180.5 -107.5t-262.5 -35.5h-346v1206h-108zM309 90h191q156 0 253 41t150 119q51 78 68.5 183.5t17.5 236.5q0 223 -65.5 344 t-218.5 164q-49 14 -116 21t-136 7h-144v-1116zM373 1638h106l125 -159l123 159h107l-152 -192q-16 -20 -27.5 -27.5t-29.5 -7.5h-43q-18 0 -29.5 7t-28.5 28z" />
<glyph unicode="&#x10f;" horiz-adv-x="1110" d="M90 455q0 119 26.5 220t85 176t147.5 118t216 43q66 0 119 -12.5t92 -28.5v342h-112v88h227v-1219q0 -59 12 -80.5t47 -21.5q31 0 47 10l-6 -82q-12 -6 -35.5 -10t-44.5 -4q-66 0 -95.5 30.5t-33.5 98.5q-33 -59 -102.5 -100t-177.5 -41q-172 0 -273 94 q-72 66 -105.5 165t-33.5 214zM207 465q0 -86 17.5 -157.5t53 -125t93 -83t137.5 -29.5q98 0 164.5 49t89.5 135q10 35 12 77t2 87v465q-31 16 -89 28.5t-112 12.5q-180 0 -274 -112t-94 -347zM965 1092q33 31 57.5 73.5t28.5 83.5q-72 18 -72 78q0 27 17.5 50.5t58.5 23.5 q35 0 59.5 -25.5t24.5 -66.5q0 -72 -37 -140.5t-107 -109.5z" />
<glyph unicode="&#x110;" horiz-adv-x="1228" d="M47 600v88h137v518h-108v90h362q86 0 156 -5t129 -17q100 -23 175 -67t125 -117.5t74.5 -179t24.5 -248.5q0 -180 -35.5 -310.5t-111.5 -208.5q-72 -72 -180.5 -107.5t-262.5 -35.5h-348v600h-137zM309 90h193q156 0 253 41t150 119q51 78 68.5 183.5t17.5 236.5 q0 223 -65.5 344t-218.5 164q-49 14 -116 21t-136 7h-146v-518h203v-88h-203v-510z" />
<glyph unicode="&#x111;" horiz-adv-x="1073" d="M90 455q0 119 26.5 220t85 176t147.5 118t216 43q66 0 119 -12.5t92 -28.5v180h-309v88h309v162h115v-162h113v-88h-113v-969q0 -59 12 -80.5t47 -21.5q31 0 47 10l-6 -82q-12 -6 -35.5 -10t-44.5 -4q-66 0 -95.5 30.5t-33.5 98.5q-33 -59 -102.5 -100t-177.5 -41 q-172 0 -273 94q-72 66 -105.5 165t-33.5 214zM207 465q0 -86 17.5 -157.5t53 -125t93 -83t137.5 -29.5q98 0 164.5 49t89.5 135q10 35 12 77t2 87v465q-31 16 -89 28.5t-112 12.5q-180 0 -274 -112t-94 -347z" />
<glyph unicode="&#x112;" horiz-adv-x="1019" d="M172 0v1296h700v-90h-575v-504h467v-88h-467v-524h621l-17 -90h-729zM311 1462v94h424v-94h-424z" />
<glyph unicode="&#x113;" horiz-adv-x="978" d="M90 492q0 129 31 226t86 162.5t132 98.5t169 33q82 0 150.5 -32t117.5 -93.5t76 -148t27 -197.5q0 -47 -14.5 -66.5t-59.5 -19.5h-598q8 -172 86 -277.5t244 -105.5q84 0 164.5 25.5t138.5 66.5l-2 -94q-25 -18 -62 -35t-79 -29t-86 -18t-83 -6q-111 0 -193.5 35.5 t-137 102t-81 161t-26.5 211.5zM207 539h545q14 0 14 16q0 80 -15.5 147.5t-48 116.5t-83 78t-119.5 29q-137 0 -211 -101.5t-82 -285.5zM295 1188v94h424v-94h-424z" />
<glyph unicode="&#x114;" horiz-adv-x="1019" d="M172 0v1296h700v-90h-575v-504h467v-88h-467v-524h621l-17 -90h-729zM309 1610h76q16 -59 47 -89t90 -30t90 29.5t47 89.5h76q-6 -109 -64.5 -158t-148.5 -49t-148.5 49t-64.5 158z" />
<glyph unicode="&#x115;" horiz-adv-x="978" d="M90 492q0 129 31 226t86 162.5t132 98.5t169 33q82 0 150.5 -32t117.5 -93.5t76 -148t27 -197.5q0 -47 -14.5 -66.5t-59.5 -19.5h-598q8 -172 86 -277.5t244 -105.5q84 0 164.5 25.5t138.5 66.5l-2 -94q-25 -18 -62 -35t-79 -29t-86 -18t-83 -6q-111 0 -193.5 35.5 t-137 102t-81 161t-26.5 211.5zM207 539h545q14 0 14 16q0 80 -15.5 147.5t-48 116.5t-83 78t-119.5 29q-137 0 -211 -101.5t-82 -285.5zM285 1331h75q16 -59 47 -89t91 -30q59 0 89.5 30t47.5 89h76q-6 -109 -64.5 -158t-148.5 -49t-148.5 49.5t-64.5 157.5z" />
<glyph unicode="&#x116;" horiz-adv-x="1019" d="M172 0v1296h700v-90h-575v-504h467v-88h-467v-524h621l-17 -90h-729zM412 1546q0 47 32.5 80t79.5 33t81 -33t34 -80t-35 -80.5t-82 -33.5t-78.5 33.5t-31.5 80.5z" />
<glyph unicode="&#x117;" horiz-adv-x="978" d="M90 492q0 129 31 226t86 162.5t132 98.5t169 33q82 0 150.5 -32t117.5 -93.5t76 -148t27 -197.5q0 -47 -14.5 -66.5t-59.5 -19.5h-598q8 -172 86 -277.5t244 -105.5q84 0 164.5 25.5t138.5 66.5l-2 -94q-25 -18 -62 -35t-79 -29t-86 -18t-83 -6q-111 0 -193.5 35.5 t-137 102t-81 161t-26.5 211.5zM207 539h545q14 0 14 16q0 80 -15.5 147.5t-48 116.5t-83 78t-119.5 29q-137 0 -211 -101.5t-82 -285.5zM391 1243q0 47 33 80t80 33t80.5 -33t33.5 -80t-34.5 -81t-81.5 -34t-79 34t-32 81z" />
<glyph unicode="&#x118;" horiz-adv-x="1019" d="M172 0v1296h700v-90h-575v-504h467v-88h-467v-524h621l-17 -90h-117q-59 0 -90.5 -43t-31.5 -98q0 -72 46 -112t136 -54l-21 -51q-125 4 -190.5 64.5t-63.5 143.5q0 94 64 150h-461z" />
<glyph unicode="&#x119;" horiz-adv-x="978" d="M90 492q0 129 31 226t86 162.5t132 98.5t169 33q82 0 150.5 -32t117.5 -93.5t76 -148t27 -197.5q0 -47 -14.5 -66.5t-59.5 -19.5h-598q8 -172 86 -277.5t244 -105.5q84 0 164.5 25.5t138.5 66.5l-2 -94q-59 -43 -160 -70q-51 -14 -71.5 -55t-20.5 -86q0 -72 46 -112 t136 -54l-20 -51q-125 4 -189.5 64.5t-64.5 143.5q0 76 43 132h-9q-111 0 -193.5 35.5t-137 102t-81 161t-26.5 211.5zM207 539h545q14 0 14 16q0 80 -15.5 147.5t-48 116.5t-83 78t-119.5 29q-137 0 -211 -101.5t-82 -285.5z" />
<glyph unicode="&#x11a;" horiz-adv-x="1019" d="M172 0v1296h700v-90h-575v-504h467v-88h-467v-524h621l-17 -90h-729zM303 1638h107l125 -159l122 159h107l-152 -192q-16 -20 -27.5 -27.5t-29.5 -7.5h-43q-18 0 -29.5 7t-27.5 28z" />
<glyph unicode="&#x11b;" horiz-adv-x="978" d="M90 492q0 129 31 226t86 162.5t132 98.5t169 33q82 0 150.5 -32t117.5 -93.5t76 -148t27 -197.5q0 -47 -14.5 -66.5t-59.5 -19.5h-598q8 -172 86 -277.5t244 -105.5q84 0 164.5 25.5t138.5 66.5l-2 -94q-25 -18 -62 -35t-79 -29t-86 -18t-83 -6q-111 0 -193.5 35.5 t-137 102t-81 161t-26.5 211.5zM207 539h545q14 0 14 16q0 80 -15.5 147.5t-48 116.5t-83 78t-119.5 29q-137 0 -211 -101.5t-82 -285.5zM279 1350h106l125 -160l123 160h106l-151 -193q-16 -20 -27.5 -27.5t-30.5 -7.5h-43q-18 0 -29.5 7.5t-27.5 27.5z" />
<glyph unicode="&#x11c;" horiz-adv-x="1187" d="M106 651q0 162 37 286t106.5 208t166 127t217.5 43q147 0 250.5 -72t134.5 -199l-98 -32q-33 98 -104 154.5t-189 56.5q-186 0 -287.5 -147.5t-101.5 -409.5q0 -135 21.5 -244t68.5 -185.5t122.5 -118.5t184.5 -42q80 0 154.5 30.5t115.5 67.5v293h-186v80h305v-547h-88 l-18 78q-53 -37 -131 -66.5t-187 -29.5q-102 0 -191.5 35.5t-157 114.5t-106.5 207t-39 312zM389 1411l152 193q16 20 27.5 27t29.5 7h43q18 0 29.5 -7t27.5 -27l152 -193h-107l-122 160l-125 -160h-107z" />
<glyph unicode="&#x11d;" horiz-adv-x="1064" d="M96 471q0 141 41 250.5t127 181.5q127 109 326 109q86 0 168 -20.5t147 -55.5v-864q0 -70 -2 -124t-8 -97.5t-19.5 -77t-33.5 -64.5q-29 -41 -69 -68.5t-85 -44t-93 -23.5t-93 -7q-80 0 -166 15.5t-141 43.5v94q29 -14 66.5 -26t78.5 -20.5t81 -13.5t73 -5q78 0 139 23.5 t102 74.5q33 41 44.5 102.5t11.5 178.5v98q-35 -57 -113 -94t-168 -37q-109 0 -186.5 35t-129 97.5t-75 149.5t-23.5 189zM213 489q0 -78 14.5 -150.5t50 -128.5t95 -90t149.5 -34q137 0 203 80t66 207v512q-35 16 -86.5 28.5t-110.5 12.5q-156 0 -252 -84 q-68 -59 -98.5 -150.5t-30.5 -202.5zM348 1122l152 193q16 20 27.5 27.5t29.5 7.5h43q18 0 29.5 -7.5t27.5 -27.5l152 -193h-107l-122 160l-125 -160h-107z" />
<glyph unicode="&#x11e;" horiz-adv-x="1187" d="M106 651q0 162 37 286t106.5 208t166 127t217.5 43q147 0 250.5 -72t134.5 -199l-98 -32q-33 98 -104 154.5t-189 56.5q-186 0 -287.5 -147.5t-101.5 -409.5q0 -135 21.5 -244t68.5 -185.5t122.5 -118.5t184.5 -42q80 0 154.5 30.5t115.5 67.5v293h-186v80h305v-547h-88 l-18 78q-53 -37 -131 -66.5t-187 -29.5q-102 0 -191.5 35.5t-157 114.5t-106.5 207t-39 312zM412 1610h75q16 -59 47 -89t91 -30q59 0 89.5 29.5t47.5 89.5h76q-6 -109 -64.5 -158t-148.5 -49t-148.5 49t-64.5 158z" />
<glyph unicode="&#x11f;" horiz-adv-x="1064" d="M96 471q0 141 41 250.5t127 181.5q127 109 326 109q86 0 168 -20.5t147 -55.5v-864q0 -70 -2 -124t-8 -97.5t-19.5 -77t-33.5 -64.5q-29 -41 -69 -68.5t-85 -44t-93 -23.5t-93 -7q-80 0 -166 15.5t-141 43.5v94q29 -14 66.5 -26t78.5 -20.5t81 -13.5t73 -5q78 0 139 23.5 t102 74.5q33 41 44.5 102.5t11.5 178.5v98q-35 -57 -113 -94t-168 -37q-109 0 -186.5 35t-129 97.5t-75 149.5t-23.5 189zM213 489q0 -78 14.5 -150.5t50 -128.5t95 -90t149.5 -34q137 0 203 80t66 207v512q-35 16 -86.5 28.5t-110.5 12.5q-156 0 -252 -84 q-68 -59 -98.5 -150.5t-30.5 -202.5zM367 1331h75q16 -59 47 -89t91 -30q59 0 89.5 30t47.5 89h76q-6 -109 -64.5 -158t-148.5 -49t-148.5 49.5t-64.5 157.5z" />
<glyph unicode="&#x120;" horiz-adv-x="1187" d="M106 651q0 162 37 286t106.5 208t166 127t217.5 43q147 0 250.5 -72t134.5 -199l-98 -32q-33 98 -104 154.5t-189 56.5q-186 0 -287.5 -147.5t-101.5 -409.5q0 -135 21.5 -244t68.5 -185.5t122.5 -118.5t184.5 -42q80 0 154.5 30.5t115.5 67.5v293h-186v80h305v-547h-88 l-18 78q-53 -37 -131 -66.5t-187 -29.5q-102 0 -191.5 35.5t-157 114.5t-106.5 207t-39 312zM504 1546q0 47 32.5 80t79.5 33t81 -33t34 -80t-34.5 -80.5t-82.5 -33.5q-47 0 -78.5 33.5t-31.5 80.5z" />
<glyph unicode="&#x121;" horiz-adv-x="1064" d="M96 471q0 141 41 250.5t127 181.5q127 109 326 109q86 0 168 -20.5t147 -55.5v-864q0 -70 -2 -124t-8 -97.5t-19.5 -77t-33.5 -64.5q-29 -41 -69 -68.5t-85 -44t-93 -23.5t-93 -7q-80 0 -166 15.5t-141 43.5v94q29 -14 66.5 -26t78.5 -20.5t81 -13.5t73 -5q78 0 139 23.5 t102 74.5q33 41 44.5 102.5t11.5 178.5v98q-35 -57 -113 -94t-168 -37q-109 0 -186.5 35t-129 97.5t-75 149.5t-23.5 189zM213 489q0 -78 14.5 -150.5t50 -128.5t95 -90t149.5 -34q137 0 203 80t66 207v512q-35 16 -86.5 28.5t-110.5 12.5q-156 0 -252 -84 q-68 -59 -98.5 -150.5t-30.5 -202.5zM463 1243q0 47 32.5 80t79.5 33t81 -33t34 -80t-34.5 -81t-82.5 -34q-47 0 -78.5 34t-31.5 81z" />
<glyph unicode="&#x122;" horiz-adv-x="1187" d="M106 651q0 162 37 286t106.5 208t166 127t217.5 43q147 0 250.5 -72t134.5 -199l-98 -32q-33 98 -104 154.5t-189 56.5q-186 0 -287.5 -147.5t-101.5 -409.5q0 -135 21.5 -244t68.5 -185.5t122.5 -118.5t184.5 -42q80 0 154.5 30.5t115.5 67.5v293h-186v80h305v-547h-88 l-18 78q-53 -37 -131 -66.5t-187 -29.5q-102 0 -191.5 35.5t-157 114.5t-106.5 207t-39 312zM528 -401q33 31 57.5 73.5t28.5 83.5q-72 18 -71 78q0 27 17.5 50.5t57.5 23.5q35 0 59.5 -25.5t24.5 -66.5q0 -72 -36.5 -140.5t-106.5 -109.5z" />
<glyph unicode="&#x123;" horiz-adv-x="1064" d="M96 471q0 141 41 250.5t127 181.5q127 109 326 109q86 0 168 -20.5t147 -55.5v-864q0 -70 -2 -124t-8 -97.5t-19.5 -77t-33.5 -64.5q-29 -41 -69 -68.5t-85 -44t-93 -23.5t-93 -7q-80 0 -166 15.5t-141 43.5v94q29 -14 66.5 -26t78.5 -20.5t81 -13.5t73 -5q78 0 139 23.5 t102 74.5q33 41 44.5 102.5t11.5 178.5v98q-35 -57 -113 -94t-168 -37q-109 0 -186.5 35t-129 97.5t-75 149.5t-23.5 189zM213 489q0 -78 14.5 -150.5t50 -128.5t95 -90t149.5 -34q137 0 203 80t66 207v512q-35 16 -86.5 28.5t-110.5 12.5q-156 0 -252 -84 q-68 -59 -98.5 -150.5t-30.5 -202.5zM461 1194q0 72 37 140.5t106 109.5l31 -33q-33 -31 -57.5 -74t-28.5 -84q72 -18 72 -77q0 -27 -17.5 -50.5t-58.5 -23.5q-35 0 -59.5 25.5t-24.5 66.5z" />
<glyph unicode="&#x124;" horiz-adv-x="1222" d="M172 0v1296h125v-600h629v600h125v-1296h-125v598h-629v-598h-125zM381 1411l151 193q16 20 27.5 27t30.5 7h43q18 0 29.5 -7t27.5 -27l152 -193h-107l-123 160l-125 -160h-106z" />
<glyph unicode="&#x125;" horiz-adv-x="1103" d="M14 1487l152 192q16 20 27.5 27.5t29.5 7.5h43q18 0 29.5 -7t28.5 -28l151 -192h-106l-123 160l-125 -160h-107zM186 0v1401h115v-529q16 31 50 60t73 45q80 35 186 35q78 0 145.5 -27t110.5 -72q53 -55 66.5 -129.5t13.5 -148.5v-635h-115v627q0 86 -11 136t-48 89 q-33 35 -80 50.5t-104 15.5q-63 0 -119.5 -18.5t-95.5 -61.5q-41 -45 -56.5 -105.5t-15.5 -159.5v-573h-115z" />
<glyph unicode="&#x126;" horiz-adv-x="1222" d="M41 942v88h131v266h125v-266h629v266h125v-266h131v-88h-131v-942h-125v598h-629v-598h-125v942h-131zM297 696h629v246h-629v-246z" />
<glyph unicode="&#x127;" horiz-adv-x="1103" d="M59 1133v88h127v180h115v-180h322v-88h-322v-261q16 31 50 60t73 45q80 35 186 35q78 0 145.5 -27t110.5 -72q53 -55 66.5 -129.5t13.5 -148.5v-635h-115v627q0 86 -11 136t-48 89q-33 35 -80 50.5t-104 15.5q-63 0 -119.5 -18.5t-95.5 -61.5q-41 -45 -56.5 -105.5 t-15.5 -159.5v-573h-115v1133h-127z" />
<glyph unicode="&#x128;" horiz-adv-x="706" d="M119 1450q6 78 40 124t99 46q33 0 58.5 -12.5t48 -25.5t45 -25.5t49.5 -12.5q25 0 42 17.5t31 58.5h54q-6 -78 -40 -124t-100 -46q-37 0 -62.5 12.5t-48 25.5t-44 25.5t-45.5 12.5q-25 0 -42.5 -17.5t-31.5 -58.5h-53zM154 0v80h137v1139h-137v77h399v-77h-137v-1139h137 v-80h-399z" />
<glyph unicode="&#x129;" d="M4 1153q6 78 40 124t99 46q33 0 58.5 -12.5t48 -25.5t45 -25.5t49.5 -12.5q25 0 42 17.5t32 58.5h53q-6 -78 -40 -124t-99 -46q-37 0 -62.5 12.5t-48 25.5t-44 25.5t-46.5 12.5t-42 -17.5t-32 -58.5h-53zM86 905v88h227v-807q0 -61 11.5 -83.5t46.5 -22.5q29 0 49 10 l-6 -82q-12 -6 -36 -10t-44 -4q-135 0 -135 147v764h-113z" />
<glyph unicode="&#x12a;" horiz-adv-x="706" d="M141 1462v94h424v-94h-424zM154 0v80h137v1139h-137v77h399v-77h-137v-1139h137v-80h-399z" />
<glyph unicode="&#x12b;" d="M31 1188v94h424v-94h-424zM86 905v88h227v-807q0 -61 11.5 -83.5t46.5 -22.5q29 0 49 10l-6 -82q-12 -6 -36 -10t-44 -4q-135 0 -135 147v764h-113z" />
<glyph unicode="&#x12c;" horiz-adv-x="706" d="M139 1610h76q16 -59 47 -89t90 -30t90 29.5t47 89.5h76q-6 -109 -64.5 -158t-148.5 -49t-148.5 49t-64.5 158zM154 0v80h137v1139h-137v77h399v-77h-137v-1139h137v-80h-399z" />
<glyph unicode="&#x12d;" d="M37 1331h76q16 -59 46.5 -89t90.5 -30q59 0 90 30t47 89h76q-6 -109 -64.5 -158t-148.5 -49t-148.5 49.5t-64.5 157.5zM86 905v88h227v-807q0 -61 11.5 -83.5t46.5 -22.5q29 0 49 10l-6 -82q-12 -6 -36 -10t-44 -4q-135 0 -135 147v764h-113z" />
<glyph unicode="&#x12e;" horiz-adv-x="706" d="M154 0v80h137v1139h-137v77h399v-77h-137v-1139h137v-80h-59q-47 0 -75 -44t-28 -97q0 -72 46 -112t136 -54l-20 -51q-125 4 -190.5 64.5t-63.5 143.5q0 88 57 150h-202z" />
<glyph unicode="&#x12f;" d="M86 905v88h227v-807q0 -61 11.5 -83.5t46.5 -22.5q29 0 49 10l-6 -82q-35 -27 -56.5 -64.5t-21.5 -84.5q0 -72 46 -112t136 -54l-20 -51q-125 4 -190.5 64.5t-63.5 143.5q0 88 53 148q-98 14 -98 143v764h-113zM164 1272q0 33 23.5 56.5t56.5 23.5t57.5 -23.5t24.5 -56.5 t-25 -57.5t-57 -24.5q-33 0 -56.5 24.5t-23.5 57.5z" />
<glyph unicode="&#x130;" horiz-adv-x="706" d="M154 0v80h137v1139h-137v77h399v-77h-137v-1139h137v-80h-399zM240 1546q0 47 32.5 80t79.5 33t81 -33t34 -80t-35 -80.5t-82 -33.5t-78.5 33.5t-31.5 80.5z" />
<glyph unicode="&#x131;" d="M86 905v88h227v-807q0 -61 11.5 -83.5t46.5 -22.5q29 0 49 10l-6 -82q-12 -6 -36 -10t-44 -4q-135 0 -135 147v764h-113z" />
<glyph unicode="&#x132;" horiz-adv-x="1470" d="M154 0v80h137v1139h-137v77h399v-77h-137v-1139h137v-80h-399zM766 20l8 93q41 -18 95.5 -29.5t95.5 -11.5q63 0 105 16t64.5 52t32 90.5t9.5 127.5v848h-340v90h464v-936q0 -94 -13 -160.5t-44 -111.5q-72 -106 -270 -106q-39 0 -99.5 9t-107.5 29z" />
<glyph unicode="&#x133;" horiz-adv-x="1017" d="M86 905v88h227v-807q0 -61 11.5 -83.5t46.5 -22.5q29 0 49 10l-6 -82q-12 -6 -36 -10t-44 -4q-135 0 -135 147v764h-113zM164 1272q0 33 23.5 56.5t56.5 23.5t57.5 -23.5t24.5 -56.5t-25 -57.5t-57 -24.5q-33 0 -56.5 24.5t-23.5 57.5zM457 -399l2 86q27 -10 55.5 -15.5 t50.5 -5.5q59 0 94 25.5t52 68.5q14 35 16 93.5t2 138.5v913h-127v88h242v-1020q0 -47 -1 -82.5t-3 -65.5t-8.5 -53.5t-14.5 -47.5q-27 -70 -91 -107t-138 -37q-35 0 -69 5t-62 16zM694 1272q0 33 23.5 56.5t56.5 23.5t57.5 -23.5t24.5 -56.5t-24.5 -57.5t-57.5 -24.5 t-56.5 24.5t-23.5 57.5z" />
<glyph unicode="&#x134;" horiz-adv-x="790" d="M86 20l8 93q41 -18 95.5 -29.5t95.5 -11.5q63 0 105 16t64.5 52t32 90.5t9.5 127.5v848h-340v90h465v-936q0 -94 -13.5 -160.5t-44.5 -111.5q-72 -106 -270 -106q-39 0 -99.5 9t-107.5 29zM166 1411l151 193q16 20 27.5 27t30.5 7h43q18 0 29.5 -7t27.5 -27l152 -193 h-107l-123 160l-125 -160h-106z" />
<glyph unicode="&#x135;" horiz-adv-x="507" d="M-53 -399l2 86q27 -10 55.5 -15.5t50.5 -5.5q59 0 94 25.5t52 68.5q14 35 16 93.5t2 138.5v913h-127v88h242v-1020q0 -47 -1 -82.5t-3 -65.5t-8.5 -53.5t-14.5 -47.5q-27 -70 -91 -107t-138 -37q-35 0 -69 5t-62 16zM23 1122l151 193q16 20 27.5 27.5t29.5 7.5h43 q18 0 29.5 -7.5t28.5 -27.5l151 -193h-106l-123 160l-125 -160h-106z" />
<glyph unicode="&#x136;" horiz-adv-x="1093" d="M172 0v1296h125v-600h215l330 600h121l-353 -639l293 -503q29 -47 47.5 -60.5t40.5 -13.5q39 0 64 16l-4 -82q-18 -10 -40 -17t-50 -7q-27 0 -47.5 4t-39 18.5t-37 40t-42.5 66.5l-285 485h-213v-604h-125zM442 -401q33 31 57.5 73.5t28.5 83.5q-72 18 -71 78 q0 27 17.5 50.5t57.5 23.5q35 0 59.5 -25.5t24.5 -66.5q0 -72 -36.5 -140.5t-106.5 -109.5z" />
<glyph unicode="&#x137;" horiz-adv-x="974" d="M66 1313v88h227v-795h170l282 387h123l-307 -424l240 -422q20 -35 41.5 -51t56.5 -16q23 0 45 14l-2 -82q-14 -8 -35.5 -13t-42.5 -5q-53 0 -89 23.5t-70 82.5l-236 414h-176v-514h-115v1313h-112zM399 -401q33 31 57.5 73.5t28.5 83.5q-72 18 -71 78q0 27 17.5 50.5 t57.5 23.5q35 0 59.5 -25.5t24.5 -66.5q0 -72 -36.5 -140.5t-106.5 -109.5z" />
<glyph unicode="&#x138;" horiz-adv-x="995" d="M66 905v88h227v-428h190l283 428h123l-307 -465l239 -381q23 -35 42.5 -51t49.5 -16q29 0 52 14l-2 -82q-14 -8 -34 -13t-42 -5q-53 0 -89 24.5t-73 81.5l-236 373h-196v-473h-115v905h-112z" />
<glyph unicode="&#x139;" horiz-adv-x="944" d="M66 1436q29 43 64.5 78.5t72.5 63.5t73.5 43t71.5 15q84 1 84 -71q0 -14 -7 -36t-17 -32q-14 4 -35 9t-43 5q-57 0 -118.5 -27.5t-123.5 -84.5zM172 0v1296h125v-1206h588l-17 -90h-696z" />
<glyph unicode="&#x13a;" horiz-adv-x="497" d="M23 1495q29 43 64.5 79t72.5 63.5t73.5 43t71.5 15.5q84 0 84 -72q0 -14 -7 -35.5t-17 -32.5q-14 4 -35 9.5t-43 5.5q-57 0 -119 -27.5t-123 -85.5zM66 1313v88h227v-1215q0 -57 10 -81.5t47 -24.5q29 0 49 10l-6 -82q-29 -14 -80 -14q-135 0 -135 147v1172h-112z" />
<glyph unicode="&#x13b;" horiz-adv-x="944" d="M172 0v1296h125v-1206h588l-17 -90h-696zM440 -401q33 31 57.5 73.5t28.5 83.5q-72 18 -71 78q0 27 17 50.5t58 23.5q35 0 59.5 -25.5t24.5 -66.5q0 -72 -36.5 -140.5t-106.5 -109.5z" />
<glyph unicode="&#x13c;" horiz-adv-x="497" d="M66 1313v88h227v-1215q0 -57 10 -81.5t47 -24.5q29 0 49 10l-6 -82q-29 -14 -80 -14q-135 0 -135 147v1172h-112zM174 -401q33 31 57.5 73.5t28.5 83.5q-72 18 -72 78q0 27 17.5 50.5t58.5 23.5q35 0 59.5 -25.5t24.5 -66.5q0 -72 -37 -140.5t-106 -109.5z" />
<glyph unicode="&#x13d;" horiz-adv-x="944" d="M172 0v1296h125v-1206h588l-17 -90h-696zM401 1006q33 31 57.5 73.5t28.5 83.5q-72 18 -71 78q0 27 17.5 50.5t58.5 23.5q35 0 59 -25.5t24 -66.5q0 -72 -36.5 -140.5t-106.5 -109.5z" />
<glyph unicode="&#x13e;" horiz-adv-x="540" d="M66 1313v88h227v-1215q0 -57 10 -81.5t47 -24.5q29 0 49 10l-6 -82q-29 -14 -80 -14q-135 0 -135 147v1172h-112zM387 1092q33 31 57.5 73.5t28.5 83.5q-72 18 -72 78q0 27 17.5 50.5t58.5 23.5q35 0 59.5 -25.5t24.5 -66.5q0 -72 -37 -140.5t-106 -109.5z" />
<glyph unicode="&#x13f;" horiz-adv-x="944" d="M172 0v1296h125v-1206h588l-17 -90h-696zM416 698q0 47 32.5 80t79.5 33t81 -33t34 -80t-35 -80.5t-82 -33.5t-78.5 33.5t-31.5 80.5z" />
<glyph unicode="&#x140;" horiz-adv-x="606" d="M66 1313v88h227v-1215q0 -57 10 -81.5t47 -24.5q29 0 49 10l-6 -82q-29 -14 -80 -14q-135 0 -135 147v1172h-112zM387 743q0 47 33 80t80 33t80.5 -33t33.5 -80t-34.5 -80.5t-81.5 -33.5t-79 33.5t-32 80.5z" />
<glyph unicode="&#x141;" horiz-adv-x="944" d="M-16 506v115l188 71v604h125v-557l258 99v-115l-258 -98v-535h588l-17 -90h-696v578z" />
<glyph unicode="&#x142;" horiz-adv-x="499" d="M14 639v109l164 90v475h-129v88h244v-500l168 92v-108l-168 -92v-607q0 -57 10 -81.5t47 -24.5q29 0 49 10l-6 -82q-29 -14 -80 -14q-135 0 -135 147v588z" />
<glyph unicode="&#x143;" horiz-adv-x="1261" d="M172 0v1296h96l639 -966q20 -31 39 -67t33 -68v1101h111v-1296h-95l-643 975q-14 23 -34.5 58.5t-34.5 70.5v-1104h-111zM449 1436q29 43 64.5 78.5t72.5 63.5t73.5 43t71.5 15q84 1 84 -71q0 -14 -7 -36t-17 -32q-14 4 -35 9t-43 5q-57 0 -119 -27.5t-123 -84.5z" />
<glyph unicode="&#x144;" horiz-adv-x="1099" d="M70 905v88h200l19 -123q47 70 131 107q76 35 186 35q78 0 145.5 -27t110.5 -72q53 -55 66.5 -129.5t13.5 -148.5v-635h-115v627q0 86 -11 136t-48 89q-33 35 -80 50.5t-104 15.5q-63 0 -119.5 -18.5t-95.5 -61.5q-41 -45 -56.5 -105.5t-15.5 -159.5v-573h-115v905h-112z M383 1149q29 43 64.5 79t72.5 63.5t74 43t72 15.5q84 0 84 -72q0 -14 -7.5 -35.5t-17.5 -32.5q-14 4 -34.5 9.5t-43.5 5.5q-57 0 -118.5 -28t-122.5 -85z" />
<glyph unicode="&#x145;" horiz-adv-x="1261" d="M172 0v1296h96l639 -966q20 -31 39 -67t33 -68v1101h111v-1296h-95l-643 975q-14 23 -34.5 58.5t-34.5 70.5v-1104h-111zM555 -401q33 31 57.5 73.5t28.5 83.5q-72 18 -72 78q0 27 17.5 50.5t58.5 23.5q35 0 59.5 -25.5t24.5 -66.5q0 -72 -37 -140.5t-106 -109.5z" />
<glyph unicode="&#x146;" horiz-adv-x="1099" d="M70 905v88h200l19 -123q47 70 131 107q76 35 186 35q78 0 145.5 -27t110.5 -72q53 -55 66.5 -129.5t13.5 -148.5v-635h-115v627q0 86 -11 136t-48 89q-33 35 -80 50.5t-104 15.5q-63 0 -119.5 -18.5t-95.5 -61.5q-41 -45 -56.5 -105.5t-15.5 -159.5v-573h-115v905h-112z M471 -401q33 31 57.5 73.5t28.5 83.5q-72 18 -72 78q0 27 17.5 50.5t58.5 23.5q35 0 59.5 -25.5t24.5 -66.5q0 -72 -37 -140.5t-106 -109.5z" />
<glyph unicode="&#x147;" horiz-adv-x="1261" d="M172 0v1296h96l639 -966q20 -31 39 -67t33 -68v1101h111v-1296h-95l-643 975q-14 23 -34.5 58.5t-34.5 70.5v-1104h-111zM399 1638h107l125 -159l123 159h106l-151 -192q-16 -20 -27.5 -27.5t-30.5 -7.5h-43q-18 0 -29.5 7t-27.5 28z" />
<glyph unicode="&#x148;" horiz-adv-x="1099" d="M70 905v88h200l19 -123q47 70 131 107q76 35 186 35q78 0 145.5 -27t110.5 -72q53 -55 66.5 -129.5t13.5 -148.5v-635h-115v627q0 86 -11 136t-48 89q-33 35 -80 50.5t-104 15.5q-63 0 -119.5 -18.5t-95.5 -61.5q-41 -45 -56.5 -105.5t-15.5 -159.5v-573h-115v905h-112z M336 1350h106l125 -160l123 160h107l-152 -193q-16 -20 -27.5 -27.5t-29.5 -7.5h-43q-18 0 -29.5 7.5t-28.5 27.5z" />
<glyph unicode="&#x149;" horiz-adv-x="1179" d="M-59 973q37 35 64.5 82t31.5 92q-41 10 -60.5 33.5t-19.5 52.5q0 31 18.5 56.5t63.5 25.5q41 0 68 -28t27 -73q0 -78 -42 -153.5t-118 -122.5zM150 905v88h200l19 -123q47 70 131 107q76 35 186 35q78 0 145.5 -27t110.5 -72q53 -55 66.5 -129.5t13.5 -148.5v-635h-114 v627q0 86 -11.5 136t-48.5 89q-33 35 -80 50.5t-104 15.5q-63 0 -119.5 -18.5t-95.5 -61.5q-41 -45 -56.5 -105.5t-15.5 -159.5v-573h-115v905h-112z" />
<glyph unicode="&#x14a;" horiz-adv-x="1261" d="M172 0v1296h96l639 -966q20 -31 39 -67t33 -68v1101h111v-1220q0 -47 -1.5 -83t-3.5 -65.5t-8 -53.5t-14 -48q-27 -70 -91.5 -106.5t-137.5 -36.5q-35 0 -69 5t-63 15l3 86q27 -10 57.5 -15t52.5 -5q59 0 94.5 25.5t51.5 68.5q10 29 13 68.5t5 93.5l-627 950 q-14 23 -34.5 58.5t-34.5 70.5v-1104h-111z" />
<glyph unicode="&#x14b;" horiz-adv-x="1099" d="M76 905v88h200l19 -123q47 70 131 107q76 35 186 35q78 0 145.5 -27t110.5 -72q53 -55 66.5 -129.5t13.5 -148.5v-559q0 -47 -1 -83t-3 -65.5t-8 -53.5t-14 -48q-27 -70 -91.5 -106.5t-138.5 -36.5q-35 0 -68.5 5t-62.5 15l2 86q27 -10 55.5 -15t51.5 -5q59 0 94 25.5 t51 68.5q14 35 16.5 93t2.5 138v533q0 86 -11.5 136t-48.5 89q-33 35 -80 50.5t-104 15.5q-63 0 -119.5 -18.5t-95.5 -61.5q-41 -45 -56.5 -105.5t-15.5 -159.5v-573h-115v905h-112z" />
<glyph unicode="&#x14c;" horiz-adv-x="1200" d="M106 647q0 332 130.5 500t363.5 168t363.5 -168t130.5 -500t-130 -498.5t-364 -166.5q-233 0 -363.5 166.5t-130.5 498.5zM238 647q0 -129 19 -234.5t62 -180t113 -115.5t168 -41t168 41t113 115.5t62.5 180t19.5 234.5t-19.5 235.5t-62.5 181.5t-113 116t-168 41 t-168 -41t-113 -116t-62 -181.5t-19 -235.5zM387 1462v94h424v-94h-424z" />
<glyph unicode="&#x14d;" horiz-adv-x="1019" d="M90 496q0 123 31 219t86 161.5t132 100.5t171 35t171 -35t132 -100.5t86 -161.5t31 -219t-31 -218.5t-86 -162t-132 -100t-171 -33.5t-171 33.5t-132 100t-86 162t-31 218.5zM207 496q0 -113 22.5 -194t62.5 -133t96 -76.5t122 -24.5t122 24.5t96 76.5t62.5 133t22.5 194 q0 111 -22.5 192.5t-62.5 133.5t-96.5 78t-121.5 26q-133 0 -218 -103.5t-85 -326.5zM297 1188v94h424v-94h-424z" />
<glyph unicode="&#x14e;" horiz-adv-x="1200" d="M106 647q0 332 130.5 500t363.5 168t363.5 -168t130.5 -500t-130 -498.5t-364 -166.5q-233 0 -363.5 166.5t-130.5 498.5zM238 647q0 -129 19 -234.5t62 -180t113 -115.5t168 -41t168 41t113 115.5t62.5 180t19.5 234.5t-19.5 235.5t-62.5 181.5t-113 116t-168 41 t-168 -41t-113 -116t-62 -181.5t-19 -235.5zM387 1610h76q16 -59 47 -89t90 -30t90 29.5t47 89.5h76q-6 -109 -64.5 -158t-148.5 -49t-148.5 49t-64.5 158z" />
<glyph unicode="&#x14f;" horiz-adv-x="1019" d="M90 496q0 123 31 219t86 161.5t132 100.5t171 35t171 -35t132 -100.5t86 -161.5t31 -219t-31 -218.5t-86 -162t-132 -100t-171 -33.5t-171 33.5t-132 100t-86 162t-31 218.5zM207 496q0 -113 22.5 -194t62.5 -133t96 -76.5t122 -24.5t122 24.5t96 76.5t62.5 133t22.5 194 q0 111 -22.5 192.5t-62.5 133.5t-96.5 78t-121.5 26q-133 0 -218 -103.5t-85 -326.5zM297 1331h76q16 -59 47 -89t90 -30t90 30t47 89h76q-6 -109 -64.5 -158t-148.5 -49t-148.5 49.5t-64.5 157.5z" />
<glyph unicode="&#x150;" horiz-adv-x="1200" d="M106 647q0 332 130.5 500t363.5 168t363.5 -168t130.5 -500t-130 -498.5t-364 -166.5q-233 0 -363.5 166.5t-130.5 498.5zM238 647q0 -129 19 -234.5t62 -180t113 -115.5t168 -41t168 41t113 115.5t62.5 180t19.5 234.5t-19.5 235.5t-62.5 181.5t-113 116t-168 41 t-168 -41t-113 -116t-62 -181.5t-19 -235.5zM301 1436q51 86 100.5 144t116.5 58q84 1 84 -71q0 -14 -7 -36t-17 -32q-12 4 -29 9t-39 5q-47 0 -89 -26.5t-97 -85.5zM602 1436q51 86 100.5 144t116.5 58q84 1 84 -71q0 -14 -7 -36t-17 -32q-12 4 -28.5 9t-39.5 5 q-47 0 -89 -26.5t-97 -85.5z" />
<glyph unicode="&#x151;" horiz-adv-x="1019" d="M90 496q0 123 31 219t86 161.5t132 100.5t171 35t171 -35t132 -100.5t86 -161.5t31 -219t-31 -218.5t-86 -162t-132 -100t-171 -33.5t-171 33.5t-132 100t-86 162t-31 218.5zM207 496q0 -113 22.5 -194t62.5 -133t96 -76.5t122 -24.5t122 24.5t96 76.5t62.5 133t22.5 194 q0 111 -22.5 192.5t-62.5 133.5t-96.5 78t-121.5 26q-133 0 -218 -103.5t-85 -326.5zM213 1147q51 86 100 144.5t117 58.5q84 0 84 -72q0 -14 -7 -35.5t-18 -32.5l-28.5 9.5t-38.5 5.5q-47 0 -89 -27t-97 -86zM514 1147q51 86 100.5 144.5t116.5 58.5q84 0 84 -72 q0 -14 -7 -35.5t-17 -32.5q-12 4 -29 9.5t-39 5.5q-47 0 -89 -27t-97 -86z" />
<glyph unicode="&#x152;" horiz-adv-x="1748" d="M106 647q0 166 37 291t104.5 209t162 126t211.5 42q43 0 79.5 -3t74.5 -6t78 -6.5t89 -3.5h660v-90h-576v-504h467v-88h-467v-524h621l-17 -90h-688q-43 0 -82 -3t-77 -6t-77.5 -6t-84.5 -3q-117 0 -211.5 42t-162 125.5t-104.5 207.5t-37 290zM238 647 q0 -129 22.5 -234.5t69.5 -180t119.5 -115.5t171.5 -41q84 0 138 9t86 27.5t44 48t12 72.5v818q0 94 -61.5 132t-218.5 38q-98 0 -171 -41t-120 -116t-69.5 -181.5t-22.5 -235.5z" />
<glyph unicode="&#x153;" horiz-adv-x="1701" d="M90 496q0 123 31 219t86 161.5t132 100.5t171 35q123 0 215 -56.5t145 -167.5q53 111 145.5 167.5t215.5 56.5q82 0 150.5 -32t117.5 -93.5t76 -148t27 -197.5q0 -47 -14.5 -66.5t-59.5 -19.5h-598q8 -172 86 -277.5t244 -105.5q84 0 164.5 25.5t138.5 66.5l-2 -94 q-25 -18 -62 -35t-79 -29t-86 -18t-83 -6q-141 0 -236 58t-145 163q-53 -109 -145 -165t-215 -56q-94 0 -171 33.5t-132 100t-86 162t-31 218.5zM207 496q0 -113 22.5 -194t62.5 -133t96 -76.5t122 -24.5t122 24.5t96 76.5t62.5 133t22.5 194q0 111 -22.5 192.5t-62.5 133.5 t-96.5 78t-121.5 26q-133 0 -218 -103.5t-85 -326.5zM930 539h545q14 0 14 16q0 80 -15.5 147.5t-48 116.5t-83 78t-119.5 29q-137 0 -211 -101.5t-82 -285.5z" />
<glyph unicode="&#x154;" horiz-adv-x="1163" d="M76 1206v90h459q131 0 216 -24.5t144 -75.5q111 -94 111 -266q0 -315 -301 -385l210 -391q23 -41 38.5 -57.5t43.5 -16.5q39 0 68 18l-4 -84q-18 -10 -37.5 -17t-48.5 -7q-68 0 -100.5 31.5t-67.5 97.5l-219 407q-20 -2 -40 -2h-42h-197v-524h-125v1206h-108zM309 616 h238q90 0 153.5 23t103.5 62.5t57.5 96t17.5 124.5q0 162 -89.5 223t-269.5 61h-211v-590zM350 1436q29 43 65 78.5t72.5 63.5t73.5 43t72 15q84 1 84 -71q0 -14 -7.5 -36t-17.5 -32q-14 4 -34.5 9t-43.5 5q-57 0 -118.5 -27.5t-122.5 -84.5z" />
<glyph unicode="&#x155;" horiz-adv-x="671" d="M70 905v88h200l21 -147q37 78 101.5 122t150.5 44q10 0 26.5 -1t26.5 -3v-105q-10 2 -24.5 3t-30.5 1q-49 0 -94.5 -20.5t-75.5 -61.5q-41 -51 -57.5 -122.5t-16.5 -176.5v-526h-115v905h-112zM154 1149q29 43 64.5 79t72.5 63.5t73.5 43t71.5 15.5q84 0 84 -72 q0 -14 -7 -35.5t-17 -32.5q-14 4 -35 9.5t-43 5.5q-57 0 -118.5 -28t-123.5 -85z" />
<glyph unicode="&#x156;" horiz-adv-x="1163" d="M76 1206v90h459q131 0 216 -24.5t144 -75.5q111 -94 111 -266q0 -315 -301 -385l210 -391q23 -41 38.5 -57.5t43.5 -16.5q39 0 68 18l-4 -84q-18 -10 -37.5 -17t-48.5 -7q-68 0 -100.5 31.5t-67.5 97.5l-219 407q-20 -2 -40 -2h-42h-197v-524h-125v1206h-108zM309 616 h238q90 0 153.5 23t103.5 62.5t57.5 96t17.5 124.5q0 162 -89.5 223t-269.5 61h-211v-590zM475 -401q33 31 57.5 73.5t28.5 83.5q-72 18 -72 78q0 27 17.5 50.5t58.5 23.5q35 0 59.5 -25.5t24.5 -66.5q0 -72 -37 -140.5t-106 -109.5z" />
<glyph unicode="&#x157;" horiz-adv-x="671" d="M70 905v88h200l21 -147q37 78 101.5 122t150.5 44q10 0 26.5 -1t26.5 -3v-105q-10 2 -24.5 3t-30.5 1q-49 0 -94.5 -20.5t-75.5 -61.5q-41 -51 -57.5 -122.5t-16.5 -176.5v-526h-115v905h-112zM154 -401q33 31 57.5 73.5t28.5 83.5q-72 18 -72 78q0 27 17.5 50.5 t58.5 23.5q35 0 59.5 -25.5t24.5 -66.5q0 -72 -37 -140.5t-107 -109.5z" />
<glyph unicode="&#x158;" horiz-adv-x="1163" d="M76 1206v90h459q131 0 216 -24.5t144 -75.5q111 -94 111 -266q0 -315 -301 -385l210 -391q23 -41 38.5 -57.5t43.5 -16.5q39 0 68 18l-4 -84q-18 -10 -37.5 -17t-48.5 -7q-68 0 -100.5 31.5t-67.5 97.5l-219 407q-20 -2 -40 -2h-42h-197v-524h-125v1206h-108zM309 616 h238q90 0 153.5 23t103.5 62.5t57.5 96t17.5 124.5q0 162 -89.5 223t-269.5 61h-211v-590zM340 1638h106l125 -159l123 159h107l-152 -192q-16 -20 -27.5 -27.5t-29.5 -7.5h-43q-18 0 -29.5 7t-27.5 28z" />
<glyph unicode="&#x159;" horiz-adv-x="671" d="M70 905v88h200l21 -147q37 78 101.5 122t150.5 44q10 0 26.5 -1t26.5 -3v-105q-10 2 -24.5 3t-30.5 1q-49 0 -94.5 -20.5t-75.5 -61.5q-41 -51 -57.5 -122.5t-16.5 -176.5v-526h-115v905h-112zM125 1350h106l125 -160l123 160h107l-152 -193q-16 -20 -27.5 -27.5 t-29.5 -7.5h-43q-18 0 -29.5 7.5t-28.5 27.5z" />
<glyph unicode="&#x15a;" horiz-adv-x="1003" d="M143 985q0 78 30 139.5t83 103.5t126 64.5t159 22.5q66 0 139.5 -12.5t134.5 -32.5l-4 -96q-61 23 -130 37t-140 14q-143 0 -214 -61.5t-71 -166.5q0 -70 27.5 -115.5t72.5 -78.5t103.5 -57.5t118 -49t118 -53.5t103.5 -71t72.5 -102t27.5 -146q0 -96 -34 -161t-92 -106 t-135 -58t-161 -17q-82 0 -168 15t-162 48l5 107q72 -39 155.5 -59.5t167.5 -20.5q61 0 118.5 12t100.5 41t68.5 76t25.5 116q0 92 -48 147.5t-119.5 92.5t-154.5 66.5t-154.5 72.5t-120 109.5t-48.5 179.5zM338 1436q29 43 64.5 78.5t72.5 63.5t74 43t72 15q84 1 84 -71 q0 -14 -7.5 -36t-17.5 -32q-14 4 -34.5 9t-43.5 5q-57 0 -118.5 -27.5t-123.5 -84.5z" />
<glyph unicode="&#x15b;" horiz-adv-x="854" d="M117 43l12 98q63 -35 138 -54t147 -19q63 0 108 15t74 39.5t42 56.5t13 67q0 74 -39 118t-96 71.5t-124.5 50t-125 54t-96.5 81t-39 133.5q0 68 27.5 117t75 79.5t108.5 46t129 15.5q57 0 117.5 -10.5t107.5 -26.5v-94q-39 18 -103.5 32.5t-129.5 14.5q-111 0 -168 -45 t-57 -121q0 -61 38.5 -98t96 -65t125 -51.5t125 -58t96.5 -89t39 -142.5q0 -119 -88 -197.5t-262 -78.5q-74 0 -153 17t-138 44zM262 1149q29 43 64.5 79t72.5 63.5t74 43t72 15.5q84 0 84 -72q0 -14 -7.5 -35.5t-17.5 -32.5q-14 4 -34.5 9.5t-43.5 5.5q-57 0 -118.5 -28 t-122.5 -85z" />
<glyph unicode="&#x15c;" horiz-adv-x="1003" d="M143 985q0 78 30 139.5t83 103.5t126 64.5t159 22.5q66 0 139.5 -12.5t134.5 -32.5l-4 -96q-61 23 -130 37t-140 14q-143 0 -214 -61.5t-71 -166.5q0 -70 27.5 -115.5t72.5 -78.5t103.5 -57.5t118 -49t118 -53.5t103.5 -71t72.5 -102t27.5 -146q0 -96 -34 -161t-92 -106 t-135 -58t-161 -17q-82 0 -168 15t-162 48l5 107q72 -39 155.5 -59.5t167.5 -20.5q61 0 118.5 12t100.5 41t68.5 76t25.5 116q0 92 -48 147.5t-119.5 92.5t-154.5 66.5t-154.5 72.5t-120 109.5t-48.5 179.5zM299 1411l152 193q16 20 27 27t30 7h43q18 0 29.5 -7t27.5 -27 l152 -193h-107l-123 160l-124 -160h-107z" />
<glyph unicode="&#x15d;" horiz-adv-x="854" d="M117 43l12 98q63 -35 138 -54t147 -19q63 0 108 15t74 39.5t42 56.5t13 67q0 74 -39 118t-96 71.5t-124.5 50t-125 54t-96.5 81t-39 133.5q0 68 27.5 117t75 79.5t108.5 46t129 15.5q57 0 117.5 -10.5t107.5 -26.5v-94q-39 18 -103.5 32.5t-129.5 14.5q-111 0 -168 -45 t-57 -121q0 -61 38.5 -98t96 -65t125 -51.5t125 -58t96.5 -89t39 -142.5q0 -119 -88 -197.5t-262 -78.5q-74 0 -153 17t-138 44zM209 1122l151 193q16 20 27.5 27.5t30.5 7.5h43q18 0 29.5 -7.5t27.5 -27.5l152 -193h-107l-123 160l-125 -160h-106z" />
<glyph unicode="&#x15e;" horiz-adv-x="1003" d="M143 985q0 78 30 139.5t83 103.5t126 64.5t159 22.5q66 0 139.5 -12.5t134.5 -32.5l-4 -96q-61 23 -130 37t-140 14q-143 0 -214 -61.5t-71 -166.5q0 -70 27.5 -115.5t72.5 -78.5t103.5 -57.5t118 -49t118 -53.5t103.5 -71t72.5 -102t27.5 -146q0 -90 -30.5 -152.5 t-83 -103.5t-121 -60.5t-146.5 -23.5q-20 -27 -20 -43q0 -23 30.5 -31t66.5 -19.5t66.5 -32t30.5 -67.5q0 -59 -56 -95t-173 -36l-12 49q66 4 110.5 18.5t44.5 47.5q0 27 -29.5 38t-65.5 20t-65.5 22.5t-29.5 44.5q0 18 7 37.5t28 44.5q-78 4 -156 18t-148 45l5 107 q72 -39 155.5 -59.5t167.5 -20.5q61 0 118.5 12t100.5 41t68.5 76t25.5 116q0 92 -48 147.5t-119.5 92.5t-154.5 66.5t-154.5 72.5t-120 109.5t-48.5 179.5z" />
<glyph unicode="&#x15f;" horiz-adv-x="854" d="M117 43l12 98q63 -35 138 -54t147 -19q63 0 108 15t74 39.5t42 56.5t13 67q0 74 -39 118t-96 71.5t-124.5 50t-125 54t-96.5 81t-39 133.5q0 68 27.5 117t75 79.5t108.5 46t129 15.5q57 0 117.5 -10.5t107.5 -26.5v-94q-39 18 -103.5 32.5t-129.5 14.5q-111 0 -168 -45 t-57 -121q0 -61 38.5 -98t96 -65t125 -51.5t125 -58t96.5 -89t39 -142.5q0 -113 -80 -189.5t-238 -84.5q-20 -27 -20 -43q0 -23 30.5 -31t66.5 -19.5t66.5 -32t30.5 -67.5q0 -59 -56 -95t-173 -36l-12 49q66 4 110.5 18.5t44.5 47.5q0 27 -29.5 38t-65.5 20t-65.5 22.5 t-29.5 44.5q0 18 7 37.5t28 46.5q-68 4 -135.5 20t-120.5 39z" />
<glyph unicode="&#x160;" horiz-adv-x="1003" d="M143 985q0 78 30 139.5t83 103.5t126 64.5t159 22.5q66 0 139.5 -12.5t134.5 -32.5l-4 -96q-61 23 -130 37t-140 14q-143 0 -214 -61.5t-71 -166.5q0 -70 27.5 -115.5t72.5 -78.5t103.5 -57.5t118 -49t118 -53.5t103.5 -71t72.5 -102t27.5 -146q0 -96 -34 -161t-92 -106 t-135 -58t-161 -17q-82 0 -168 15t-162 48l5 107q72 -39 155.5 -59.5t167.5 -20.5q61 0 118.5 12t100.5 41t68.5 76t25.5 116q0 92 -48 147.5t-119.5 92.5t-154.5 66.5t-154.5 72.5t-120 109.5t-48.5 179.5zM295 1638h106l125 -159l123 159h107l-152 -192 q-16 -20 -27.5 -27.5t-29.5 -7.5h-43q-18 0 -29.5 7t-28.5 28z" />
<glyph unicode="&#x161;" horiz-adv-x="854" d="M117 43l12 98q63 -35 138 -54t147 -19q63 0 108 15t74 39.5t42 56.5t13 67q0 74 -39 118t-96 71.5t-124.5 50t-125 54t-96.5 81t-39 133.5q0 68 27.5 117t75 79.5t108.5 46t129 15.5q57 0 117.5 -10.5t107.5 -26.5v-94q-39 18 -103.5 32.5t-129.5 14.5q-111 0 -168 -45 t-57 -121q0 -61 38.5 -98t96 -65t125 -51.5t125 -58t96.5 -89t39 -142.5q0 -119 -88 -197.5t-262 -78.5q-74 0 -153 17t-138 44zM207 1350h106l125 -160l123 160h107l-152 -193q-16 -20 -27.5 -27.5t-29.5 -7.5h-43q-18 0 -29.5 7.5t-28.5 27.5z" />
<glyph unicode="&#x162;" horiz-adv-x="956" d="M37 1206v90h883v-90h-379v-1206h-125v1206h-379zM385 -401q33 31 57.5 73.5t28.5 83.5q-72 18 -72 78q0 27 17.5 50.5t58.5 23.5q35 0 59.5 -25.5t24.5 -66.5q0 -72 -37 -140.5t-106 -109.5z" />
<glyph unicode="&#x163;" horiz-adv-x="679" d="M61 905v88h144v264l114 50v-314h240v-88h-240v-635q0 -109 29 -151q33 -49 113 -49q41 0 81 10t68 24l-2 -88q-33 -16 -78 -25t-81 -9q-59 0 -109.5 15t-83.5 56q-27 33 -39 77t-12 122v653h-144zM324 -401q33 31 57.5 73.5t28.5 83.5q-72 18 -72 78q0 27 17.5 50.5 t58.5 23.5q35 0 59.5 -25.5t24.5 -66.5q0 -72 -37 -140.5t-107 -109.5z" />
<glyph unicode="&#x164;" horiz-adv-x="956" d="M37 1206v90h883v-90h-379v-1206h-125v1206h-379zM250 1638h106l125 -159l123 159h107l-152 -192q-16 -20 -27.5 -27.5t-29.5 -7.5h-43q-18 0 -29.5 7t-28.5 28z" />
<glyph unicode="&#x165;" horiz-adv-x="679" d="M61 905v88h144v264l114 50v-314h240v-88h-240v-635q0 -109 29 -151q33 -49 113 -49q41 0 81 10t68 24l-2 -88q-33 -16 -78 -25t-81 -9q-59 0 -109.5 15t-83.5 56q-27 33 -39 77t-12 122v653h-144zM412 1112q33 31 57.5 74t28.5 84q-72 18 -72 78q0 27 17.5 50t58.5 23 q35 0 59.5 -25.5t24.5 -66.5q0 -72 -37 -140.5t-107 -109.5z" />
<glyph unicode="&#x166;" horiz-adv-x="956" d="M37 1206v90h883v-90h-379v-518h204v-88h-204v-600h-125v600h-205v88h205v518h-379z" />
<glyph unicode="&#x167;" horiz-adv-x="679" d="M61 905v88h144v264l114 50v-314h240v-88h-240v-287h199v-83h-199v-265q0 -109 29 -151q33 -49 113 -49q41 0 81 10t68 24l-2 -88q-33 -16 -78 -25t-81 -9q-59 0 -109.5 15t-83.5 56q-27 33 -39 77t-12 122v283h-115v83h115v287h-144z" />
<glyph unicode="&#x168;" horiz-adv-x="1220" d="M170 432v864h125v-837q0 -109 13.5 -173.5t41.5 -109.5q37 -57 105.5 -83.5t154.5 -26.5q188 0 260 110q29 45 43.5 112.5t14.5 176.5v831h125v-839q0 -113 -16.5 -186.5t-55.5 -133.5q-102 -156 -375 -155q-236 0 -344 127q-49 57 -70.5 131.5t-21.5 191.5zM383 1450 q6 78 40 124t99 46q33 0 58.5 -12.5t48 -25.5t45 -25.5t49.5 -12.5q25 0 42 17.5t32 58.5h53q-6 -78 -40 -124t-99 -46q-37 0 -62.5 12.5t-48 25.5t-44 25.5t-46.5 12.5t-42 -17.5t-32 -58.5h-53z" />
<glyph unicode="&#x169;" horiz-adv-x="1099" d="M156 358v635h114v-626q0 -86 11.5 -136.5t48.5 -89.5q33 -35 80 -50t104 -15q63 0 119.5 18.5t95.5 61.5q41 45 56.5 105.5t15.5 158.5v573h114v-807q0 -61 11.5 -83.5t46.5 -22.5q29 0 49 10l-6 -82q-12 -6 -36 -10t-44 -4q-125 0 -131 129q-53 -78 -138 -109.5 t-175 -31.5q-78 0 -145.5 26.5t-110.5 71.5q-53 55 -66.5 130t-13.5 148zM307 1153q6 78 40 124t99 46q33 0 58.5 -12.5t48 -25.5t45.5 -25.5t49 -12.5q25 0 42.5 17.5t31.5 58.5h53q-6 -78 -40 -124t-99 -46q-37 0 -62.5 12.5t-48 25.5t-44 25.5t-46.5 12.5t-42 -17.5 t-32 -58.5h-53z" />
<glyph unicode="&#x16a;" horiz-adv-x="1220" d="M170 432v864h125v-837q0 -109 13.5 -173.5t41.5 -109.5q37 -57 105.5 -83.5t154.5 -26.5q188 0 260 110q29 45 43.5 112.5t14.5 176.5v831h125v-839q0 -113 -16.5 -186.5t-55.5 -133.5q-102 -156 -375 -155q-236 0 -344 127q-49 57 -70.5 131.5t-21.5 191.5zM397 1462v94 h424v-94h-424z" />
<glyph unicode="&#x16b;" horiz-adv-x="1099" d="M156 358v635h114v-626q0 -86 11.5 -136.5t48.5 -89.5q33 -35 80 -50t104 -15q63 0 119.5 18.5t95.5 61.5q41 45 56.5 105.5t15.5 158.5v573h114v-807q0 -61 11.5 -83.5t46.5 -22.5q29 0 49 10l-6 -82q-12 -6 -36 -10t-44 -4q-125 0 -131 129q-53 -78 -138 -109.5 t-175 -31.5q-78 0 -145.5 26.5t-110.5 71.5q-53 55 -66.5 130t-13.5 148zM319 1188v94h424v-94h-424z" />
<glyph unicode="&#x16c;" horiz-adv-x="1220" d="M170 432v864h125v-837q0 -109 13.5 -173.5t41.5 -109.5q37 -57 105.5 -83.5t154.5 -26.5q188 0 260 110q29 45 43.5 112.5t14.5 176.5v831h125v-839q0 -113 -16.5 -186.5t-55.5 -133.5q-102 -156 -375 -155q-236 0 -344 127q-49 57 -70.5 131.5t-21.5 191.5zM401 1610h76 q16 -59 47 -89t90 -30t90 29.5t48 89.5h75q-6 -109 -64 -158t-149 -49q-90 0 -148 49t-65 158z" />
<glyph unicode="&#x16d;" horiz-adv-x="1099" d="M156 358v635h114v-626q0 -86 11.5 -136.5t48.5 -89.5q33 -35 80 -50t104 -15q63 0 119.5 18.5t95.5 61.5q41 45 56.5 105.5t15.5 158.5v573h114v-807q0 -61 11.5 -83.5t46.5 -22.5q29 0 49 10l-6 -82q-12 -6 -36 -10t-44 -4q-125 0 -131 129q-53 -78 -138 -109.5 t-175 -31.5q-78 0 -145.5 26.5t-110.5 71.5q-53 55 -66.5 130t-13.5 148zM317 1331h76q16 -59 47 -89t90 -30t90 30t48 89h75q-6 -109 -64 -158t-149 -49q-90 0 -148 49.5t-65 157.5z" />
<glyph unicode="&#x16e;" horiz-adv-x="1220" d="M170 432v864h125v-837q0 -109 13.5 -173.5t41.5 -109.5q37 -57 105.5 -83.5t154.5 -26.5q188 0 260 110q29 45 43.5 112.5t14.5 176.5v831h125v-839q0 -113 -16.5 -186.5t-55.5 -133.5q-102 -156 -375 -155q-236 0 -344 127q-49 57 -70.5 131.5t-21.5 191.5zM446 1567 q0 72 48.5 115.5t115.5 43.5q68 0 116 -43.5t48 -115.5t-48 -116t-116 -44t-116 44t-48 116zM520 1567q0 -39 23.5 -68t66.5 -29t66.5 29t23.5 68t-23.5 67.5t-66.5 28.5t-66.5 -28.5t-23.5 -67.5z" />
<glyph unicode="&#x16f;" horiz-adv-x="1099" d="M156 358v635h114v-626q0 -86 11.5 -136.5t48.5 -89.5q33 -35 80 -50t104 -15q63 0 119.5 18.5t95.5 61.5q41 45 56.5 105.5t15.5 158.5v573h114v-807q0 -61 11.5 -83.5t46.5 -22.5q29 0 49 10l-6 -82q-12 -6 -36 -10t-44 -4q-125 0 -131 129q-53 -78 -138 -109.5 t-175 -31.5q-78 0 -145.5 26.5t-110.5 71.5q-53 55 -66.5 130t-13.5 148zM373 1276q0 72 48 116t116 44t115.5 -44t47.5 -116t-48 -116t-115 -44q-68 0 -116 44t-48 116zM446 1276q0 -39 24 -67.5t67 -28.5t66.5 28.5t23.5 67.5t-23.5 67.5t-66.5 28.5t-67 -28.5t-24 -67.5z " />
<glyph unicode="&#x170;" horiz-adv-x="1220" d="M170 432v864h125v-837q0 -109 13.5 -173.5t41.5 -109.5q37 -57 105.5 -83.5t154.5 -26.5q188 0 260 110q29 45 43.5 112.5t14.5 176.5v831h125v-839q0 -113 -16.5 -186.5t-55.5 -133.5q-102 -156 -375 -155q-236 0 -344 127q-49 57 -70.5 131.5t-21.5 191.5zM313 1436 q51 86 100.5 144t116.5 58q84 1 84 -71q0 -14 -7 -36t-17 -32q-12 4 -28.5 9t-39.5 5q-47 0 -89 -26.5t-97 -85.5zM614 1436q51 86 100.5 144t116.5 58q84 1 84 -71q0 -14 -7 -36t-17 -32q-12 4 -28.5 9t-39.5 5q-47 0 -89 -26.5t-97 -85.5z" />
<glyph unicode="&#x171;" horiz-adv-x="1099" d="M156 358v635h114v-626q0 -86 11.5 -136.5t48.5 -89.5q33 -35 80 -50t104 -15q63 0 119.5 18.5t95.5 61.5q41 45 56.5 105.5t15.5 158.5v573h114v-807q0 -61 11.5 -83.5t46.5 -22.5q29 0 49 10l-6 -82q-12 -6 -36 -10t-44 -4q-125 0 -131 129q-53 -78 -138 -109.5 t-175 -31.5q-78 0 -145.5 26.5t-110.5 71.5q-53 55 -66.5 130t-13.5 148zM246 1147q51 86 100 144.5t117 58.5q84 0 84 -72q0 -14 -7.5 -35.5t-17.5 -32.5l-28.5 9.5t-38.5 5.5q-47 0 -89 -27t-98 -86zM547 1147q51 86 100 144.5t117 58.5q84 0 84 -72q0 -14 -7 -35.5 t-18 -32.5l-28.5 9.5t-38.5 5.5q-47 0 -89 -27t-98 -86z" />
<glyph unicode="&#x172;" horiz-adv-x="1220" d="M170 432v864h125v-837q0 -109 13.5 -173.5t41.5 -109.5q37 -57 105.5 -83.5t154.5 -26.5q188 0 260 110q29 45 43.5 112.5t14.5 176.5v831h125v-839q0 -113 -16.5 -186.5t-55.5 -133.5q-45 -68 -113 -102q-59 -33 -88.5 -75t-29.5 -101q0 -72 46 -112t136 -54l-21 -51 q-125 4 -190.5 64.5t-63.5 143.5q0 84 45 138q-47 -6 -96 -6q-236 0 -344 127q-49 57 -70.5 131.5t-21.5 191.5z" />
<glyph unicode="&#x173;" horiz-adv-x="1099" d="M156 358v635h114v-626q0 -86 11.5 -136.5t48.5 -89.5q33 -35 80 -50t104 -15q63 0 119.5 18.5t95.5 61.5q41 45 56.5 105.5t15.5 158.5v573h114v-807q0 -59 10.5 -82.5t47.5 -23.5q29 0 49 10l-6 -82q-35 -27 -56.5 -64.5t-21.5 -84.5q0 -72 46 -112t136 -54l-20 -51 q-125 4 -190.5 64.5t-63.5 143.5q0 88 55 148q-92 14 -96 125q-53 -78 -138 -109.5t-175 -31.5q-78 0 -145.5 26.5t-110.5 71.5q-53 55 -66.5 130t-13.5 148z" />
<glyph unicode="&#x174;" horiz-adv-x="1646" d="M63 1296h119l287 -1030q8 -29 16.5 -70.5t8.5 -76.5h2q2 29 5 69.5t13 69.5l256 875l-47 163h117l293 -1022q8 -27 18 -74.5t10 -80.5h2q2 33 10.5 77t18.5 76l281 1024h110l-362 -1296h-121l-275 944l-278 -944h-119zM592 1411l151 193q16 20 27.5 27t30.5 7h43 q18 0 29.5 -7t27.5 -27l152 -193h-107l-123 160l-125 -160h-106z" />
<glyph unicode="&#x175;" horiz-adv-x="1312" d="M29 993h118l220 -676q12 -35 27.5 -88t25.5 -94q8 35 22.5 86t30.5 103l154 454l-72 215h117l213 -678q12 -41 24.5 -93t22.5 -87q10 47 22.5 102.5t22.5 88.5l203 667h104l-309 -993h-92l-211 637l-215 -637h-92zM426 1122l152 193q16 20 27 27.5t30 7.5h43 q18 0 29.5 -7.5t27.5 -27.5l152 -193h-107l-123 160l-125 -160h-106z" />
<glyph unicode="&#x176;" horiz-adv-x="1062" d="M74 1296h131l295 -614q16 -35 29.5 -72t17.5 -59h2q4 25 16.5 57.5t28.5 67.5l295 620h115l-400 -839v-457h-125v459zM322 1411l151 193q16 20 27.5 27t29.5 7h43q18 0 29.5 -7t28.5 -27l151 -193h-106l-123 160l-125 -160h-106z" />
<glyph unicode="&#x177;" horiz-adv-x="1075" d="M156 358v635h114v-626q0 -86 11.5 -136.5t48.5 -89.5q33 -35 80 -50t104 -15q63 0 119.5 18.5t95.5 61.5q41 45 56.5 105.5t15.5 158.5v573h114v-921q0 -70 -2 -124t-8 -97.5t-19.5 -77t-33.5 -64.5q-29 -41 -69 -68.5t-85 -44t-93 -23.5t-93 -7q-80 0 -166 15.5 t-141 43.5v94q29 -14 66.5 -26t78.5 -20.5t81 -13.5t73 -5q78 0 139.5 23.5t101.5 74.5q33 41 44.5 103.5t11.5 179.5v92q-51 -84 -134 -114.5t-175 -30.5q-78 0 -145.5 26.5t-110.5 71.5q-53 55 -66.5 130t-13.5 148zM301 1122l152 193q16 20 27.5 27.5t29.5 7.5h43 q18 0 29.5 -7.5t27.5 -27.5l152 -193h-107l-123 160l-124 -160h-107z" />
<glyph unicode="&#x178;" horiz-adv-x="1062" d="M74 1296h131l295 -614q16 -35 29.5 -72t17.5 -59h2q4 25 16.5 57.5t28.5 67.5l295 620h115l-400 -839v-457h-125v459zM295 1534q0 41 26.5 67.5t67.5 26.5q39 0 65.5 -26.5t26.5 -67.5t-25.5 -66.5t-66.5 -25.5t-67.5 26.5t-26.5 65.5zM598 1534q0 41 26.5 67.5 t65.5 26.5q41 0 67.5 -26.5t26.5 -67.5q0 -39 -26.5 -65.5t-67.5 -26.5t-66.5 25.5t-25.5 66.5z" />
<glyph unicode="&#x179;" horiz-adv-x="997" d="M115 0v61l635 1145h-584v90h725v-61l-635 -1145h651l-16 -90h-776zM319 1436q29 43 65 78.5t73 63.5t73.5 43t71.5 15q84 1 84 -71q0 -14 -7 -36t-17 -32q-14 4 -35 9t-43 5q-57 0 -119 -27.5t-123 -84.5z" />
<glyph unicode="&#x17a;" horiz-adv-x="839" d="M115 0v82l524 823h-498v88h621v-80l-522 -825h536l-10 -88h-651zM264 1149q29 43 65 79t72.5 63.5t73.5 43t72 15.5q84 0 84 -72q0 -14 -7.5 -35.5t-17.5 -32.5q-14 4 -34.5 9.5t-43.5 5.5q-57 0 -118.5 -28t-122.5 -85z" />
<glyph unicode="&#x17b;" horiz-adv-x="997" d="M115 0v61l635 1145h-584v90h725v-61l-635 -1145h651l-16 -90h-776zM406 1546q0 47 32.5 80t79.5 33t81 -33t34 -80t-35 -80.5t-82 -33.5t-78.5 33.5t-31.5 80.5z" />
<glyph unicode="&#x17c;" horiz-adv-x="839" d="M115 0v82l524 823h-498v88h621v-80l-522 -825h536l-10 -88h-651zM342 1243q0 47 33 80t80 33t80.5 -33t33.5 -80t-34.5 -81t-81.5 -34t-79 34t-32 81z" />
<glyph unicode="&#x17d;" horiz-adv-x="997" d="M115 0v61l635 1145h-584v90h725v-61l-635 -1145h651l-16 -90h-776zM293 1638h106l125 -159l123 159h107l-152 -192q-16 -20 -27.5 -27.5t-29.5 -7.5h-43q-18 0 -29.5 7t-28.5 28z" />
<glyph unicode="&#x17e;" horiz-adv-x="839" d="M115 0v82l524 823h-498v88h621v-80l-522 -825h536l-10 -88h-651zM215 1350h107l124 -160l123 160h107l-152 -193q-16 -20 -27.5 -27.5t-29.5 -7.5h-43q-18 0 -29.5 7.5t-27.5 27.5z" />
<glyph unicode="&#x17f;" horiz-adv-x="561" d="M61 905v88h142v158q0 74 16.5 124t46.5 83q33 35 81 51t110 16q41 0 87 -8t79 -20v-88q-29 12 -68 20t-80 8q-39 0 -68.5 -7t-48.5 -25q-27 -27 -34 -66t-7 -104v-1135h-114v905h-142z" />
<glyph unicode="&#x192;" horiz-adv-x="1081" d="M66 -424l6 78q20 -10 59 -17.5t74 -7.5q106 0 153 66q27 37 38.5 80t21.5 121l78 618h-244v90h256l47 379q10 84 28.5 143.5t57.5 102.5q76 86 231 86q41 0 81 -9.5t65 -19.5l-6 -78q-20 10 -59.5 17.5t-73.5 7.5q-106 0 -154 -66q-27 -37 -38 -80t-21 -120l-45 -363h266 v-90h-279l-80 -635q-10 -84 -28.5 -143.5t-57.5 -102.5q-78 -86 -231 -86q-41 0 -81 9.5t-64 19.5z" />
<glyph unicode="&#x2c6;" d="M31 1122l151 193q16 20 27.5 27.5t30.5 7.5h43q18 0 29.5 -7.5t27.5 -27.5l152 -193h-107l-123 160l-125 -160h-106z" />
<glyph unicode="&#x2c7;" d="M31 1350h106l125 -160l123 160h107l-152 -193q-16 -20 -27.5 -27.5t-29.5 -7.5h-43q-18 0 -29.5 7.5t-28.5 27.5z" />
<glyph unicode="&#x2d8;" d="M47 1331h76q16 -59 47 -89t90 -30t90 30t47 89h76q-6 -109 -64.5 -158t-148.5 -49t-148.5 49.5t-64.5 157.5z" />
<glyph unicode="&#x2d9;" d="M147 1255q0 47 33 80t80 33t81 -33t34 -80t-35 -80.5t-82 -33.5t-79 33.5t-32 80.5z" />
<glyph unicode="&#x2da;" d="M96 1276q0 72 48.5 116t115.5 44q68 0 116 -44t48 -116t-48 -116t-116 -44t-116 44t-48 116zM170 1276q0 -39 23.5 -67.5t66.5 -28.5t66.5 28.5t23.5 67.5t-23.5 67.5t-66.5 28.5t-66.5 -28.5t-23.5 -67.5z" />
<glyph unicode="&#x2db;" d="M123 -150q0 82 48 140.5t134 81.5l43 -33q-59 -23 -96 -71t-37 -109q0 -72 46 -112t136 -54l-20 -51q-125 4 -190.5 64.5t-63.5 143.5z" />
<glyph unicode="&#x2dc;" d="M27 1153q6 78 39.5 124t99.5 46q33 0 58.5 -12.5t48 -25.5t45 -25.5t49.5 -12.5q25 0 42 17.5t31 58.5h54q-6 -78 -40 -124t-100 -46q-37 0 -62.5 12.5t-48 25.5t-44 25.5t-45.5 12.5q-25 0 -42.5 -17.5t-31.5 -58.5h-53z" />
<glyph unicode="&#x2dd;" d="M-41 1147q51 86 100.5 144.5t116.5 58.5q84 0 84 -72q0 -14 -7 -35.5t-17 -32.5q-12 4 -29 9.5t-39 5.5q-47 0 -89 -27t-97 -86zM260 1147q51 86 100.5 144.5t116.5 58.5q84 0 84 -72q0 -14 -7 -35.5t-17 -32.5l-28.5 9.5t-39.5 5.5q-47 0 -89 -27t-97 -86z" />
<glyph unicode="&#x2000;" horiz-adv-x="863" />
<glyph unicode="&#x2001;" horiz-adv-x="1726" />
<glyph unicode="&#x2002;" horiz-adv-x="863" />
<glyph unicode="&#x2003;" horiz-adv-x="1726" />
<glyph unicode="&#x2004;" horiz-adv-x="575" />
<glyph unicode="&#x2005;" horiz-adv-x="431" />
<glyph unicode="&#x2006;" horiz-adv-x="287" />
<glyph unicode="&#x2007;" horiz-adv-x="287" />
<glyph unicode="&#x2008;" horiz-adv-x="215" />
<glyph unicode="&#x2009;" horiz-adv-x="345" />
<glyph unicode="&#x200a;" horiz-adv-x="95" />
<glyph unicode="&#x2010;" horiz-adv-x="677" d="M123 436v103h432v-103h-432z" />
<glyph unicode="&#x2011;" horiz-adv-x="677" d="M123 436v103h432v-103h-432z" />
<glyph unicode="&#x2012;" horiz-adv-x="677" d="M123 436v103h432v-103h-432z" />
<glyph unicode="&#x2013;" horiz-adv-x="1024" d="M0 530v82h1024v-82h-1024z" />
<glyph unicode="&#x2014;" horiz-adv-x="2048" d="M0 530v82h2048v-82h-2048z" />
<glyph unicode="&#x2018;" horiz-adv-x="397" d="M119 1038q0 78 42 154t118 123l32 -35q-37 -35 -64.5 -82t-31.5 -92q41 -10 60.5 -33.5t19.5 -52.5q0 -31 -18.5 -56.5t-63.5 -25.5q-41 0 -67.5 27.5t-26.5 72.5z" />
<glyph unicode="&#x2019;" horiz-adv-x="397" d="M86 973q37 35 64.5 82t31.5 92q-41 10 -60.5 33.5t-19.5 52.5q0 31 18.5 56.5t63.5 25.5q41 0 68 -28t27 -73q0 -78 -42 -153.5t-118 -122.5z" />
<glyph unicode="&#x201a;" horiz-adv-x="397" d="M86 -217q37 35 64.5 82t31.5 92q-41 10 -60.5 33.5t-19.5 52.5q0 31 18.5 56.5t63.5 25.5q41 0 68 -27.5t27 -72.5q0 -78 -42 -154t-118 -123z" />
<glyph unicode="&#x201c;" horiz-adv-x="647" d="M119 1038q0 78 42 154t118 123l32 -35q-37 -35 -64.5 -82t-31.5 -92q41 -10 60.5 -33.5t19.5 -52.5q0 -31 -18.5 -56.5t-63.5 -25.5q-41 0 -67.5 27.5t-26.5 72.5zM369 1038q0 78 42 154t117 123l33 -35q-37 -35 -64.5 -82t-31.5 -92q41 -10 60.5 -33.5t19.5 -52.5 q0 -31 -18.5 -56.5t-63.5 -25.5q-41 0 -67.5 27.5t-26.5 72.5z" />
<glyph unicode="&#x201d;" horiz-adv-x="647" d="M86 973q37 35 64.5 82t31.5 92q-41 10 -60.5 33.5t-19.5 52.5q0 31 18.5 56.5t63.5 25.5q41 0 68 -28t27 -73q0 -78 -42 -153.5t-118 -122.5zM336 973q37 35 64.5 82t31.5 92q-41 10 -60.5 33.5t-19.5 52.5q0 31 18.5 56.5t63.5 25.5q41 0 67.5 -28t26.5 -73 q0 -78 -42 -153.5t-117 -122.5z" />
<glyph unicode="&#x201e;" horiz-adv-x="647" d="M86 -217q37 35 64.5 82t31.5 92q-41 10 -60.5 33.5t-19.5 52.5q0 31 18.5 56.5t63.5 25.5q41 0 68 -27.5t27 -72.5q0 -78 -42 -154t-118 -123zM336 -217q37 35 64.5 82t31.5 92q-41 10 -60.5 33.5t-19.5 52.5q0 31 18.5 56.5t63.5 25.5q41 0 67.5 -27.5t26.5 -72.5 q0 -78 -42 -154t-117 -123z" />
<glyph unicode="&#x2020;" horiz-adv-x="1081" d="M88 825q0 43 19.5 59.5t78.5 8.5l322 -39l-41 365q-6 53 8 74.5t62 21.5q45 0 60 -21.5t9 -74.5l-41 -367l330 41q59 8 78.5 -8.5t19.5 -59.5q0 -45 -21.5 -59t-76.5 -8l-330 39l41 -1159q2 -53 -11 -77t-58 -24t-58.5 23.5t-11.5 77.5l41 1159l-322 -39q-55 -6 -76.5 7 t-21.5 60z" />
<glyph unicode="&#x2021;" horiz-adv-x="1081" d="M88 33q0 45 18.5 59t77.5 8l328 -39q-10 98 -21.5 183.5t-11.5 173.5t11.5 174t21.5 184l-328 -39q-55 -6 -75.5 7.5t-20.5 60.5q0 45 18.5 59.5t77.5 7.5l328 -38l-39 368q-6 59 9.5 78.5t58.5 19.5q45 0 59 -21.5t8 -76.5l-39 -368l326 38q59 6 78.5 -9t19.5 -58 q0 -45 -21.5 -59.5t-76.5 -8.5l-326 39q10 -98 21.5 -184t11.5 -174t-11 -173t-22 -184l326 39q59 6 78.5 -9t19.5 -58q0 -45 -21.5 -59.5t-76.5 -8.5l-326 39l39 -369q6 -55 -8 -76.5t-59 -21.5q-43 0 -58.5 19.5t-9.5 78.5l39 369l-328 -39q-55 -6 -75.5 7.5t-20.5 60.5z " />
<glyph unicode="&#x2022;" horiz-adv-x="716" d="M170 649q0 39 15.5 74t41 60.5t60.5 40t73 14.5q39 0 74 -14.5t60.5 -40t40 -60.5t14.5 -74t-14.5 -73.5t-40 -60.5t-60.5 -41t-74 -15t-73.5 15t-60 41t-41 60.5t-15.5 73.5z" />
<glyph unicode="&#x2026;" horiz-adv-x="1073" d="M143 78q0 35 23.5 58.5t58.5 23.5t59.5 -23.5t24.5 -58.5t-24.5 -59.5t-59.5 -24.5t-58.5 24.5t-23.5 59.5zM453 78q0 35 23.5 58.5t58.5 23.5t59 -23.5t24 -58.5t-24.5 -59.5t-58.5 -24.5q-35 0 -58.5 24.5t-23.5 59.5zM764 78q0 35 23.5 58.5t58.5 23.5t59.5 -23.5 t24.5 -58.5t-24.5 -59.5t-59.5 -24.5t-58.5 24.5t-23.5 59.5z" />
<glyph unicode="&#x202f;" horiz-adv-x="345" />
<glyph unicode="&#x2030;" horiz-adv-x="2293" d="M152 932q0 174 77.5 278.5t206.5 104.5t207 -104.5t78 -278.5t-78 -278.5t-207 -104.5t-206.5 104.5t-77.5 278.5zM252 932q0 -154 52 -229.5t132 -75.5t132.5 75.5t52.5 229.5t-52.5 229.5t-132.5 75.5t-132 -76t-52 -229zM549 -16l446 1331h97l-447 -1331h-96zM924 365 q0 174 77.5 278.5t206.5 104.5t207 -104.5t78 -278.5t-78 -278.5t-207 -104.5t-206.5 104t-77.5 279zM1024 365q0 -154 52 -230t132 -76t132.5 76t52.5 230t-52.5 229.5t-132.5 75.5t-132 -76t-52 -229zM1573 365q0 174 78 278.5t207 104.5t206.5 -104.5t77.5 -278.5 t-77.5 -278.5t-206.5 -104.5t-207 104t-78 279zM1673 365q0 -154 52.5 -230t132.5 -76t132 76t52 230t-52.5 229.5t-131.5 75.5q-80 0 -132.5 -76t-52.5 -229z" />
<glyph unicode="&#x2039;" horiz-adv-x="665" d="M184 496q0 8 6.5 16t12.5 16l270 301l29 -79l-193 -254l193 -254l-29 -80l-270 301q-6 8 -12.5 16t-6.5 17z" />
<glyph unicode="&#x203a;" horiz-adv-x="665" d="M164 242l192 254l-192 254l29 79l270 -301l12 -16t6 -16t-6 -16.5t-12 -16.5l-270 -301z" />
<glyph unicode="&#x2044;" horiz-adv-x="444" d="M-37 -18l430 1333h88l-430 -1333h-88z" />
<glyph unicode="&#x205f;" horiz-adv-x="431" />
<glyph unicode="&#x20ac;" horiz-adv-x="1081" d="M76 487v93h151q-2 23 -2 45v45h-149v92h153q18 256 130 404.5t321 148.5q63 0 122.5 -19.5t104.5 -60.5q37 -33 60.5 -78t40.5 -98l-88 -31q-29 92 -85.5 144.5t-154.5 52.5q-152 0 -236 -117t-98 -346h404v-92h-408v-45.5t2 -44.5h406v-93h-398q8 -82 29.5 -156.5 t62.5 -131t104.5 -89t158.5 -32.5q39 0 80.5 7t79.5 19.5t70 26.5t54 29l-4 -99q-47 -31 -131 -55t-166 -24q-115 0 -196.5 38.5t-135 107.5t-83 161t-42.5 198h-157z" />
<glyph unicode="&#x2122;" horiz-adv-x="1398" d="M49 1233v63h498v-63h-207v-637h-84v637h-207zM614 596v700h76l256 -583l240 583h80v-700h-80v514q-4 -12 -8 -24.5t-9 -22.5l-194 -467h-64l-209 483q-4 6 -5 13.5t-5 15.5v-512h-78z" />
<glyph unicode="&#xe000;" horiz-adv-x="993" d="M0 0v993h993v-993h-993z" />
</font>
</defs>
</svg>
