<?xml version="1.0" standalone="no"?>
<!DOCTYPE svg PUBLIC "-//W3C//DTD SVG 1.1//EN" "http://www.w3.org/Graphics/SVG/1.1/DTD/svg11.dtd" >
<svg xmlns="http://www.w3.org/2000/svg">
<metadata></metadata>
<defs>
<font id="fs_lolabold" horiz-adv-x="628" >
<font-face units-per-em="2048" ascent="1536" descent="-512" />
<missing-glyph horiz-adv-x="477" />
<glyph unicode="&#xfb01;" horiz-adv-x="1304" d="M18 801v192h154v90q0 86 16.5 147.5t55.5 102.5q82 92 262 92q51 0 110.5 -8t100.5 -20l-25 -176q-25 8 -58.5 13t-68.5 5q-29 0 -54.5 -8t-41.5 -29q-16 -20 -20.5 -46t-4.5 -58v-105h672v-764q0 -61 49 -61q18 0 42 8t36 19l-8 -156q-29 -20 -77 -35.5t-103 -15.5 q-123 0 -174 69q-20 29 -28.5 70t-8.5 90v584h-400v-801h-272v801h-154zM821 1264q0 63 44 107t108 44q63 0 106 -44t43 -107t-42 -107.5t-105 -44.5t-108.5 44t-45.5 108z" />
<glyph unicode="&#xfb02;" horiz-adv-x="1343" d="M18 801v192h156v90q0 84 15.5 144.5t58.5 107.5q84 90 266 90q53 0 115.5 -10t105.5 -26v-179q-35 12 -80 20.5t-86 8.5q-70 0 -96 -37q-27 -33 -27 -108v-101h242v-192h-242v-801h-272v801h-156zM862 217v1184h273v-1172q0 -61 49 -61q18 0 41.5 8t36.5 19l-9 -156 q-29 -20 -77 -35.5t-103 -15.5q-123 0 -174 69q-20 29 -28.5 70t-8.5 90z" />
<glyph horiz-adv-x="2048" />
<glyph horiz-adv-x="2048" />
<glyph unicode="&#xd;" horiz-adv-x="477" />
<glyph unicode=" "  horiz-adv-x="477" />
<glyph unicode="&#x09;" horiz-adv-x="477" />
<glyph unicode="&#xa0;" horiz-adv-x="477" />
<glyph unicode="!" horiz-adv-x="593" d="M152 1184q0 66 42 100.5t103 34.5t103 -34.5t42 -100.5q0 -6 -1 -11.5t-1 -11.5l-92 -762h-102l-92 762q0 6 -1 11.5t-1 11.5zM160 123q0 57 40 97t97 40t98 -40t41 -97t-41 -98t-98 -41t-97 41t-40 98z" />
<glyph unicode="&#x22;" horiz-adv-x="712" d="M88 1217q0 51 32 76.5t81 25.5q47 0 79.5 -25.5t32.5 -76.5v-16.5t-2 -16.5l-65 -336h-88l-66 336q-4 20 -4 33zM401 1200v17q0 51 31 76.5t80 25.5q47 0 80 -25.5t33 -76.5v-16.5t-2 -16.5l-66 -336h-88l-66 336q-2 8 -2 16z" />
<glyph unicode="#" horiz-adv-x="1142" d="M66 379v180h231v182h-231v179h231v376h184v-376h185v376h184v-376h229v-179h-229v-182h229v-180h-229v-379h-184v379h-185v-379h-184v379h-231zM481 559h185v182h-185v-182z" />
<glyph unicode="$" horiz-adv-x="1142" d="M115 926q0 160 99 262t292 125v200h137v-194q80 -4 160 -20.5t133 -34.5l-10 -217q-68 27 -142.5 43t-140.5 20v-334q68 -20 136.5 -47t123.5 -71t90 -111.5t35 -169.5q0 -90 -28.5 -158.5t-80 -117t-122 -77t-154.5 -38.5v-207h-137v201q-98 4 -196.5 24.5t-182.5 56.5 l12 236q78 -43 179.5 -73.5t187.5 -33.5v338q-68 20 -137.5 46t-126 70t-92 110.5t-35.5 171.5zM389 961q0 -53 32 -84t85 -54v273q-117 -35 -117 -135zM643 207q49 16 79 50t30 85t-31 83t-78 54v-272z" />
<glyph unicode="%" horiz-adv-x="1761" d="M125 936q0 178 79 280.5t232 102.5q154 0 234 -102.5t80 -280.5t-80 -280.5t-234 -102.5t-232.5 102.5t-78.5 280.5zM317 936q0 -129 29 -181.5t90 -52.5t90 52.5t29 181.5t-28.5 181t-90.5 52q-61 0 -90 -52t-29 -181zM561 -18l436 1337h209l-436 -1337h-209zM1014 365 q0 178 80 280.5t233 102.5q154 0 232.5 -102.5t78.5 -280.5t-78.5 -280.5t-232.5 -102.5t-233.5 102t-79.5 281zM1208 365q0 -129 29 -181.5t90 -52.5t90 52.5t29 181.5t-28.5 181t-90.5 52q-61 0 -90 -52t-29 -181z" />
<glyph unicode="&#x26;" horiz-adv-x="1421" d="M98 375q0 119 60.5 214t189.5 136q-70 33 -112.5 99.5t-42.5 160.5q0 82 33.5 145.5t91 104.5t134 62.5t162.5 21.5q88 0 168 -16.5t140 -40.5l-11 -191q-57 29 -121.5 43t-123.5 14q-98 0 -150.5 -42t-52.5 -119q0 -92 66.5 -131t177.5 -39h583v-179h-180v-331 q0 -59 20.5 -87t71.5 -28q35 0 75 14.5t75 32.5l-17 -174q-39 -27 -96 -46t-123 -19q-86 0 -146.5 39.5t-80.5 107.5q-51 -70 -149.5 -108.5t-209.5 -38.5q-96 0 -176 27.5t-137 79.5t-88 125t-31 163zM383 395q0 -98 60.5 -155.5t158.5 -57.5q72 0 123 24.5t82 65.5 q49 68 49 181v165h-209q-127 0 -196 -57q-68 -59 -68 -166z" />
<glyph unicode="'" horiz-adv-x="401" d="M88 1217q0 51 32 76.5t81 25.5q47 0 79.5 -25.5t32.5 -76.5v-16.5t-2 -16.5l-65 -336h-88l-66 336q-4 20 -4 33z" />
<glyph unicode="(" horiz-adv-x="638" d="M127 506q0 156 31.5 299t92 261t149.5 205t204 132l39 -72q-66 -47 -113 -118.5t-76.5 -173t-44 -233.5t-14.5 -300q0 -336 58.5 -534.5t189.5 -293.5l-39 -71q-115 45 -204 132t-149.5 205.5t-92 261t-31.5 300.5z" />
<glyph unicode=")" horiz-adv-x="638" d="M-4 -322q131 94 189.5 293t58.5 535q0 168 -14.5 300t-44 233.5t-77 173t-112.5 118.5l39 72q115 -45 204 -132t149.5 -205t92 -261t31.5 -299q0 -158 -31.5 -300.5t-92 -261t-149.5 -205.5t-204 -132z" />
<glyph unicode="*" horiz-adv-x="944" d="M121 784q0 35 24.5 53.5t49.5 26.5l202 68l-202 65q-25 8 -49.5 26.5t-24.5 53.5q0 33 25.5 63.5t60.5 30.5q23 0 39 -10t30 -22l158 -146l-45 211q-2 4 -2 13.5v19.5q0 41 22.5 61.5t61.5 20.5q37 0 61.5 -20.5t24.5 -61.5q0 -10 -1 -17.5t-3 -15.5l-47 -211l160 146 q14 12 31.5 22t39.5 10q35 0 60.5 -30.5t25.5 -63.5q0 -35 -25.5 -53t-49.5 -27l-203 -65l203 -68q25 -8 50 -26.5t25 -53.5q0 -33 -25.5 -63.5t-60.5 -30.5q-23 0 -40 10.5t-31 22.5l-160 145l47 -211q2 -8 3 -15t1 -17q0 -41 -24.5 -61.5t-61.5 -20.5q-39 0 -61.5 20.5 t-22.5 61.5v16t2 16l45 211l-158 -145q-14 -12 -30.5 -22.5t-38.5 -10.5q-35 0 -60.5 31t-25.5 63z" />
<glyph unicode="+" horiz-adv-x="1095" d="M180 563v189h273v266h194v-266h271v-189h-271v-266h-194v266h-273z" />
<glyph unicode="," horiz-adv-x="512" d="M74 -223q59 41 100 101.5t49 107.5q-47 12 -78.5 44.5t-31.5 86.5q0 53 36.5 93t100.5 40q70 0 109.5 -44t39.5 -118q0 -53 -18.5 -110.5t-52 -110.5t-80.5 -98t-103 -72z" />
<glyph unicode="-" horiz-adv-x="782" d="M125 395v203h534v-203h-534z" />
<glyph unicode="." horiz-adv-x="505" d="M115 123q0 57 41 97t98 40t97 -40t40 -97t-40 -98t-97 -41t-98 41t-41 98z" />
<glyph unicode="/" horiz-adv-x="671" d="M6 -18l428 1337h232l-428 -1337h-232z" />
<glyph unicode="0" horiz-adv-x="1142" d="M86 647q0 322 120 497t365 175q246 0 366 -175t120 -497t-119 -494.5t-365 -172.5q-248 0 -367.5 172t-119.5 495zM379 647q0 -238 42 -347.5t152 -109.5q109 0 150 109.5t41 347.5t-41 348.5t-152 110.5t-151.5 -110.5t-40.5 -348.5z" />
<glyph unicode="1" horiz-adv-x="1142" d="M215 1077l365 219h176v-1114h200v-182h-677v182h200v828l-168 -97z" />
<glyph unicode="2" horiz-adv-x="1142" d="M135 995q45 166 162 245t301 79q94 0 176 -26.5t137 -80.5q53 -49 80 -113.5t27 -152.5q0 -80 -25.5 -142.5t-68.5 -112.5t-99.5 -92t-115.5 -85q-41 -29 -86 -61.5t-84 -71.5t-69 -83t-40 -95h596l-18 -203h-861v63q0 106 25 188.5t68 149t102 120.5t129 104 q59 43 108.5 79.5t84 72.5t53 75t18.5 86q0 76 -42 123t-126 47q-76 0 -123 -46t-69 -122z" />
<glyph unicode="3" horiz-adv-x="1142" d="M117 1004q41 158 155.5 236.5t282.5 78.5q106 0 184 -26.5t130.5 -71.5t78 -107.5t25.5 -132.5q0 -102 -46 -172t-128 -102q123 -37 177 -119t54 -199q0 -190 -129 -299.5t-364 -109.5q-104 0 -207 22.5t-185 58.5l15 218q68 -39 161 -68t179 -29q125 0 186.5 56.5 t61.5 152.5q0 53 -20.5 89t-56.5 57.5t-85 31t-105 9.5v172q94 4 157.5 51t63.5 149q0 72 -43 116t-116 44q-76 0 -121 -41t-72 -119z" />
<glyph unicode="4" horiz-adv-x="1142" d="M70 387l479 932l217 -119l-387 -747h297v239h256v-239h143v-203h-143v-250h-256v250h-547z" />
<glyph unicode="5" horiz-adv-x="1142" d="M172 59l14 211q63 -39 143.5 -64.5t162.5 -25.5q127 0 191.5 61.5t64.5 174.5t-56 166q-35 33 -90 46t-162 13h-237v655h712v-200h-495v-265h96q141 0 236.5 -23.5t158.5 -78.5q115 -100 115 -303t-125 -324.5t-366 -121.5q-104 0 -196.5 21.5t-166.5 57.5z" />
<glyph unicode="6" horiz-adv-x="1142" d="M109 580q0 164 38.5 300t112.5 233t179.5 151.5t240.5 54.5q63 0 128.5 -11.5t119.5 -31.5l-4 -184q-41 16 -100.5 28.5t-114.5 12.5q-74 0 -127.5 -28t-88 -74t-56 -106.5t-31.5 -125.5q53 35 120.5 50t132.5 15q199 0 300.5 -107.5t101.5 -310.5q0 -98 -30 -183 t-88 -147.5t-146 -99t-203 -36.5q-127 0 -219 45t-151.5 124.5t-87 189.5t-27.5 241zM387 539q2 -174 51 -269.5t160 -95.5q86 0 141.5 69.5t55.5 196.5q0 244 -201 244q-53 0 -106.5 -17.5t-98.5 -48.5q-2 -18 -2 -39.5v-39.5z" />
<glyph unicode="7" horiz-adv-x="1142" d="M147 1096v200h822l53 -133l-471 -1163h-285l475 1096h-594z" />
<glyph unicode="8" horiz-adv-x="1142" d="M123 352q0 96 52 181t157 141q-66 45 -115 115.5t-49 183.5q0 78 28.5 141.5t83 109.5t130 70.5t172.5 24.5q190 0 297.5 -87t107.5 -235q0 -98 -55 -173.5t-135 -118.5q49 -25 95 -53.5t80 -68.5t54.5 -92t20.5 -120q0 -86 -29 -159t-87.5 -124t-147.5 -79.5t-212 -28.5 q-211 0 -329.5 97t-118.5 275zM379 367q0 -96 56.5 -145.5t146.5 -51.5q92 -2 147 45t55 135q0 47 -22.5 81t-59 60.5t-86 48t-102.5 44.5q-66 -35 -100.5 -93.5t-34.5 -123.5zM418 989q0 -78 56 -124t136 -81q66 33 104 85.5t38 111.5q0 82 -47.5 122t-120.5 40 q-78 0 -122 -42t-44 -112z" />
<glyph unicode="9" horiz-adv-x="1142" d="M82 852q0 98 29.5 183t88 147.5t146.5 99.5t203 37q127 0 219 -45t151.5 -125t87 -189.5t27.5 -240.5q0 -164 -39 -300t-112.5 -233.5t-179 -151.5t-240.5 -54q-63 0 -129 11t-119 32l4 184q41 -16 100.5 -28.5t114.5 -12.5q74 0 127 27.5t88 73.5t56.5 106.5t31.5 126.5 q-53 -35 -120.5 -50.5t-133.5 -15.5q-199 0 -300 107.5t-101 310.5zM348 858q0 -244 201 -244q53 0 106.5 17.5t98.5 48.5q2 18 2 40v40q-2 174 -51.5 269t-159.5 95q-86 0 -141.5 -69.5t-55.5 -196.5z" />
<glyph unicode=":" horiz-adv-x="505" d="M115 123q0 57 41 97t98 40t97 -40t40 -97t-40 -98t-97 -41t-98 41t-41 98zM115 692q0 57 41 98t98 41t97 -41t40 -98t-40 -97t-97 -40t-98 40t-41 97z" />
<glyph unicode=";" horiz-adv-x="512" d="M74 -223q59 41 100 101.5t49 107.5q-47 12 -78.5 44.5t-31.5 86.5q0 53 36.5 93t100.5 40q70 0 109.5 -44t39.5 -118q0 -53 -18.5 -110.5t-52 -110.5t-80.5 -98t-103 -72zM119 692q0 57 40 98t97 41t98 -41t41 -98t-41 -97t-98 -40t-97 40t-40 97z" />
<glyph unicode="&#x3c;" horiz-adv-x="1095" d="M176 561v189l746 292v-206l-488 -179l488 -178v-207z" />
<glyph unicode="=" horiz-adv-x="1095" d="M180 348v191h738v-191h-738zM180 774v191h738v-191h-738z" />
<glyph unicode="&#x3e;" horiz-adv-x="1095" d="M176 272v207l488 178l-488 179v206l746 -292v-189z" />
<glyph unicode="?" horiz-adv-x="1026" d="M63 993q33 156 146 241t287 85q94 0 170.5 -25.5t131 -72.5t84 -115t29.5 -152q0 -147 -77.5 -243.5t-237.5 -126.5l-43 -9l-25 -176h-125l-22 291l82 15q178 31 178 219q0 78 -41 129t-123 51q-70 0 -112.5 -40t-65.5 -118zM330 123q0 57 40 97t97 40t98 -40t41 -97 t-41 -98t-98 -41t-97 41t-40 98z" />
<glyph unicode="@" horiz-adv-x="1576" d="M96 651q0 156 54.5 280t147.5 210t220 132t275 46q154 0 279.5 -44t216.5 -124t140.5 -189.5t49.5 -240.5q0 -223 -98.5 -342t-266.5 -119q-74 0 -127 25.5t-69 72.5q-31 -41 -84.5 -64.5t-118.5 -23.5q-115 0 -186.5 58.5t-71.5 181.5q0 104 69.5 172t208.5 68 q45 0 83 -6.5t65 -14.5v43q0 55 -37 84t-103 29t-121 -14.5t-106 -41.5v140q53 23 118.5 37t137.5 14q84 0 147.5 -16.5t106.5 -57.5q33 -31 49.5 -76t16.5 -110v-273q0 -74 65 -73q59 0 91 72.5t32 211.5q0 109 -34 196t-97.5 148.5t-152.5 94t-199 32.5 q-121 0 -214.5 -36.5t-158 -104t-97 -164t-32.5 -215.5q0 -260 141.5 -397t409.5 -137q168 0 308 34.5t243 81.5l-8 -125q-47 -25 -113 -47t-140.5 -40.5t-157.5 -28.5t-163 -10q-164 0 -296 45t-226 131t-145.5 211t-51.5 284zM666 518q0 -51 27.5 -81.5t78.5 -30.5 q45 0 78 28.5t33 89.5v99q-20 6 -45 10t-52 4q-59 0 -89.5 -32t-30.5 -87z" />
<glyph unicode="A" horiz-adv-x="1269" d="M41 0l358 1096h-120v200h505l467 -1296h-295l-88 262h-467l-79 -262h-281zM459 455h344l-141 422q-14 41 -24.5 82.5t-14.5 76.5h-2q-2 -31 -11.5 -73.5t-21.5 -83.5z" />
<glyph unicode="B" horiz-adv-x="1243" d="M37 1096v200h586q133 0 219 -20.5t143 -71.5q47 -41 72.5 -99t25.5 -134q0 -98 -46 -168t-124 -105q248 -59 248 -319q0 -231 -182 -322q-63 -33 -147 -45t-195 -12h-475v1096h-125zM446 203h164q131 0 190.5 40.5t59.5 149.5q0 96 -49 139q-31 27 -76 38.5t-123 11.5 h-166v-379zM446 750h136q66 0 105.5 10t66.5 35q43 41 43 133q0 35 -10.5 68.5t-36.5 56.5q-25 23 -66 33t-111 10h-127v-346z" />
<glyph unicode="C" horiz-adv-x="1183" d="M72 655q0 137 33.5 259t102 211t176.5 141.5t255 52.5q195 0 315.5 -99.5t149.5 -267.5l-289 -53q-20 94 -62 148.5t-124 54.5q-63 0 -111.5 -32t-80 -88t-47 -136t-15.5 -174q0 -109 18.5 -196t58.5 -148.5t103 -95t154 -33.5q96 0 197.5 35.5t176.5 82.5l-16 -223 q-68 -47 -180.5 -80.5t-237.5 -33.5q-154 0 -263.5 51t-179 141t-102 214t-32.5 269z" />
<glyph unicode="D" horiz-adv-x="1318" d="M37 1096v200h514q158 0 275.5 -23.5t203.5 -80.5q111 -74 164 -207t53 -342q0 -242 -83 -381t-236 -203q-150 -59 -369 -59h-397v1096h-125zM446 201h132q154 0 237 59q76 53 102.5 153.5t26.5 243.5t-28.5 234.5t-94.5 140.5q-47 35 -113.5 49.5t-156.5 14.5h-105v-895z " />
<glyph unicode="E" horiz-adv-x="1093" d="M145 0v1296h820v-200h-535v-338h434v-199h-434v-356h582l-19 -203h-848z" />
<glyph unicode="F" horiz-adv-x="1034" d="M145 0v1296h820v-200h-535v-338h436v-199h-436v-559h-285z" />
<glyph unicode="G" horiz-adv-x="1290" d="M72 649q0 162 41 288t117.5 210t185 128t243.5 44q213 0 338 -100.5t160 -272.5l-295 -49q-23 92 -71 148.5t-144 56.5q-68 0 -118 -33t-84.5 -91t-52 -139t-17.5 -175q0 -223 75.5 -345t241.5 -122q57 0 108.5 15t88.5 40v207h-156v170h436v-629h-163l-45 74 q-66 -45 -149 -69.5t-183 -24.5q-147 0 -253 50t-173.5 139t-99 212t-31.5 268z" />
<glyph unicode="H" horiz-adv-x="1320" d="M145 0v1296h285v-534h461v534h285v-1296h-285v537h-461v-537h-285z" />
<glyph unicode="I" horiz-adv-x="784" d="M117 0v158h131v977h-131v161h551v-161h-136v-977h136v-158h-551z" />
<glyph unicode="J" horiz-adv-x="929" d="M94 29l12 204q16 -8 42 -16t54.5 -14t59.5 -10.5t57 -4.5q96 0 138 43q25 25 34 62t9 92v711h-332v200h616v-882q0 -100 -10 -166t-45 -119q-47 -72 -134 -110.5t-216 -38.5q-76 0 -151.5 13t-133.5 36z" />
<glyph unicode="K" horiz-adv-x="1261" d="M145 0v1296h285v-536h164l276 536h287l-336 -632l223 -406q23 -39 44.5 -57.5t58.5 -18.5q23 0 47.5 7.5t36.5 17.5l-17 -180q-27 -16 -77 -29.5t-97 -13.5q-92 0 -152.5 46t-119.5 152l-190 348h-148v-530h-285z" />
<glyph unicode="L" horiz-adv-x="1032" d="M145 0v1296h285v-1093h557l-16 -203h-826z" />
<glyph unicode="M" horiz-adv-x="1615" d="M145 0v1296h265l354 -774q18 -41 34.5 -90t20.5 -72h2q2 23 17.5 73t31.5 89l334 774h266v-1296h-241v848q-2 -16 -8.5 -39t-14.5 -47.5t-17 -47t-15 -38.5l-293 -676h-138l-305 674q-16 37 -30.5 83t-22.5 93v-850h-240z" />
<glyph unicode="N" horiz-adv-x="1335" d="M145 0v1296h183l557 -721q51 -63 65 -110v831h240v-1296h-189l-555 721q-20 27 -36.5 55.5t-24.5 54.5v-831h-240z" />
<glyph unicode="O" horiz-adv-x="1282" d="M72 649q0 150 35.5 274t106.5 212t177.5 136t249.5 48t249.5 -48t177.5 -136t106.5 -212t35.5 -274q0 -152 -35.5 -274.5t-106.5 -210.5t-177.5 -136t-249.5 -48t-249.5 48t-177.5 136t-106.5 211t-35.5 274zM375 649q0 -240 71.5 -345t194.5 -105t194.5 105t71.5 345 t-71.5 345.5t-194.5 105.5t-194.5 -105.5t-71.5 -345.5z" />
<glyph unicode="P" horiz-adv-x="1216" d="M37 1096v200h530q129 0 231.5 -14t180.5 -57q86 -47 134 -133.5t48 -227.5q0 -268 -184 -375q-68 -41 -158 -58t-203 -17h-170v-414h-284v1096h-125zM446 608h132q70 0 124 11.5t90.5 39t56 76.5t19.5 123q0 66 -20.5 115t-65.5 78q-41 27 -87 36t-122 9h-127v-488z" />
<glyph unicode="Q" horiz-adv-x="1282" d="M72 649q0 150 35.5 274t106.5 212t177.5 136t249.5 48t249.5 -48t177.5 -136t106.5 -212t35.5 -274q0 -139 -29.5 -253.5t-89 -200.5t-149.5 -140.5t-211 -68.5q-4 -12 -6 -27.5t-2 -26.5q0 -47 27.5 -70.5t74.5 -23.5q53 0 110.5 20.5t129.5 61.5l-14 -176 q-63 -49 -146.5 -80t-175.5 -31q-117 0 -189.5 62.5t-72.5 181.5q0 29 8 61.5t19 55.5q-213 47 -317.5 220t-104.5 435zM375 649q0 -240 71.5 -345t194.5 -105t194.5 105t71.5 345t-71.5 345.5t-194.5 105.5t-194.5 -105.5t-71.5 -345.5z" />
<glyph unicode="R" horiz-adv-x="1292" d="M39 1096v200h569q135 0 228.5 -19.5t158.5 -59.5q166 -106 166 -324q0 -156 -68.5 -255t-191.5 -140l148 -252q20 -35 41.5 -49.5t52.5 -14.5q27 0 51.5 9.5t44.5 21.5l-16 -186q-29 -16 -75 -29.5t-93 -13.5q-53 0 -93 11t-72 33.5t-58.5 56.5t-53.5 79l-176 297h-153 v-461h-285v1096h-125zM449 643h178q129 0 184 58t55 173q0 113 -55 166q-35 31 -89 43.5t-136 12.5h-137v-453z" />
<glyph unicode="S" horiz-adv-x="1116" d="M123 926q0 180 126 286.5t365 106.5q88 0 179.5 -17.5t150.5 -37.5l-10 -217q-72 29 -149.5 46t-151.5 17q-117 0 -176.5 -40t-59.5 -109q0 -61 47.5 -96.5t119 -60t153.5 -50t153.5 -69.5t118.5 -116.5t47 -191.5q0 -104 -37.5 -179t-104.5 -123t-157 -71.5t-194 -23.5 t-211 21.5t-197 59.5l12 236q82 -47 188.5 -77t194.5 -30q98 0 164 37t66 115q0 66 -47 100.5t-118 60t-154 50.5t-153.5 68t-117.5 114.5t-47 190.5z" />
<glyph unicode="T" horiz-adv-x="1107" d="M41 1096v200h1026v-200h-371v-1096h-284v1096h-371z" />
<glyph unicode="U" horiz-adv-x="1300" d="M143 469v827h287v-815q0 -78 10.5 -126t36.5 -83q54 -71 173 -71h3q63 0 105.5 18.5t68.5 48.5q33 41 42.5 94.5t9.5 116.5v817h278v-817q0 -111 -20.5 -192.5t-71.5 -147.5q-124 -159 -414 -159h-4q-274 0 -399 137q-59 66 -82 146.5t-23 205.5z" />
<glyph unicode="V" horiz-adv-x="1173" d="M20 1296h302l245 -835q25 -80 25 -156h2q2 35 8 75t19 81l251 835h283l-426 -1296h-297z" />
<glyph unicode="W" horiz-adv-x="1751" d="M20 1296h285l246 -811q10 -33 19.5 -75.5t9.5 -73.5h2q2 33 10 76t16 69l172 541l-82 274h269l231 -807q10 -33 17.5 -75.5t7.5 -77.5h4q2 35 9 79t15 77l211 804h271l-390 -1296h-260l-194 657l-205 -657h-254z" />
<glyph unicode="X" horiz-adv-x="1236" d="M39 0l401 674l-385 622h322l254 -424l227 424h289l-383 -645l237 -393q25 -41 46.5 -57.5t54.5 -16.5q45 0 86 31l-12 -184q-27 -18 -73 -32.5t-93 -14.5q-90 0 -145.5 41t-106.5 127l-180 303l-244 -455h-295z" />
<glyph unicode="Y" horiz-adv-x="1202" d="M6 1296h318l247 -485q18 -37 32.5 -74t19.5 -69h2q4 33 15 65.5t32 73.5l239 489h279l-451 -850v-446h-284v451z" />
<glyph unicode="Z" horiz-adv-x="1105" d="M104 0v158l566 938h-543v200h885v-157l-566 -936h594l-18 -203h-918z" />
<glyph unicode="[" horiz-adv-x="653" d="M162 -379v1780h473v-191h-217v-1398h217v-191h-473z" />
<glyph unicode="\" horiz-adv-x="671" d="M6 1319h232l428 -1337h-232z" />
<glyph unicode="]" horiz-adv-x="653" d="M18 -188h218v1398h-218v191h474v-1780h-474v191z" />
<glyph unicode="^" horiz-adv-x="1095" d="M156 780l286 496q12 23 25.5 33t38.5 10h90q25 0 37 -10.5t26 -34.5l283 -494h-194l-197 355l-199 -355h-196z" />
<glyph unicode="_" horiz-adv-x="1024" d="M-10 -98h1044v-148h-1044v148z" />
<glyph unicode="`" d="M113 1278q0 37 25.5 60.5t76.5 23.5q76 0 150.5 -60.5t146.5 -148.5l-25 -74q-143 113 -262 113q-16 0 -37.5 -3t-37.5 -7q-14 18 -25.5 44.5t-11.5 51.5z" />
<glyph unicode="a" horiz-adv-x="1110" d="M86 311q0 166 106.5 251t282.5 85q53 0 107.5 -9t93.5 -24v27q0 49 -8.5 82t-30.5 59q-47 53 -166 54q-72 0 -148.5 -18.5t-148.5 -55.5v184q72 33 160 49.5t180 16.5q236 0 346 -105q47 -43 67.5 -105.5t20.5 -148.5v-424q0 -61 47 -61q18 0 43 8t37 19l-10 -156 q-31 -23 -79 -37t-103 -14q-63 0 -111.5 25.5t-64.5 78.5q-41 -53 -113 -81.5t-156 -28.5q-160 0 -256 85t-96 244zM360 324q0 -82 42 -124t114 -42q76 0 119 47q41 45 41 125v137q-23 10 -63 17.5t-78 7.5q-90 0 -132.5 -48.5t-42.5 -119.5z" />
<glyph unicode="b" horiz-adv-x="1132" d="M27 1208v193h391v-490q45 47 109.5 74t148.5 27q199 0 297 -133t98 -369q0 -123 -29.5 -222.5t-93.5 -166.5q-70 -76 -171 -107.5t-234 -31.5q-102 0 -209 17t-189 44v1165h-118zM418 180q16 -8 55 -14t64 -6q109 0 168 53q49 43 69.5 117t20.5 174q0 158 -48.5 232.5 t-146.5 74.5q-90 0 -137 -53q-25 -27 -35 -64t-10 -92v-422z" />
<glyph unicode="c" horiz-adv-x="995" d="M61 492q0 119 32 215t91.5 163.5t146.5 104.5t197 37q164 0 275 -82q53 -41 85 -100.5t48 -135.5l-248 -51q-18 86 -52 135t-106 49q-98 0 -145 -89t-47 -228q0 -170 62.5 -254t197.5 -84q78 0 159 26.5t146 69.5l-10 -192q-63 -41 -156.5 -67.5t-191.5 -26.5 q-229 0 -356.5 131t-127.5 379z" />
<glyph unicode="d" horiz-adv-x="1155" d="M61 453q0 125 37 228t106.5 177t170 114t227.5 40q57 0 115 -11v207h-119v193h391v-1172q0 -61 47 -61q18 0 43 8t37 19l-10 -154q-35 -23 -83 -38t-101 -15q-59 0 -108.5 24.5t-72.5 81.5q-45 -53 -114.5 -82.5t-155.5 -29.5q-193 0 -301.5 122.5t-108.5 348.5zM338 465 q0 -123 47 -205t154 -82q47 0 81.5 15.5t55.5 42.5q23 29 32 65.5t9 89.5v438q-37 10 -94 11q-137 0 -211 -97.5t-74 -277.5z" />
<glyph unicode="e" horiz-adv-x="1056" d="M61 492q0 123 34 219t96.5 163.5t148.5 102.5t190 35q100 0 184.5 -33t142.5 -92.5t91 -143.5t33 -188q0 -80 -26.5 -113.5t-96.5 -33.5h-516q14 -121 84 -179.5t184 -58.5q86 0 173 27.5t153 72.5l-10 -186q-72 -51 -171.5 -76.5t-199.5 -25.5q-119 0 -211 35.5 t-154.5 102t-95.5 161t-33 211.5zM338 563h362q19 1 19 21q0 117 -50.5 180t-138.5 63q-78 0 -132 -62.5t-60 -201.5z" />
<glyph unicode="f" horiz-adv-x="735" d="M18 801v192h156v90q0 84 15.5 144.5t58.5 107.5q84 90 266 90q53 0 115.5 -10t105.5 -26v-179q-35 12 -80 20.5t-86 8.5q-70 0 -96 -37q-27 -33 -27 -108v-101h242v-192h-242v-801h-272v801h-156z" />
<glyph unicode="g" horiz-adv-x="1128" d="M66 455q0 131 42 235.5t116.5 175t181 108.5t235.5 38q43 0 91 -4t95 -12.5t91.5 -19.5t80.5 -24v-915q0 -129 -21.5 -206t-72.5 -136q-57 -66 -150 -97.5t-216 -31.5q-100 0 -205 23.5t-176 62.5l16 201q72 -43 158 -68t168 -25q55 0 99 12.5t73 41.5q31 31 43 78 t12 118v84q-35 -41 -99.5 -69.5t-148.5 -28.5q-199 0 -306 120t-107 339zM342 473q0 -141 52 -214t151 -73q88 0 137 56q25 27 35 64.5t10 84.5v426q-39 14 -92 14q-137 0 -215 -96t-78 -262z" />
<glyph unicode="h" horiz-adv-x="1150" d="M141 0v1401h273v-481q41 41 105.5 66.5t150.5 25.5q180 0 272 -97q47 -51 66.5 -115.5t19.5 -150.5v-649h-272v606q0 49 -6.5 83t-26.5 63q-43 55 -129 55q-49 0 -83 -17.5t-56 -46.5q-25 -33 -33 -74.5t-8 -99.5v-569h-273z" />
<glyph unicode="i" d="M49 801v192h391v-764q0 -61 49 -61q18 0 42 8t36 19l-8 -156q-29 -20 -77 -35.5t-103 -15.5q-123 0 -174 69q-20 29 -28.5 70t-8.5 90v584h-119zM145 1264q0 63 44 107t108 44q63 0 106 -44t43 -107t-42 -107.5t-105 -44.5t-108.5 44t-45.5 108z" />
<glyph unicode="j" horiz-adv-x="612" d="M-72 -387l11 188q66 -28 140 -28h5q70 0 96.5 37.5t26.5 132.5v858h-125v192h397v-1009q0 -100 -11 -171t-52 -124q-84 -109 -283 -109q-51 0 -105.5 8.5t-99.5 24.5zM184 1264q0 63 44 107t108 44q63 0 106 -44t43 -107t-42 -107.5t-105 -44.5t-108.5 44t-45.5 108z" />
<glyph unicode="k" horiz-adv-x="1118" d="M27 1208v193h391v-758h108l203 350h270l-258 -442l197 -326q18 -31 35.5 -44t46.5 -13q43 0 80 27l-8 -162q-27 -20 -70 -32.5t-90 -12.5q-86 0 -137.5 34.5t-96.5 110.5l-184 309h-96v-442h-273v1208h-118z" />
<glyph unicode="l" d="M29 1208v193h391v-1172q0 -61 49 -61q18 0 42 8t36 19l-8 -156q-29 -20 -77 -35.5t-104 -15.5q-123 0 -174 69q-20 29 -28.5 70t-8.5 90v991h-118z" />
<glyph unicode="m" horiz-adv-x="1755" d="M37 801v192h280l50 -127q43 63 121.5 104.5t191.5 41.5q96 0 174 -31t125 -104q45 57 121 96t182 39q100 0 176 -33t117 -92q29 -41 43 -97.5t14 -142.5v-647h-272v606q0 47 -4 82t-27 64q-43 55 -125 55q-43 0 -76.5 -16.5t-56.5 -45.5q-23 -31 -32 -71.5t-9 -100.5 v-573h-272v606q0 47 -4 82t-27 64q-43 55 -125 55q-43 0 -76.5 -16.5t-56.5 -45.5q-23 -31 -32 -71.5t-9 -100.5v-573h-272v801h-119z" />
<glyph unicode="n" horiz-adv-x="1165" d="M37 801v192h280l50 -127q49 66 128.5 106t188.5 40q180 0 272 -97q47 -51 66.5 -115.5t19.5 -150.5v-649h-272v606q0 49 -6 83t-27 63q-43 55 -129 55q-49 0 -82.5 -17.5t-56.5 -46.5q-25 -33 -33 -74.5t-8 -99.5v-569h-272v801h-119z" />
<glyph unicode="o" horiz-adv-x="1089" d="M61 496q0 242 124 379t360 137t359.5 -137t123.5 -379t-124 -378t-359 -136q-236 0 -360 136t-124 378zM338 496q0 -90 14.5 -152.5t41 -101.5t65.5 -56.5t86 -17.5t86 17.5t65.5 56.5t41 101.5t14.5 152.5t-14.5 153.5t-41 102.5t-65.5 56t-86 17q-96 0 -151.5 -74.5 t-55.5 -254.5z" />
<glyph unicode="p" horiz-adv-x="1144" d="M37 801v192h285l53 -129q49 72 128 110t177 38q104 0 180 -36t126 -101.5t73.5 -158.5t23.5 -206q0 -135 -36.5 -244.5t-120.5 -179.5q-127 -104 -340 -104q-41 0 -85 4t-73 10v-404h-272v1209h-119zM428 174q66 -16 133 -16q72 0 119 23.5t75.5 68.5t40 108.5 t11.5 143.5q0 154 -47 231.5t-152 77.5q-45 0 -82 -16.5t-59 -51.5q-23 -31 -31 -71.5t-8 -98.5v-399z" />
<glyph unicode="q" horiz-adv-x="1120" d="M61 444q0 129 37 233.5t107.5 179.5t175 115t237.5 40q96 0 199 -17.5t176 -40.5v-1044q0 -51 2 -90t8.5 -71t16.5 -61.5t27 -60.5l-263 -53q-29 45 -46 108.5t-17 159.5v244q-35 -43 -102.5 -73.5t-153.5 -30.5q-193 0 -298.5 125.5t-105.5 336.5zM338 469 q0 -61 11 -114.5t35 -92.5t61.5 -61.5t91.5 -22.5q88 0 135 53q49 51 49 148v436q-18 6 -47 10t-60 4q-135 0 -205.5 -97t-70.5 -263z" />
<glyph unicode="r" horiz-adv-x="747" d="M37 801v192h285l49 -139q37 74 107.5 116t156.5 42q35 0 63 -6v-215q-16 4 -38.5 5t-41.5 1q-94 0 -141 -56q-29 -35 -39 -82t-10 -112v-547h-272v801h-119z" />
<glyph unicode="s" horiz-adv-x="937" d="M102 698q0 74 30 132.5t84 98.5t130 61.5t166 21.5q72 0 148.5 -11.5t130.5 -31.5v-193q-53 23 -120 37t-141 14q-78 0 -127 -26.5t-49 -75.5q0 -39 38 -61.5t95.5 -41t124 -38t124 -53t95 -90t37.5 -146.5q0 -78 -30.5 -137.5t-85 -98.5t-127 -58t-158.5 -19 q-94 0 -189.5 16t-171.5 51l17 205q66 -39 158 -62.5t168 -23.5q80 0 123.5 24.5t43.5 73.5q0 43 -37.5 66.5t-95 41t-124 36t-124 52.5t-95.5 89t-38 147z" />
<glyph unicode="t" horiz-adv-x="792" d="M27 801v192h155v246l273 68v-314h229v-192h-229v-479q0 -72 22.5 -109t85.5 -37q43 0 88 15.5t80 37.5l-6 -182q-43 -29 -110.5 -47t-137.5 -18q-72 0 -131 21.5t-94 57.5q-39 41 -54.5 99.5t-15.5 156.5v484h-155z" />
<glyph unicode="u" horiz-adv-x="1175" d="M123 344v649h272v-606q0 -49 6.5 -83t26.5 -62q43 -55 129 -56q49 0 83 17.5t56 46.5q25 33 33 75t8 99v569h273v-764q0 -61 49 -61q18 0 41.5 8t36.5 19l-11 -154q-35 -23 -82 -38t-100 -15q-59 0 -107.5 24.5t-68.5 77.5q-49 -51 -122 -79.5t-165 -28.5q-180 0 -272 96 q-47 51 -66.5 115.5t-19.5 150.5z" />
<glyph unicode="v" horiz-adv-x="993" d="M10 993h275l174 -553q12 -41 23.5 -86t15.5 -88q4 43 15 89t26 85l192 553h252l-375 -993h-248z" />
<glyph unicode="w" horiz-adv-x="1431" d="M10 993h269l167 -522q16 -47 25.5 -88t13.5 -82q6 76 39 172l105 315l-66 205h248l154 -518q14 -47 23 -91t11 -87q4 41 13.5 86t23.5 92l156 518h229l-327 -993h-213l-158 492l-162 -492h-207z" />
<glyph unicode="x" horiz-adv-x="989" d="M20 0l320 518l-307 475h282l201 -311l180 311h242l-301 -493l176 -277q16 -27 35.5 -40t48.5 -13q23 0 46.5 8t35.5 17l-8 -162q-27 -18 -67 -31.5t-85 -13.5q-72 0 -125 32.5t-110 122.5l-119 189l-197 -332h-248z" />
<glyph unicode="y" horiz-adv-x="1140" d="M123 344v649h272v-606q0 -49 6.5 -83t26.5 -62q43 -55 129 -56q49 0 83 17.5t56 46.5q25 33 33 75t8 99v569h273v-956q0 -129 -21.5 -206t-73.5 -136q-57 -66 -150 -97.5t-216 -31.5q-100 0 -204.5 23.5t-176.5 62.5l16 201q72 -43 158 -68t168 -25q55 0 99 12.5t73 41.5 q31 31 43 78t12 118v56q-47 -37 -112.5 -60.5t-143.5 -23.5q-180 0 -272 96q-47 51 -66.5 115.5t-19.5 150.5z" />
<glyph unicode="z" horiz-adv-x="929" d="M88 0v147l444 654h-434v192h740v-149l-443 -651h475l-14 -193h-768z" />
<glyph unicode="{" horiz-adv-x="700" d="M68 440v103l28 2q86 6 124 46t38 138q0 41 -3 100.5t-7 122t-7 122t-3 97.5q0 121 75.5 175.5t237.5 54.5h100v-139h-57q-117 0 -117 -105q0 -33 7.5 -82t14.5 -104.5t14 -112.5t7 -108q0 -104 -48 -174t-155 -84q106 -14 154.5 -84t48.5 -175q0 -51 -7 -109t-14 -113.5 t-14.5 -103.5t-7.5 -81q0 -104 117 -105h57v-139h-100q-170 0 -241.5 58.5t-71.5 171.5q0 39 3 97t7 121.5t7 123t3 100.5q0 98 -38 138t-124 46z" />
<glyph unicode="|" horiz-adv-x="495" d="M150 -512v2048h196v-2048h-196z" />
<glyph unicode="}" horiz-adv-x="700" d="M49 -279h57q117 0 117 105q0 33 -7 81t-14 103.5t-14.5 113.5t-7.5 109q0 104 48 174t155 85q-106 14 -154.5 83.5t-48.5 174.5q0 51 7.5 108t14.5 112.5t14 104.5t7 82q0 104 -117 105h-57v139h101q162 0 237.5 -54.5t75.5 -175.5q0 -39 -3 -98t-7 -121.5t-7.5 -122 t-3.5 -100.5q0 -98 38 -138t124 -46l29 -2v-103l-29 -2q-86 -6 -124 -46t-38 -138q0 -41 3.5 -100.5t7.5 -123t7 -122t3 -96.5q0 -113 -72 -171.5t-241 -58.5h-101v139z" />
<glyph unicode="~" horiz-adv-x="1095" d="M41 414q61 141 139 211.5t187 70.5q59 0 109 -22.5t94 -49t87 -49t88 -22.5q59 0 108.5 37t102.5 102l101 -84q-59 -133 -136 -207.5t-192 -74.5q-59 0 -107.5 22.5t-93.5 49t-87 49t-89 22.5q-59 0 -108 -36t-103 -101z" />
<glyph unicode="&#xa1;" horiz-adv-x="593" d="M152 -188q0 6 1 11t1 11l92 762h102l92 -762q0 -6 1 -11t1 -11q0 -66 -42 -101t-103 -35t-103 35t-42 101zM158 872q0 57 41 98.5t98 41.5t97 -41t40 -99q0 -57 -40 -97t-97 -40t-98 40t-41 97z" />
<glyph unicode="&#xa2;" horiz-adv-x="1142" d="M133 492q0 221 104.5 357t297.5 159v206h133v-206q121 -12 209 -78q53 -41 84.5 -100.5t48.5 -135.5l-248 -51q-14 66 -34.5 109t-59.5 61v-641h4q78 0 158.5 26.5t146.5 69.5l-10 -192q-55 -35 -134 -60.5t-165 -31.5v-205h-133v207q-193 23 -297.5 152.5t-104.5 353.5z M412 510q0 -236 123 -305v608q-61 -29 -92 -110.5t-31 -192.5z" />
<glyph unicode="&#xa3;" horiz-adv-x="1142" d="M84 575v142h139q-20 53 -34.5 108.5t-14.5 116.5q0 86 31 155.5t87 119t134 76t172 26.5q205 0 313.5 -91t149.5 -257l-258 -43q-18 78 -61.5 126t-120.5 48q-78 0 -118 -43t-40 -107q0 -59 22.5 -117.5t49.5 -117.5h311v-142h-258q10 -29 16 -58.5t6 -63.5 q0 -84 -30.5 -139.5t-98.5 -110.5h590l-18 -203h-887v147q74 57 117 113.5t43 145.5q0 41 -12.5 83.5t-30.5 85.5h-199z" />
<glyph unicode="&#xa4;" horiz-adv-x="1142" d="M104 184l156 254q-49 86 -49 209t49 209l-156 254h211l70 -131q78 41 184 41t185 -41l69 131h211l-155 -254q49 -86 49 -209t-49 -209l155 -254h-211l-69 131q-78 -41 -185 -41q-106 0 -184 41l-70 -131h-211zM426 647q0 -117 42 -163t101 -46t101.5 46t42.5 163t-42 163 t-102 46q-59 0 -101 -46t-42 -163z" />
<glyph unicode="&#xa5;" horiz-adv-x="1142" d="M-23 1296h320l248 -485q18 -37 32.5 -77t18.5 -72h2q4 35 16.5 69.5t32.5 75.5l242 489h278l-387 -729h199v-147h-262v-90h262v-148h-262v-182h-287v182h-262v148h262v90h-262v147h199z" />
<glyph unicode="&#xa6;" horiz-adv-x="495" d="M150 266h196v-778h-196v778zM150 758v778h196v-778h-196z" />
<glyph unicode="&#xa7;" horiz-adv-x="1142" d="M188 371q0 104 51.5 185t143.5 128q-39 23 -75 49.5t-62.5 61t-42 79t-15.5 101.5q0 80 31 143.5t85 108.5t129 68.5t163 23.5q82 0 164 -15.5t141 -37.5l-14 -183q-55 23 -127 37.5t-139 14.5q-84 0 -132.5 -34t-48.5 -91q0 -45 38 -77t95.5 -59.5t124 -58.5t124 -74 t95 -104.5t37.5 -151.5q0 -104 -50 -185t-142 -128q39 -23 73.5 -49.5t61.5 -61t42 -79t15 -101.5q0 -80 -30.5 -143.5t-85 -108.5t-129 -68.5t-162.5 -23.5q-82 0 -163 15.5t-140 37.5l14 185q55 -23 127 -38.5t139 -15.5q84 0 132.5 34t48.5 91q0 45 -38 75t-95.5 57.5 t-125 57.5t-125 74t-95.5 106.5t-38 154.5zM430 418q0 -57 44 -93t110 -67q68 29 98.5 75t30.5 105q0 57 -44 93t-110 67q-68 -29 -98.5 -75t-30.5 -105z" />
<glyph unicode="&#xa8;" d="M20 1253q0 51 35 86t86 35t85 -35t34 -86t-33.5 -84.5t-85.5 -33.5q-51 0 -86 33.5t-35 84.5zM369 1253q0 51 33.5 86t84.5 35t86 -35t35 -86t-34.5 -84.5t-86.5 -33.5q-51 0 -84.5 33.5t-33.5 84.5z" />
<glyph unicode="&#xa9;" horiz-adv-x="1546" d="M84 649q0 141 49 263t139 213.5t217 142.5t285 51t285 -51t217 -142.5t138 -213.5t48 -263t-48 -263t-138 -213t-217 -142t-285 -51t-285 51t-217 142t-139 213t-49 263zM242 649q0 -125 38.5 -225t108.5 -170t168 -106.5t217 -36.5t217.5 36.5t168 106.5t108.5 170 t39 225t-39 225.5t-108.5 170t-168 106.5t-217.5 37t-217 -37t-168 -106.5t-108.5 -170t-38.5 -225.5zM473 653q0 154 77 252.5t230 98.5q106 0 173 -52.5t85 -152.5l-170 -33q-12 53 -32.5 78.5t-59.5 25.5q-61 0 -91 -58t-30 -150q0 -102 36 -168t126 -66q57 0 109.5 22.5 t99.5 53.5l-10 -142q-37 -29 -99.5 -47t-128.5 -18q-86 0 -145 27.5t-97 76t-55.5 114t-17.5 138.5z" />
<glyph unicode="&#xaa;" horiz-adv-x="778" d="M106 897q0 100 65 151.5t169 51.5q33 0 65.5 -6.5t55.5 -14.5v17q0 29 -4 48t-19 36q-29 33 -100 32q-43 0 -90 -11t-88 -34v111q41 18 93 29.5t109 11.5q139 0 209 -64q53 -51 54 -153v-254q0 -37 28 -37q12 0 27.5 6t26.5 14l-7 -94q-20 -14 -48.5 -23t-63.5 -9 q-39 0 -67.5 16t-39.5 47q-23 -33 -67.5 -50.5t-96.5 -17.5q-96 0 -153.5 50.5t-57.5 146.5zM272 907q0 -47 26 -74.5t67 -27.5q23 0 41 8t30 21q25 25 25 75v84q-14 4 -38 8.5t-46 4.5q-55 0 -80 -28t-25 -71z" />
<glyph unicode="&#xab;" horiz-adv-x="1071" d="M143 496q0 18 8.5 30.5t18.5 24.5l315 328l52 -152l-179 -231l179 -232l-52 -151l-315 327q-27 27 -27 56zM510 496q0 18 8 30.5t19 24.5l315 328l51 -152l-178 -231l178 -232l-51 -151l-315 327q-27 27 -27 56z" />
<glyph unicode="&#xac;" horiz-adv-x="1095" d="M180 774v191h738v-588h-191v397h-547z" />
<glyph unicode="&#xad;" horiz-adv-x="782" d="M125 395v203h534v-203h-534z" />
<glyph unicode="&#xae;" horiz-adv-x="1546" d="M84 649q0 141 49 263t139 213.5t217 142.5t285 51t285 -51t217 -142.5t138 -213.5t48 -263t-48 -263t-138 -213t-217 -142t-285 -51t-285 51t-217 142t-139 213t-49 263zM242 649q0 -125 38.5 -225t108.5 -170t168 -106.5t217 -36.5t217.5 36.5t168 106.5t108.5 170 t39 225t-39 225.5t-108.5 170t-168 106.5t-217.5 37t-217 -37t-168 -106.5t-108.5 -170t-38.5 -225.5zM455 864v127h313q129 0 199 -41q98 -53 98 -180q0 -78 -36 -130t-97 -77l65 -108q12 -23 22.5 -28t24.5 -5q33 0 64 20l-12 -120q-18 -10 -45 -18.5t-52 -8.5 q-61 0 -94 26.5t-65 77.5l-86 140h-62v-236h-172v561h-65zM692 655h82q63 0 88 27t25 80t-23 74q-29 29 -110 28h-62v-209z" />
<glyph unicode="&#xaf;" d="M76 1212v131h479v-131h-479z" />
<glyph unicode="&#xb0;" horiz-adv-x="933" d="M125 971q0 80 26.5 144.5t72.5 109.5t108.5 69.5t134.5 24.5t135.5 -24.5t109.5 -69.5t72.5 -109.5t26.5 -144.5t-26.5 -144.5t-72.5 -109.5t-109.5 -69.5t-135.5 -24.5t-134.5 24.5t-108.5 69.5t-72.5 109.5t-26.5 144.5zM287 971q0 -88 44 -151.5t136 -63.5t137 63.5 t45 151.5t-45 150.5t-137 62.5t-136 -62.5t-44 -150.5z" />
<glyph unicode="&#xb1;" horiz-adv-x="1095" d="M180 0v190h738v-190h-738zM180 563v189h273v266h194v-266h271v-189h-271v-266h-194v266h-273z" />
<glyph unicode="&#xb2;" horiz-adv-x="792" d="M129 1104q33 113 106.5 164t190.5 51q55 0 104.5 -14.5t85 -43t57 -72.5t21.5 -104q0 -57 -22.5 -101t-57 -78t-76.5 -62.5t-81 -56t-71 -59.5t-44 -73h358l-14 -145h-547v49q0 86 27 146.5t66.5 104.5t86 77t86 61.5t66.5 59t27 71.5t-22.5 64.5t-67.5 23.5 q-78 0 -109 -102z" />
<glyph unicode="&#xb3;" horiz-adv-x="792" d="M119 1112q29 106 102.5 156.5t177.5 50.5q135 0 201 -60.5t66 -150.5q0 -111 -84 -160q63 -27 90.5 -73.5t27.5 -112.5q0 -119 -81.5 -186.5t-229.5 -67.5q-66 0 -129 14.5t-121 38.5l11 158q53 -29 109 -47.5t110 -18.5q72 0 103.5 29t31.5 80q0 53 -43 74.5t-121 21.5 v127q66 4 100.5 27.5t34.5 77.5q0 37 -21.5 58t-60.5 21q-41 0 -65.5 -20.5t-42.5 -73.5z" />
<glyph unicode="&#xb4;" d="M119 1153q72 88 146.5 148.5t150.5 60.5q51 0 76.5 -23.5t25.5 -60.5q0 -25 -11 -51.5t-26 -44.5q-16 4 -36.5 7t-36.5 3q-119 0 -263 -113z" />
<glyph unicode="&#xb6;" horiz-adv-x="1046" d="M72 977q0 70 24.5 129t68.5 101t104.5 65.5t133.5 23.5h584v-153h-133v-1608h-168v1608h-129v-1608h-168v1124q-70 0 -128 25t-100 68t-65.5 100t-23.5 125z" />
<glyph unicode="&#xb7;" horiz-adv-x="499" d="M115 602q0 55 40 95t95 40t96 -40t41 -95t-41 -95t-96 -40t-95 40t-40 95z" />
<glyph unicode="&#xb8;" d="M156 -94q0 20 8 40.5t26 59.5l48 96l75 -47l-14 -28q-6 -10 -10 -23q-12 -25 -13 -43q0 -20 31 -31.5t69 -26t68.5 -38t30.5 -68.5q0 -74 -63.5 -121t-196.5 -45l-27 82q72 4 114 16.5t42 39.5q0 25 -29.5 38t-64.5 24t-64.5 27.5t-29.5 47.5z" />
<glyph unicode="&#xb9;" horiz-adv-x="792" d="M162 1180l235 139h123v-664h117v-135h-430v135h121v457l-95 -51z" />
<glyph unicode="&#xba;" horiz-adv-x="778" d="M102 1010q0 145 74 227t213 82t214 -82t75 -227t-75 -227.5t-214 -82.5t-213 82t-74 228zM266 1010q0 -98 29 -148.5t94 -50.5q66 0 95.5 50.5t29.5 148.5t-29.5 147t-95.5 49t-94.5 -49t-28.5 -147z" />
<glyph unicode="&#xbb;" horiz-adv-x="1071" d="M168 264l178 232l-178 231l51 152l316 -328q10 -12 18 -24.5t8 -30.5q0 -29 -26 -56l-316 -327zM535 264l178 232l-178 231l51 152l315 -328q10 -12 18.5 -24.5t8.5 -30.5q0 -29 -27 -56l-315 -327z" />
<glyph unicode="&#xbc;" horiz-adv-x="1740" d="M150 1180l235 139h123v-664h117v-135h-430v135h120v457l-94 -51zM545 -18l430 1337h196l-430 -1337h-196zM950 242l293 565l158 -82l-223 -432h133v119h182v-119h106v-143h-106v-150h-182v150h-338z" />
<glyph unicode="&#xbd;" horiz-adv-x="1740" d="M137 1180l236 139h123v-664h116v-135h-430v135h121v457l-94 -51zM532 -18l431 1337h196l-430 -1337h-197zM1016 594q33 113 106.5 164t190.5 51q55 0 104 -14.5t85 -43t57.5 -72.5t21.5 -104q0 -72 -30.5 -118.5t-77 -84.5t-97.5 -71t-92 -72q-39 -37 -55 -84h358 l-14 -145h-549v51q0 68 16.5 119t44 90t61.5 69.5t68 55.5q33 23 64 45.5t57 46.5q23 23 35 44.5t12 49.5q0 41 -21.5 63.5t-66.5 22.5q-80 0 -110 -100z" />
<glyph unicode="&#xbe;" horiz-adv-x="1740" d="M139 1112q29 106 102.5 156.5t178.5 50.5q135 0 200.5 -60.5t65.5 -150.5q0 -111 -84 -160q63 -27 91 -73.5t28 -112.5q0 -119 -82 -186.5t-229 -67.5q-66 0 -129.5 14.5t-120.5 38.5l10 158q53 -29 109.5 -47.5t109.5 -18.5q72 0 103.5 29t31.5 80q0 53 -43 74.5 t-121 21.5v127q66 4 101 27.5t35 77.5q0 37 -21.5 58t-60.5 21q-41 0 -65.5 -20.5t-43.5 -73.5zM592 -18l430 1337h197l-431 -1337h-196zM1008 242l292 565l158 -82l-223 -432h133v119h182v-119h107v-143h-107v-150h-182v150h-338z" />
<glyph unicode="&#xbf;" horiz-adv-x="1026" d="M115 41q0 147 77.5 243.5t237.5 127.5l43 8l25 176h125l22 -291l-82 -14q-178 -31 -178 -219q0 -78 41 -129.5t123 -51.5q70 0 113 40t65 118l236 -47q-33 -156 -145.5 -241t-287.5 -85q-94 0 -170.5 26t-131 73t-84 114.5t-29.5 151.5zM420 872q0 57 41 98.5t98 41.5 t97 -41t40 -99q0 -57 -40 -97t-97 -40t-98 40t-41 97z" />
<glyph unicode="&#xc0;" horiz-adv-x="1269" d="M41 0l358 1096h-120v200h505l467 -1296h-295l-88 262h-467l-79 -262h-281zM395 1595q0 37 25.5 60.5t77.5 23.5q76 0 150.5 -60t146.5 -149l-25 -73q-143 113 -262 112q-16 0 -37.5 -3t-38.5 -7q-14 18 -25.5 45t-11.5 51zM459 455h344l-141 422q-14 41 -24.5 82.5 t-14.5 76.5h-2q-2 -31 -11.5 -73.5t-21.5 -83.5z" />
<glyph unicode="&#xc1;" horiz-adv-x="1269" d="M41 0l358 1096h-120v200h505l467 -1296h-295l-88 262h-467l-79 -262h-281zM391 1470q72 88 146.5 148.5t150.5 60.5q51 0 77 -23.5t26 -60.5q0 -25 -11.5 -51t-25.5 -45q-16 4 -37 7t-37 3q-119 0 -262 -112zM459 455h344l-141 422q-14 41 -24.5 82.5t-14.5 76.5h-2 q-2 -31 -11.5 -73.5t-21.5 -83.5z" />
<glyph unicode="&#xc2;" horiz-adv-x="1269" d="M41 0l358 1096h-120v200h505l467 -1296h-295l-88 262h-467l-79 -262h-281zM330 1444l172 223q16 23 30.5 32t42.5 9h52q27 0 41 -9t32 -34l170 -221h-161l-109 143l-111 -143h-159zM459 455h344l-141 422q-14 41 -24.5 82.5t-14.5 76.5h-2q-2 -31 -11.5 -73.5 t-21.5 -83.5z" />
<glyph unicode="&#xc3;" horiz-adv-x="1269" d="M41 0l358 1096h-120v200h505l467 -1296h-295l-88 262h-467l-79 -262h-281zM340 1450q0 43 6 81t22.5 67.5t46 47t79.5 17.5q31 0 57.5 -11.5t50 -25.5t46 -25.5t46.5 -11.5q16 0 35 16.5t27 57.5h84q0 -43 -6.5 -81t-22.5 -67.5t-46 -47t-79 -17.5q-33 0 -59.5 11.5 t-50 25.5t-45 25.5t-46.5 11.5q-16 0 -35.5 -16.5t-27.5 -57.5h-82zM459 455h344l-141 422q-14 41 -24.5 82.5t-14.5 76.5h-2q-2 -31 -11.5 -73.5t-21.5 -83.5z" />
<glyph unicode="&#xc4;" horiz-adv-x="1269" d="M41 0l358 1096h-120v200h505l467 -1296h-295l-88 262h-467l-79 -262h-281zM299 1548q0 51 35 86t86 35t85 -35t34 -86t-34 -84.5t-85 -33.5t-86 33.5t-35 84.5zM459 455h344l-141 422q-14 41 -24.5 82.5t-14.5 76.5h-2q-2 -31 -11.5 -73.5t-21.5 -83.5zM647 1548 q0 51 34 86t85 35t86 -35t35 -86t-35 -84.5t-86 -33.5t-85 33.5t-34 84.5z" />
<glyph unicode="&#xc5;" horiz-adv-x="1269" d="M41 0l358 1096h-120v200h505l467 -1296h-295l-88 262h-467l-79 -262h-281zM428 1583q0 80 54.5 128t125.5 48q72 0 126 -48t54 -128t-54 -128t-126 -48t-126 48t-54 128zM459 455h344l-141 422q-14 41 -24.5 82.5t-14.5 76.5h-2q-2 -31 -11.5 -73.5t-21.5 -83.5z M535 1583q0 -35 19 -57.5t54 -22.5t54.5 22.5t19.5 57.5t-19.5 57.5t-54.5 22.5t-54 -22.5t-19 -57.5z" />
<glyph unicode="&#xc6;" horiz-adv-x="1851" d="M4 0l614 1096h-129v200h1229v-200h-555v-338h447v-197h-447v-358h602l-18 -203h-868v262h-437l-143 -262h-295zM543 455h336v643q-2 -10 -11.5 -33t-20.5 -47.5t-22.5 -48t-19.5 -37.5z" />
<glyph unicode="&#xc7;" horiz-adv-x="1183" d="M72 655q0 137 33.5 259t102 211t176.5 141.5t255 52.5q195 0 315.5 -99.5t149.5 -267.5l-289 -53q-20 94 -62 148.5t-124 54.5q-63 0 -111.5 -32t-80 -88t-47 -136t-15.5 -174q0 -109 18.5 -196t58.5 -148.5t103 -95t154 -33.5q96 0 197.5 35.5t176.5 82.5l-16 -223 q-68 -47 -180.5 -80.5t-237.5 -33.5h-2q-2 -6 -2 -19q0 -20 31 -31.5t68.5 -26t68.5 -38t31 -68.5q0 -74 -63.5 -121t-196.5 -45l-27 82q72 4 114 16.5t42 39.5q0 25 -30 38t-64.5 24t-64.5 27.5t-30 47.5q0 16 5.5 33.5t19.5 46.5q-127 16 -217 72.5t-148.5 145.5 t-85 203.5t-26.5 247.5z" />
<glyph unicode="&#xc8;" horiz-adv-x="1093" d="M145 0v1296h820v-200h-535v-338h434v-199h-434v-356h582l-19 -203h-848zM365 1595q0 37 25.5 60.5t76.5 23.5q76 0 150.5 -60t146.5 -149l-25 -73q-143 113 -262 112q-16 0 -37.5 -3t-38.5 -7q-14 18 -25 45t-11 51z" />
<glyph unicode="&#xc9;" horiz-adv-x="1093" d="M145 0v1296h820v-200h-535v-338h434v-199h-434v-356h582l-19 -203h-848zM371 1470q72 88 146.5 148.5t150.5 60.5q51 0 76.5 -23.5t25.5 -60.5q0 -25 -11 -51t-26 -45q-16 4 -36.5 7t-37.5 3q-119 0 -262 -112z" />
<glyph unicode="&#xca;" horiz-adv-x="1093" d="M145 0v1296h820v-200h-535v-338h434v-199h-434v-356h582l-19 -203h-848zM293 1444l172 223q16 23 30.5 32t43.5 9h51q27 0 41 -9t33 -34l170 -221h-162l-109 143l-110 -143h-160z" />
<glyph unicode="&#xcb;" horiz-adv-x="1093" d="M145 0v1296h820v-200h-535v-338h434v-199h-434v-356h582l-19 -203h-848zM262 1548q0 51 35 86t86 35t85 -35t34 -86t-34 -84.5t-85 -33.5t-86 33.5t-35 84.5zM610 1548q0 51 34 86t85 35t86 -35t35 -86t-35 -84.5t-86 -33.5t-85 33.5t-34 84.5z" />
<glyph unicode="&#xcc;" horiz-adv-x="784" d="M117 0v158h131v977h-131v161h551v-161h-136v-977h136v-158h-551zM193 1595q0 37 25.5 60.5t76.5 23.5q76 0 150.5 -60t146.5 -149l-25 -73q-143 113 -262 112q-16 0 -37.5 -3t-38.5 -7q-14 18 -25 45t-11 51z" />
<glyph unicode="&#xcd;" horiz-adv-x="784" d="M117 0v158h131v977h-131v161h551v-161h-136v-977h136v-158h-551zM193 1470q72 88 146.5 148.5t149.5 60.5q51 0 77 -23.5t26 -60.5q0 -25 -11.5 -51t-25.5 -45q-16 4 -36.5 7t-37.5 3q-119 0 -262 -112z" />
<glyph unicode="&#xce;" horiz-adv-x="784" d="M117 0v158h131v977h-131v161h551v-161h-136v-977h136v-158h-551zM121 1444l172 223q16 23 30.5 32t43.5 9h51q27 0 41 -9t33 -34l170 -221h-162l-109 143l-110 -143h-160z" />
<glyph unicode="&#xcf;" horiz-adv-x="784" d="M100 1548q0 51 35 86t86 35t85 -35t34 -86t-34 -84.5t-85 -33.5t-86 33.5t-35 84.5zM117 0v158h131v977h-131v161h551v-161h-136v-977h136v-158h-551zM449 1548q0 51 33.5 86t84.5 35t86 -35t35 -86t-35 -84.5t-86 -33.5t-84.5 33.5t-33.5 84.5z" />
<glyph unicode="&#xd0;" horiz-adv-x="1316" d="M-12 551v199h174v346h-125v200h512q158 0 275.5 -23.5t203.5 -80.5q111 -74 164 -207t53 -342q0 -242 -83 -381t-236 -203q-150 -59 -369 -59h-395v551h-174zM446 201h129q154 0 238 59q76 53 102.5 153.5t26.5 243.5t-28.5 234.5t-94.5 140.5q-47 35 -113.5 49.5 t-156.5 14.5h-103v-346h199v-199h-199v-350z" />
<glyph unicode="&#xd1;" horiz-adv-x="1335" d="M145 0v1296h183l557 -721q51 -63 65 -110v831h240v-1296h-189l-555 721q-20 27 -36.5 55.5t-24.5 54.5v-831h-240zM418 1450q0 43 6 81t22.5 67.5t46 47t78.5 17.5q31 0 57.5 -11.5t50 -25.5t46.5 -25.5t47 -11.5q16 0 34.5 16.5t27.5 57.5h84q0 -43 -6.5 -81t-23 -67.5 t-46 -47t-78.5 -17.5q-33 0 -59.5 11.5t-50 25.5t-45 25.5t-46.5 11.5q-16 0 -35.5 -16.5t-27.5 -57.5h-82z" />
<glyph unicode="&#xd2;" horiz-adv-x="1282" d="M72 649q0 150 35.5 274t106.5 212t177.5 136t249.5 48t249.5 -48t177.5 -136t106.5 -212t35.5 -274q0 -152 -35.5 -274.5t-106.5 -210.5t-177.5 -136t-249.5 -48t-249.5 48t-177.5 136t-106.5 211t-35.5 274zM375 649q0 -240 71.5 -345t194.5 -105t194.5 105t71.5 345 t-71.5 345.5t-194.5 105.5t-194.5 -105.5t-71.5 -345.5zM442 1595q0 37 26 60.5t77 23.5q76 0 150.5 -60t146.5 -149l-25 -73q-143 113 -262 112q-16 0 -37.5 -3t-38.5 -7q-14 18 -25.5 45t-11.5 51z" />
<glyph unicode="&#xd3;" horiz-adv-x="1282" d="M72 649q0 150 35.5 274t106.5 212t177.5 136t249.5 48t249.5 -48t177.5 -136t106.5 -212t35.5 -274q0 -152 -35.5 -274.5t-106.5 -210.5t-177.5 -136t-249.5 -48t-249.5 48t-177.5 136t-106.5 211t-35.5 274zM375 649q0 -240 71.5 -345t194.5 -105t194.5 105t71.5 345 t-71.5 345.5t-194.5 105.5t-194.5 -105.5t-71.5 -345.5zM442 1470q72 88 147 148.5t150 60.5q51 0 77 -23.5t26 -60.5q0 -25 -11.5 -51t-25.5 -45q-16 4 -36.5 7t-37.5 3q-119 0 -262 -112z" />
<glyph unicode="&#xd4;" horiz-adv-x="1282" d="M72 649q0 150 35.5 274t106.5 212t177.5 136t249.5 48t249.5 -48t177.5 -136t106.5 -212t35.5 -274q0 -152 -35.5 -274.5t-106.5 -210.5t-177.5 -136t-249.5 -48t-249.5 48t-177.5 136t-106.5 211t-35.5 274zM371 1444l172 223q16 23 30.5 32t42.5 9h52q27 0 41 -9 t32 -34l170 -221h-161l-109 143l-111 -143h-159zM375 649q0 -240 71.5 -345t194.5 -105t194.5 105t71.5 345t-71.5 345.5t-194.5 105.5t-194.5 -105.5t-71.5 -345.5z" />
<glyph unicode="&#xd5;" horiz-adv-x="1282" d="M72 649q0 150 35.5 274t106.5 212t177.5 136t249.5 48t249.5 -48t177.5 -136t106.5 -212t35.5 -274q0 -152 -35.5 -274.5t-106.5 -210.5t-177.5 -136t-249.5 -48t-249.5 48t-177.5 136t-106.5 211t-35.5 274zM375 649q0 -240 71.5 -345t194.5 -105t194.5 105t71.5 345 t-71.5 345.5t-194.5 105.5t-194.5 -105.5t-71.5 -345.5zM391 1450q0 43 6 81t22.5 67.5t46.5 47t79 17.5q31 0 57.5 -11.5t50 -25.5t46 -25.5t46.5 -11.5q16 0 35 16.5t27 57.5h84q0 -43 -6 -81t-22.5 -67.5t-46.5 -47t-79 -17.5q-33 0 -59.5 11.5t-50 25.5t-45 25.5 t-45.5 11.5q-16 0 -36 -16.5t-28 -57.5h-82z" />
<glyph unicode="&#xd6;" horiz-adv-x="1282" d="M72 649q0 150 35.5 274t106.5 212t177.5 136t249.5 48t249.5 -48t177.5 -136t106.5 -212t35.5 -274q0 -152 -35.5 -274.5t-106.5 -210.5t-177.5 -136t-249.5 -48t-249.5 48t-177.5 136t-106.5 211t-35.5 274zM348 1548q0 51 35 86t86 35t85 -35t34 -86t-34 -84.5 t-85 -33.5t-86 33.5t-35 84.5zM375 649q0 -240 71.5 -345t194.5 -105t194.5 105t71.5 345t-71.5 345.5t-194.5 105.5t-194.5 -105.5t-71.5 -345.5zM696 1548q0 51 34 86t85 35t86 -35t35 -86t-35 -84.5t-86 -33.5t-85 33.5t-34 84.5z" />
<glyph unicode="&#xd7;" horiz-adv-x="1095" d="M221 465l191 190l-187 189l137 139l189 -188l190 190l136 -133l-191 -193l186 -186l-137 -139l-188 188l-193 -192z" />
<glyph unicode="&#xd8;" horiz-adv-x="1282" d="M72 649q0 150 35.5 274t106.5 212t177.5 136t249.5 48q119 0 217 -35l72 154h160l-103 -224q113 -86 168 -230.5t55 -334.5q0 -152 -35.5 -274.5t-106.5 -210.5t-177.5 -136t-249.5 -48q-113 0 -205 30l-69 -151h-162l100 217q-117 86 -175 232.5t-58 340.5zM375 649 q0 -102 13 -178t38 -129l334 727q-53 31 -119 31q-123 0 -194.5 -105.5t-71.5 -345.5zM532 223q49 -25 109 -24q123 0 194.5 105t71.5 345q0 94 -11 167t-34 126z" />
<glyph unicode="&#xd9;" horiz-adv-x="1300" d="M143 469v827h287v-815q0 -78 10.5 -126t36.5 -83q55 -72 176 -71q63 0 105.5 18.5t68.5 48.5q33 41 42.5 94.5t9.5 116.5v817h278v-817q0 -111 -20.5 -192.5t-71.5 -147.5q-125 -160 -418 -159q-274 0 -399 137q-59 66 -82 146.5t-23 205.5zM451 1595q0 37 25.5 60.5 t76.5 23.5q76 0 150.5 -60t146.5 -149l-25 -73q-143 113 -262 112q-16 0 -37.5 -3t-38.5 -7q-14 18 -25 45t-11 51z" />
<glyph unicode="&#xda;" horiz-adv-x="1300" d="M143 469v827h287v-815q0 -78 10.5 -126t36.5 -83q55 -72 176 -71q63 0 105.5 18.5t68.5 48.5q33 41 42.5 94.5t9.5 116.5v817h278v-817q0 -111 -20.5 -192.5t-71.5 -147.5q-125 -160 -418 -159q-274 0 -399 137q-59 66 -82 146.5t-23 205.5zM459 1470q72 88 146.5 148.5 t150.5 60.5q51 0 76.5 -23.5t25.5 -60.5q0 -25 -11 -51t-26 -45q-16 4 -36.5 7t-36.5 3q-119 0 -263 -112z" />
<glyph unicode="&#xdb;" horiz-adv-x="1300" d="M143 469v827h287v-815q0 -78 10.5 -126t36.5 -83q55 -72 176 -71q63 0 105.5 18.5t68.5 48.5q33 41 42.5 94.5t9.5 116.5v817h278v-817q0 -111 -20.5 -192.5t-71.5 -147.5q-125 -160 -418 -159q-274 0 -399 137q-59 66 -82 146.5t-23 205.5zM379 1444l172 223 q16 23 30.5 32t43.5 9h51q27 0 41 -9t33 -34l170 -221h-162l-109 143l-110 -143h-160z" />
<glyph unicode="&#xdc;" horiz-adv-x="1300" d="M143 469v827h287v-815q0 -78 10.5 -126t36.5 -83q55 -72 176 -71q63 0 105.5 18.5t68.5 48.5q33 41 42.5 94.5t9.5 116.5v817h278v-817q0 -111 -20.5 -192.5t-71.5 -147.5q-125 -160 -418 -159q-274 0 -399 137q-59 66 -82 146.5t-23 205.5zM362 1548q0 51 35 86t86 35 t85 -35t34 -86t-33.5 -84.5t-85.5 -33.5q-51 0 -86 33.5t-35 84.5zM711 1548q0 51 33.5 86t84.5 35t86 -35t35 -86t-34.5 -84.5t-86.5 -33.5q-51 0 -84.5 33.5t-33.5 84.5z" />
<glyph unicode="&#xdd;" horiz-adv-x="1202" d="M6 1296h318l247 -485q18 -37 32.5 -74t19.5 -69h2q4 33 15 65.5t32 73.5l239 489h279l-451 -850v-446h-284v451zM422 1470q72 88 146.5 148.5t150.5 60.5q51 0 76.5 -23.5t25.5 -60.5q0 -25 -11 -51t-26 -45q-16 4 -36.5 7t-36.5 3q-119 0 -262 -112z" />
<glyph unicode="&#xde;" horiz-adv-x="1200" d="M145 0v1296h287v-223h158q129 0 221 -18.5t164 -61.5q82 -49 126 -133t44 -211q0 -135 -49 -224t-142 -138q-68 -37 -155.5 -53.5t-198.5 -16.5h-168v-217h-287zM432 399h115q74 0 130 9.5t95 36t58.5 74.5t19.5 126q0 145 -86 199q-37 23 -87 32t-118 9h-127v-486z" />
<glyph unicode="&#xdf;" horiz-adv-x="1349" d="M18 801v192h154v11q0 106 39 186t106.5 132t159.5 77.5t201 25.5q102 0 189 -25.5t150.5 -78.5t99.5 -133t36 -191q0 -41 -7 -95t-16 -85q-31 6 -83 10t-93 4q-92 0 -133 -27.5t-41 -74.5q0 -41 37 -62.5t92.5 -39t121 -37t120.5 -54t92 -92t37 -149.5 q0 -154 -106.5 -233.5t-290.5 -79.5q-94 0 -184.5 16t-163.5 49v209q72 -41 160.5 -64.5t164.5 -23.5q84 0 125 26.5t41 73.5q0 45 -37 69.5t-92 42t-120.5 36t-121 51.5t-92.5 87t-37 146q0 133 99.5 213t267.5 80q4 12 4 35q0 98 -53 154.5t-164 56.5q-59 0 -109.5 -19.5 t-78.5 -60.5q-27 -37 -37.5 -88t-10.5 -123v-948h-272v801h-154z" />
<glyph unicode="&#xe0;" horiz-adv-x="1110" d="M86 311q0 166 106.5 251t282.5 85q53 0 107.5 -9t93.5 -24v27q0 49 -8.5 82t-30.5 59q-47 53 -166 54q-72 0 -148.5 -18.5t-148.5 -55.5v184q72 33 160 49.5t180 16.5q236 0 346 -105q47 -43 67.5 -105.5t20.5 -148.5v-424q0 -61 47 -61q18 0 43 8t37 19l-10 -156 q-31 -23 -79 -37t-103 -14q-63 0 -111.5 25.5t-64.5 78.5q-41 -53 -113 -81.5t-156 -28.5q-160 0 -256 85t-96 244zM338 1278q0 37 25.5 60.5t76.5 23.5q76 0 151 -60.5t146 -148.5l-24 -74q-143 113 -262 113q-16 0 -38 -3t-38 -7q-14 18 -25.5 44.5t-11.5 51.5zM360 324 q0 -82 42 -124t114 -42q76 0 119 47q41 45 41 125v137q-23 10 -63 17.5t-78 7.5q-90 0 -132.5 -48.5t-42.5 -119.5z" />
<glyph unicode="&#xe1;" horiz-adv-x="1110" d="M86 311q0 166 106.5 251t282.5 85q53 0 107.5 -9t93.5 -24v27q0 49 -8.5 82t-30.5 59q-47 53 -166 54q-72 0 -148.5 -18.5t-148.5 -55.5v184q72 33 160 49.5t180 16.5q236 0 346 -105q47 -43 67.5 -105.5t20.5 -148.5v-424q0 -61 47 -61q18 0 43 8t37 19l-10 -156 q-31 -23 -79 -37t-103 -14q-63 0 -111.5 25.5t-64.5 78.5q-41 -53 -113 -81.5t-156 -28.5q-160 0 -256 85t-96 244zM324 1153q72 88 146.5 148.5t150.5 60.5q51 0 76.5 -23.5t25.5 -60.5q0 -25 -11.5 -51.5t-25.5 -44.5q-16 4 -36.5 7t-37.5 3q-119 0 -262 -113zM360 324 q0 -82 42 -124t114 -42q76 0 119 47q41 45 41 125v137q-23 10 -63 17.5t-78 7.5q-90 0 -132.5 -48.5t-42.5 -119.5z" />
<glyph unicode="&#xe2;" horiz-adv-x="1110" d="M86 311q0 166 106.5 251t282.5 85q53 0 107.5 -9t93.5 -24v27q0 49 -8.5 82t-30.5 59q-47 53 -166 54q-72 0 -148.5 -18.5t-148.5 -55.5v184q72 33 160 49.5t180 16.5q236 0 346 -105q47 -43 67.5 -105.5t20.5 -148.5v-424q0 -61 47 -61q18 0 43 8t37 19l-10 -156 q-31 -23 -79 -37t-103 -14q-63 0 -111.5 25.5t-64.5 78.5q-41 -53 -113 -81.5t-156 -28.5q-160 0 -256 85t-96 244zM281 1104l172 223q16 23 30.5 32t42.5 9h52q27 0 41 -9t32 -34l170 -221h-162l-108 143l-111 -143h-159zM360 324q0 -82 42 -124t114 -42q76 0 119 47 q41 45 41 125v137q-23 10 -63 17.5t-78 7.5q-90 0 -132.5 -48.5t-42.5 -119.5z" />
<glyph unicode="&#xe3;" horiz-adv-x="1110" d="M86 311q0 166 106.5 251t282.5 85q53 0 107.5 -9t93.5 -24v27q0 49 -8.5 82t-30.5 59q-47 53 -166 54q-72 0 -148.5 -18.5t-148.5 -55.5v184q72 33 160 49.5t180 16.5q236 0 346 -105q47 -43 67.5 -105.5t20.5 -148.5v-424q0 -61 47 -61q18 0 43 8t37 19l-10 -156 q-31 -23 -79 -37t-103 -14q-63 0 -111.5 25.5t-64.5 78.5q-41 -53 -113 -81.5t-156 -28.5q-160 0 -256 85t-96 244zM295 1133q0 43 6 80.5t22.5 67.5t46 47.5t79.5 17.5q31 0 57 -11.5t50 -26t46.5 -25.5t46.5 -11q16 0 34.5 16.5t27.5 57.5h84q0 -43 -6.5 -81t-22.5 -68 t-46 -47t-79 -17q-33 0 -59.5 11t-50 25.5t-45 25.5t-46.5 11q-16 0 -35.5 -16t-27.5 -57h-82zM360 324q0 -82 42 -124t114 -42q76 0 119 47q41 45 41 125v137q-23 10 -63 17.5t-78 7.5q-90 0 -132.5 -48.5t-42.5 -119.5z" />
<glyph unicode="&#xe4;" horiz-adv-x="1110" d="M86 311q0 166 106.5 251t282.5 85q53 0 107.5 -9t93.5 -24v27q0 49 -8.5 82t-30.5 59q-47 53 -166 54q-72 0 -148.5 -18.5t-148.5 -55.5v184q72 33 160 49.5t180 16.5q236 0 346 -105q47 -43 67.5 -105.5t20.5 -148.5v-424q0 -61 47 -61q18 0 43 8t37 19l-10 -156 q-31 -23 -79 -37t-103 -14q-63 0 -111.5 25.5t-64.5 78.5q-41 -53 -113 -81.5t-156 -28.5q-160 0 -256 85t-96 244zM248 1253q0 51 34.5 86t86.5 35q51 0 84.5 -35t33.5 -86t-33.5 -84.5t-84.5 -33.5t-86 33.5t-35 84.5zM360 324q0 -82 42 -124t114 -42q76 0 119 47 q41 45 41 125v137q-23 10 -63 17.5t-78 7.5q-90 0 -132.5 -48.5t-42.5 -119.5zM596 1253q0 51 34 86t85 35t86 -35t35 -86t-35 -84.5t-86 -33.5t-85 33.5t-34 84.5z" />
<glyph unicode="&#xe5;" horiz-adv-x="1110" d="M86 311q0 166 106.5 251t282.5 85q53 0 107.5 -9t93.5 -24v27q0 49 -8.5 82t-30.5 59q-47 53 -166 54q-72 0 -148.5 -18.5t-148.5 -55.5v184q72 33 160 49.5t180 16.5q236 0 346 -105q47 -43 67.5 -105.5t20.5 -148.5v-424q0 -61 47 -61q18 0 43 8t37 19l-10 -156 q-31 -23 -79 -37t-103 -14q-63 0 -111.5 25.5t-64.5 78.5q-41 -53 -113 -81.5t-156 -28.5q-160 0 -256 85t-96 244zM360 324q0 -82 42 -124t114 -42q76 0 119 47q41 45 41 125v137q-23 10 -63 17.5t-78 7.5q-90 0 -132.5 -48.5t-42.5 -119.5zM360 1276q0 80 54.5 128 t126.5 48t126 -48t54 -128t-54.5 -128t-125.5 -48q-72 0 -126.5 48t-54.5 128zM467 1276q0 -35 19.5 -57.5t54.5 -22.5t54 22.5t19 57.5t-19.5 57.5t-53.5 22.5q-35 0 -54.5 -22.5t-19.5 -57.5z" />
<glyph unicode="&#xe6;" horiz-adv-x="1669" d="M88 311q0 166 106.5 251t282.5 85q53 0 107.5 -9t93.5 -24v27q0 49 -8 82t-31 59q-47 53 -166 54q-72 0 -148.5 -18.5t-148.5 -55.5v184q72 33 160 49.5t180 16.5q221 0 336 -99q59 47 133 73t160 26q100 0 183 -33t142.5 -92.5t91 -143.5t31.5 -188q0 -80 -25.5 -113.5 t-97.5 -33.5h-514q14 -121 84 -179.5t185 -58.5q86 0 173 27.5t152 72.5l-10 -186q-72 -51 -171 -76.5t-200 -25.5q-246 0 -372 145q-51 -66 -147.5 -105.5t-209.5 -39.5q-160 0 -256 85t-96 244zM362 324q0 -82 42 -124t114 -42q76 0 119 47q41 45 41 125v137 q-20 8 -63.5 16.5t-77.5 8.5q-90 0 -132.5 -48.5t-42.5 -119.5zM952 563h359q20 1 20 21q0 117 -49 180t-137 63q-78 0 -132.5 -60t-60.5 -204z" />
<glyph unicode="&#xe7;" horiz-adv-x="995" d="M61 492q0 119 32 215t91.5 163.5t146.5 104.5t197 37q164 0 275 -82q53 -41 85 -100.5t48 -135.5l-248 -51q-18 86 -52 135t-106 49q-98 0 -145 -89t-47 -228q0 -170 62.5 -254t197.5 -84q78 0 159 26.5t146 69.5l-10 -192q-63 -41 -156.5 -67.5t-191.5 -26.5h-15 q-2 -6 -2 -21q0 -20 31 -31.5t69 -26t68.5 -38t30.5 -68.5q0 -74 -63.5 -121t-196.5 -45l-27 82q72 4 114 16.5t42 39.5q0 25 -29.5 38t-64.5 24t-64.5 27.5t-29.5 47.5q0 18 6 36.5t20 47.5q-180 29 -276.5 156.5t-96.5 345.5z" />
<glyph unicode="&#xe8;" horiz-adv-x="1056" d="M61 492q0 123 34 219t96.5 163.5t148.5 102.5t190 35q100 0 184.5 -33t142.5 -92.5t91 -143.5t33 -188q0 -80 -26.5 -113.5t-96.5 -33.5h-516q14 -121 84 -179.5t184 -58.5q86 0 173 27.5t153 72.5l-10 -186q-72 -51 -171.5 -76.5t-199.5 -25.5q-119 0 -211 35.5 t-154.5 102t-95.5 161t-33 211.5zM338 563h362q19 1 19 21q0 117 -50.5 180t-138.5 63q-78 0 -132 -62.5t-60 -201.5zM346 1278q0 37 25.5 60.5t77.5 23.5q76 0 150.5 -60.5t145.5 -148.5l-24 -74q-143 113 -262 113q-16 0 -38 -3t-38 -7q-14 18 -25.5 44.5t-11.5 51.5z" />
<glyph unicode="&#xe9;" horiz-adv-x="1056" d="M61 492q0 123 34 219t96.5 163.5t148.5 102.5t190 35q100 0 184.5 -33t142.5 -92.5t91 -143.5t33 -188q0 -80 -26.5 -113.5t-96.5 -33.5h-516q14 -121 84 -179.5t184 -58.5q86 0 173 27.5t153 72.5l-10 -186q-72 -51 -171.5 -76.5t-199.5 -25.5q-119 0 -211 35.5 t-154.5 102t-95.5 161t-33 211.5zM317 1153q72 88 147 148.5t150 60.5q51 0 77 -23.5t26 -60.5q0 -25 -11.5 -51.5t-25.5 -44.5q-16 4 -36.5 7t-37.5 3q-119 0 -262 -113zM338 563h362q19 1 19 21q0 117 -50.5 180t-138.5 63q-78 0 -132 -62.5t-60 -201.5z" />
<glyph unicode="&#xea;" horiz-adv-x="1056" d="M61 492q0 123 34 219t96.5 163.5t148.5 102.5t190 35q100 0 184.5 -33t142.5 -92.5t91 -143.5t33 -188q0 -80 -26.5 -113.5t-96.5 -33.5h-516q14 -121 84 -179.5t184 -58.5q86 0 173 27.5t153 72.5l-10 -186q-72 -51 -171.5 -76.5t-199.5 -25.5q-119 0 -211 35.5 t-154.5 102t-95.5 161t-33 211.5zM264 1104l172 223q16 23 30.5 32t43.5 9h51q27 0 41 -9t33 -34l170 -221h-162l-108 143l-111 -143h-160zM338 563h362q19 1 19 21q0 117 -50.5 180t-138.5 63q-78 0 -132 -62.5t-60 -201.5z" />
<glyph unicode="&#xeb;" horiz-adv-x="1056" d="M61 492q0 123 34 219t96.5 163.5t148.5 102.5t190 35q100 0 184.5 -33t142.5 -92.5t91 -143.5t33 -188q0 -80 -26.5 -113.5t-96.5 -33.5h-516q14 -121 84 -179.5t184 -58.5q86 0 173 27.5t153 72.5l-10 -186q-72 -51 -171.5 -76.5t-199.5 -25.5q-119 0 -211 35.5 t-154.5 102t-95.5 161t-33 211.5zM244 1253q0 51 34.5 86t86.5 35q51 0 84.5 -35t33.5 -86t-33.5 -84.5t-84.5 -33.5t-86 33.5t-35 84.5zM338 563h362q19 1 19 21q0 117 -50.5 180t-138.5 63q-78 0 -132 -62.5t-60 -201.5zM592 1253q0 51 33.5 86t85.5 35q51 0 85.5 -35 t34.5 -86t-34.5 -84.5t-85.5 -33.5t-85 33.5t-34 84.5z" />
<glyph unicode="&#xec;" d="M49 801v192h391v-764q0 -61 49 -61q18 0 42 8t36 19l-8 -156q-29 -20 -77 -35.5t-103 -15.5q-123 0 -174 69q-20 29 -28.5 70t-8.5 90v584h-119zM80 1278q0 37 25.5 60.5t76.5 23.5q76 0 151 -60.5t146 -148.5l-24 -74q-143 113 -262 113q-16 0 -38 -3t-38 -7 q-14 18 -25.5 44.5t-11.5 51.5z" />
<glyph unicode="&#xed;" d="M49 801v192h391v-764q0 -61 49 -61q18 0 42 8t36 19l-8 -156q-29 -20 -77 -35.5t-103 -15.5q-123 0 -174 69q-20 29 -28.5 70t-8.5 90v584h-119zM80 1153q72 88 146.5 148.5t150.5 60.5q51 0 76.5 -23.5t25.5 -60.5q0 -25 -11 -51.5t-26 -44.5q-16 4 -36.5 7t-36.5 3 q-119 0 -263 -113z" />
<glyph unicode="&#xee;" d="M18 1104l172 223q16 23 31 32t43 9h51q27 0 41.5 -9t32.5 -34l170 -221h-162l-108 143l-111 -143h-160zM49 801v192h391v-764q0 -61 49 -61q18 0 42 8t36 19l-8 -156q-29 -20 -77 -35.5t-103 -15.5q-123 0 -174 69q-20 29 -28.5 70t-8.5 90v584h-119z" />
<glyph unicode="&#xef;" d="M6 1253q0 51 35 86t86 35t85 -35t34 -86t-34 -84.5t-85 -33.5t-86 33.5t-35 84.5zM49 801v192h391v-764q0 -61 49 -61q18 0 42 8t36 19l-8 -156q-29 -20 -77 -35.5t-103 -15.5q-123 0 -174 69q-20 29 -28.5 70t-8.5 90v584h-119zM354 1253q0 51 34 86t85 35t86 -35 t35 -86t-35 -84.5t-86 -33.5t-85 33.5t-34 84.5z" />
<glyph unicode="&#xf0;" horiz-adv-x="1146" d="M100 449q0 106 31 187t86 135t133 82t172 28q68 0 135.5 -16.5t108.5 -39.5q-10 74 -37 142.5t-78 115.5l-47 -108l-102 41l53 125q-35 12 -83 18t-103 8l24 152q125 0 228 -25l55 129l104 -41l-53 -127q166 -76 251 -244.5t85 -428.5q0 -129 -28.5 -240t-89 -191.5 t-155 -125.5t-225.5 -45q-115 0 -202 35.5t-145 98t-88 148.5t-30 187zM369 446q0 -129 55 -199.5t145 -70.5q113 0 164 89.5t51 269.5q0 25 -1 61.5t-3 58.5q-37 23 -87 38.5t-103 15.5q-109 0 -165 -69t-56 -194z" />
<glyph unicode="&#xf1;" horiz-adv-x="1165" d="M37 801v192h280l50 -127q49 66 128.5 106t188.5 40q180 0 272 -97q47 -51 66.5 -115.5t19.5 -150.5v-649h-272v606q0 49 -6 83t-27 63q-43 55 -129 55q-49 0 -82.5 -17.5t-56.5 -46.5q-25 -33 -33 -74.5t-8 -99.5v-569h-272v801h-119zM340 1133q0 43 6 80.5t22.5 67.5 t46 47.5t79.5 17.5q31 0 57.5 -11.5t50 -26t46 -25.5t46.5 -11q16 0 35 16.5t27 57.5h84q0 -43 -6.5 -81t-22.5 -68t-46 -47t-79 -17q-33 0 -59.5 11t-50 25.5t-45 25.5t-46.5 11q-16 0 -35.5 -16t-27.5 -57h-82z" />
<glyph unicode="&#xf2;" horiz-adv-x="1089" d="M61 496q0 242 124 379t360 137t359.5 -137t123.5 -379t-124 -378t-359 -136q-236 0 -360 136t-124 378zM338 496q0 -90 14.5 -152.5t41 -101.5t65.5 -56.5t86 -17.5t86 17.5t65.5 56.5t41 101.5t14.5 152.5t-14.5 153.5t-41 102.5t-65.5 56t-86 17q-96 0 -151.5 -74.5 t-55.5 -254.5zM362 1278q0 37 26 60.5t77 23.5q76 0 150.5 -60.5t146.5 -148.5l-25 -74q-143 113 -262 113q-16 0 -37.5 -3t-38.5 -7q-14 18 -25.5 44.5t-11.5 51.5z" />
<glyph unicode="&#xf3;" horiz-adv-x="1089" d="M61 496q0 242 124 379t360 137t359.5 -137t123.5 -379t-124 -378t-359 -136q-236 0 -360 136t-124 378zM324 1153q72 88 146.5 148.5t150.5 60.5q51 0 76.5 -23.5t25.5 -60.5q0 -25 -11.5 -51.5t-25.5 -44.5q-16 4 -36.5 7t-37.5 3q-119 0 -262 -113zM338 496 q0 -90 14.5 -152.5t41 -101.5t65.5 -56.5t86 -17.5t86 17.5t65.5 56.5t41 101.5t14.5 152.5t-14.5 153.5t-41 102.5t-65.5 56t-86 17q-96 0 -151.5 -74.5t-55.5 -254.5z" />
<glyph unicode="&#xf4;" horiz-adv-x="1089" d="M61 496q0 242 124 379t360 137t359.5 -137t123.5 -379t-124 -378t-359 -136q-236 0 -360 136t-124 378zM274 1104l172 223q16 23 31 32t43 9h51q27 0 41.5 -9t32.5 -34l170 -221h-162l-108 143l-111 -143h-160zM338 496q0 -90 14.5 -152.5t41 -101.5t65.5 -56.5t86 -17.5 t86 17.5t65.5 56.5t41 101.5t14.5 152.5t-14.5 153.5t-41 102.5t-65.5 56t-86 17q-96 0 -151.5 -74.5t-55.5 -254.5z" />
<glyph unicode="&#xf5;" horiz-adv-x="1089" d="M61 496q0 242 124 379t360 137t359.5 -137t123.5 -379t-124 -378t-359 -136q-236 0 -360 136t-124 378zM295 1133q0 43 6 80.5t22.5 67.5t46 47.5t79.5 17.5q31 0 57 -11.5t50 -26t46.5 -25.5t46.5 -11q16 0 34.5 16.5t27.5 57.5h84q0 -43 -6.5 -81t-22.5 -68t-46 -47 t-79 -17q-33 0 -59.5 11t-50 25.5t-45 25.5t-46.5 11q-16 0 -35.5 -16t-27.5 -57h-82zM338 496q0 -90 14.5 -152.5t41 -101.5t65.5 -56.5t86 -17.5t86 17.5t65.5 56.5t41 101.5t14.5 152.5t-14.5 153.5t-41 102.5t-65.5 56t-86 17q-96 0 -151.5 -74.5t-55.5 -254.5z" />
<glyph unicode="&#xf6;" horiz-adv-x="1089" d="M61 496q0 242 124 379t360 137t359.5 -137t123.5 -379t-124 -378t-359 -136q-236 0 -360 136t-124 378zM252 1253q0 51 35 86t86 35t85 -35t34 -86t-34 -84.5t-85 -33.5t-86 33.5t-35 84.5zM338 496q0 -90 14.5 -152.5t41 -101.5t65.5 -56.5t86 -17.5t86 17.5t65.5 56.5 t41 101.5t14.5 152.5t-14.5 153.5t-41 102.5t-65.5 56t-86 17q-96 0 -151.5 -74.5t-55.5 -254.5zM600 1253q0 51 34 86t85 35t86 -35t35 -86t-35 -84.5t-86 -33.5t-85 33.5t-34 84.5z" />
<glyph unicode="&#xf7;" horiz-adv-x="1095" d="M180 563v189h738v-189h-738zM424 365q0 53 39 91t92 38t92 -38t39 -91t-39 -92.5t-92 -39.5t-92 39t-39 93zM424 950q0 53 39 91t92 38t92 -38t39 -91t-39 -91t-92 -38t-92 38t-39 91z" />
<glyph unicode="&#xf8;" horiz-adv-x="1093" d="M61 498q0 242 125 378t361 136q84 0 155 -19l60 131h137l-82 -178q104 -61 159.5 -174.5t55.5 -273.5q0 -242 -125 -379t-360 -137q-43 0 -83 5t-75 15l-65 -143h-138l86 190q-104 63 -157.5 177t-53.5 272zM340 498q0 -143 37 -219l244 532q-35 12 -74 12 q-98 0 -152.5 -74.5t-54.5 -250.5zM471 182q33 -12 76 -12q98 0 152.5 76t54.5 252q0 74 -10.5 129t-28.5 94z" />
<glyph unicode="&#xf9;" horiz-adv-x="1175" d="M123 344v649h272v-606q0 -49 6.5 -83t26.5 -62q43 -55 129 -56q49 0 83 17.5t56 46.5q25 33 33 75t8 99v569h273v-764q0 -61 49 -61q18 0 41.5 8t36.5 19l-11 -154q-35 -23 -82 -38t-100 -15q-59 0 -107.5 24.5t-68.5 77.5q-49 -51 -122 -79.5t-165 -28.5q-180 0 -272 96 q-47 51 -66.5 115.5t-19.5 150.5zM375 1278q0 37 25.5 60.5t76.5 23.5q76 0 150.5 -60.5t146.5 -148.5l-24 -74q-143 113 -263 113q-16 0 -37.5 -3t-37.5 -7q-14 18 -25.5 44.5t-11.5 51.5z" />
<glyph unicode="&#xfa;" horiz-adv-x="1175" d="M123 344v649h272v-606q0 -49 6.5 -83t26.5 -62q43 -55 129 -56q49 0 83 17.5t56 46.5q25 33 33 75t8 99v569h273v-764q0 -61 49 -61q18 0 41.5 8t36.5 19l-11 -154q-35 -23 -82 -38t-100 -15q-59 0 -107.5 24.5t-68.5 77.5q-49 -51 -122 -79.5t-165 -28.5q-180 0 -272 96 q-47 51 -66.5 115.5t-19.5 150.5zM375 1153q72 88 146.5 148.5t150.5 60.5q51 0 76.5 -23.5t25.5 -60.5q0 -25 -11 -51.5t-26 -44.5q-16 4 -36.5 7t-36.5 3q-119 0 -263 -113z" />
<glyph unicode="&#xfb;" horiz-adv-x="1175" d="M123 344v649h272v-606q0 -49 6.5 -83t26.5 -62q43 -55 129 -56q49 0 83 17.5t56 46.5q25 33 33 75t8 99v569h273v-764q0 -61 49 -61q18 0 41.5 8t36.5 19l-11 -154q-35 -23 -82 -38t-100 -15q-59 0 -107.5 24.5t-68.5 77.5q-49 -51 -122 -79.5t-165 -28.5q-180 0 -272 96 q-47 51 -66.5 115.5t-19.5 150.5zM301 1104l172 223q16 23 30.5 32t43.5 9h51q27 0 41 -9t33 -34l170 -221h-162l-109 143l-110 -143h-160z" />
<glyph unicode="&#xfc;" horiz-adv-x="1175" d="M123 344v649h272v-606q0 -49 6.5 -83t26.5 -62q43 -55 129 -56q49 0 83 17.5t56 46.5q25 33 33 75t8 99v569h273v-764q0 -61 49 -61q18 0 41.5 8t36.5 19l-11 -154q-35 -23 -82 -38t-100 -15q-59 0 -107.5 24.5t-68.5 77.5q-49 -51 -122 -79.5t-165 -28.5q-180 0 -272 96 q-47 51 -66.5 115.5t-19.5 150.5zM274 1253q0 51 35 86t86 35t85 -35t34 -86t-34 -84.5t-85 -33.5t-86 33.5t-35 84.5zM623 1253q0 51 33.5 86t84.5 35t86 -35t35 -86t-34.5 -84.5t-86.5 -33.5q-51 0 -84.5 33.5t-33.5 84.5z" />
<glyph unicode="&#xfd;" horiz-adv-x="1140" d="M123 344v649h272v-606q0 -49 6.5 -83t26.5 -62q43 -55 129 -56q49 0 83 17.5t56 46.5q25 33 33 75t8 99v569h273v-956q0 -129 -21.5 -206t-73.5 -136q-57 -66 -150 -97.5t-216 -31.5q-100 0 -204.5 23.5t-176.5 62.5l16 201q72 -43 158 -68t168 -25q55 0 99 12.5t73 41.5 q31 31 43 78t12 118v56q-47 -37 -112.5 -60.5t-143.5 -23.5q-180 0 -272 96q-47 51 -66.5 115.5t-19.5 150.5zM375 1153q72 88 146.5 148.5t150.5 60.5q51 0 76.5 -23.5t25.5 -60.5q0 -25 -11 -51.5t-26 -44.5q-16 4 -36.5 7t-36.5 3q-119 0 -263 -113z" />
<glyph unicode="&#xfe;" horiz-adv-x="1128" d="M141 -408v1809h273v-481q98 92 250 92q104 0 180 -37t126 -104.5t73.5 -161.5t23.5 -211q0 -115 -23.5 -210t-73.5 -163t-126 -105.5t-180 -37.5q-78 0 -140.5 24.5t-109.5 69.5v-484h-273zM414 422q0 -57 8 -99t31 -73q23 -35 59.5 -51.5t81.5 -16.5q104 0 151.5 81 t47.5 235t-47.5 233.5t-151.5 79.5q-45 0 -82 -16.5t-59 -51.5q-23 -31 -31 -71.5t-8 -98.5v-151z" />
<glyph unicode="&#xff;" horiz-adv-x="1140" d="M123 344v649h272v-606q0 -49 6.5 -83t26.5 -62q43 -55 129 -56q49 0 83 17.5t56 46.5q25 33 33 75t8 99v569h273v-956q0 -129 -21.5 -206t-73.5 -136q-57 -66 -150 -97.5t-216 -31.5q-100 0 -204.5 23.5t-176.5 62.5l16 201q72 -43 158 -68t168 -25q55 0 99 12.5t73 41.5 q31 31 43 78t12 118v56q-47 -37 -112.5 -60.5t-143.5 -23.5q-180 0 -272 96q-47 51 -66.5 115.5t-19.5 150.5zM272 1253q0 51 35 86t86 35t85 -35t34 -86t-34 -84.5t-85 -33.5t-86 33.5t-35 84.5zM621 1253q0 51 33.5 86t84.5 35t86 -35t35 -86t-34.5 -84.5t-86.5 -33.5 q-51 0 -84.5 33.5t-33.5 84.5z" />
<glyph unicode="&#x100;" horiz-adv-x="1269" d="M41 0l358 1096h-120v200h505l467 -1296h-295l-88 262h-467l-79 -262h-281zM336 1470v132h479v-132h-479zM459 455h344l-141 422q-14 41 -24.5 82.5t-14.5 76.5h-2q-2 -31 -11.5 -73.5t-21.5 -83.5z" />
<glyph unicode="&#x101;" horiz-adv-x="1110" d="M86 311q0 166 106.5 251t282.5 85q53 0 107.5 -9t93.5 -24v27q0 49 -8.5 82t-30.5 59q-47 53 -166 54q-72 0 -148.5 -18.5t-148.5 -55.5v184q72 33 160 49.5t180 16.5q236 0 346 -105q47 -43 67.5 -105.5t20.5 -148.5v-424q0 -61 47 -61q18 0 43 8t37 19l-10 -156 q-31 -23 -79 -37t-103 -14q-63 0 -111.5 25.5t-64.5 78.5q-41 -53 -113 -81.5t-156 -28.5q-160 0 -256 85t-96 244zM291 1163v131h479v-131h-479zM360 324q0 -82 42 -124t114 -42q76 0 119 47q41 45 41 125v137q-23 10 -63 17.5t-78 7.5q-90 0 -132.5 -48.5t-42.5 -119.5z " />
<glyph unicode="&#x102;" horiz-adv-x="1269" d="M41 0l358 1096h-120v200h505l467 -1296h-295l-88 262h-467l-79 -262h-281zM356 1663h103q10 -53 41.5 -85t91.5 -32q59 0 91 32t42 85h104q-2 -111 -65.5 -172t-171.5 -61q-109 0 -171.5 61t-64.5 172zM459 455h344l-141 422q-14 41 -24.5 82.5t-14.5 76.5h-2 q-2 -31 -11.5 -73.5t-21.5 -83.5z" />
<glyph unicode="&#x103;" horiz-adv-x="1110" d="M86 311q0 166 106.5 251t282.5 85q53 0 107.5 -9t93.5 -24v27q0 49 -8.5 82t-30.5 59q-47 53 -166 54q-72 0 -148.5 -18.5t-148.5 -55.5v184q72 33 160 49.5t180 16.5q236 0 346 -105q47 -43 67.5 -105.5t20.5 -148.5v-424q0 -61 47 -61q18 0 43 8t37 19l-10 -156 q-31 -23 -79 -37t-103 -14q-63 0 -111.5 25.5t-64.5 78.5q-41 -53 -113 -81.5t-156 -28.5q-160 0 -256 85t-96 244zM309 1335h103q10 -53 41.5 -84.5t91.5 -31.5q59 0 91 31.5t42 84.5h104q-2 -111 -65.5 -172t-171.5 -61q-109 0 -171.5 61.5t-64.5 171.5zM360 324 q0 -82 42 -124t114 -42q76 0 119 47q41 45 41 125v137q-23 10 -63 17.5t-78 7.5q-90 0 -132.5 -48.5t-42.5 -119.5z" />
<glyph unicode="&#x104;" horiz-adv-x="1269" d="M41 0l358 1096h-120v200h505l467 -1296h-86q-80 0 -124 -41t-44 -106q0 -59 49.5 -100.5t135.5 -49.5l-23 -78q-141 4 -221 65.5t-80 157.5t92 166l-82 248h-467l-79 -262h-281zM459 455h344l-141 422q-14 41 -24.5 82.5t-14.5 76.5h-2q-2 -31 -11.5 -73.5t-21.5 -83.5z " />
<glyph unicode="&#x105;" horiz-adv-x="1110" d="M86 311q0 166 106.5 251t282.5 85q53 0 107.5 -9t93.5 -24v27q0 49 -8.5 82t-30.5 59q-47 53 -166 54q-72 0 -148.5 -18.5t-148.5 -55.5v184q72 33 160 49.5t180 16.5q236 0 346 -105q47 -43 67.5 -105.5t20.5 -148.5v-424q0 -61 47 -61q18 0 43 8t37 19l-10 -156 q-61 -29 -104 -78t-43 -108t49 -100.5t135 -49.5l-23 -78q-141 4 -221 65.5t-80 157.5q0 80 60 144q-47 6 -82 31.5t-49 68.5q-41 -53 -113 -81.5t-156 -28.5q-160 0 -256 85t-96 244zM360 324q0 -82 42 -124t114 -42q76 0 119 47q41 45 41 125v137q-23 10 -63 17.5t-78 7.5 q-90 0 -132.5 -48.5t-42.5 -119.5z" />
<glyph unicode="&#x106;" horiz-adv-x="1183" d="M72 655q0 137 33.5 259t102 211t176.5 141.5t255 52.5q195 0 315.5 -99.5t149.5 -267.5l-289 -53q-20 94 -62 148.5t-124 54.5q-63 0 -111.5 -32t-80 -88t-47 -136t-15.5 -174q0 -109 18.5 -196t58.5 -148.5t103 -95t154 -33.5q96 0 197.5 35.5t176.5 82.5l-16 -223 q-68 -47 -180.5 -80.5t-237.5 -33.5q-154 0 -263.5 51t-179 141t-102 214t-32.5 269zM397 1470q72 88 146.5 148.5t150.5 60.5q51 0 77 -23.5t26 -60.5q0 -25 -11.5 -51t-25.5 -45q-16 4 -37 7t-37 3q-119 0 -262 -112z" />
<glyph unicode="&#x107;" horiz-adv-x="995" d="M61 492q0 119 32 215t91.5 163.5t146.5 104.5t197 37q164 0 275 -82q53 -41 85 -100.5t48 -135.5l-248 -51q-18 86 -52 135t-106 49q-98 0 -145 -89t-47 -228q0 -170 62.5 -254t197.5 -84q78 0 159 26.5t146 69.5l-10 -192q-63 -41 -156.5 -67.5t-191.5 -26.5 q-229 0 -356.5 131t-127.5 379zM307 1153q72 88 146.5 148.5t150.5 60.5q51 0 77 -23.5t26 -60.5q0 -25 -11.5 -51.5t-25.5 -44.5q-16 4 -37 7t-37 3q-119 0 -262 -113z" />
<glyph unicode="&#x108;" horiz-adv-x="1183" d="M72 655q0 137 33.5 259t102 211t176.5 141.5t255 52.5q195 0 315.5 -99.5t149.5 -267.5l-289 -53q-20 94 -62 148.5t-124 54.5q-63 0 -111.5 -32t-80 -88t-47 -136t-15.5 -174q0 -109 18.5 -196t58.5 -148.5t103 -95t154 -33.5q96 0 197.5 35.5t176.5 82.5l-16 -223 q-68 -47 -180.5 -80.5t-237.5 -33.5q-154 0 -263.5 51t-179 141t-102 214t-32.5 269zM367 1444l172 223q16 23 30.5 32t42.5 9h52q27 0 41 -9t32 -34l170 -221h-162l-108 143l-111 -143h-159z" />
<glyph unicode="&#x109;" horiz-adv-x="995" d="M61 492q0 119 32 215t91.5 163.5t146.5 104.5t197 37q164 0 275 -82q53 -41 85 -100.5t48 -135.5l-248 -51q-18 86 -52 135t-106 49q-98 0 -145 -89t-47 -228q0 -170 62.5 -254t197.5 -84q78 0 159 26.5t146 69.5l-10 -192q-63 -41 -156.5 -67.5t-191.5 -26.5 q-229 0 -356.5 131t-127.5 379zM260 1104l172 223q16 23 30.5 32t43.5 9h51q27 0 41 -9t33 -34l170 -221h-162l-109 143l-110 -143h-160z" />
<glyph unicode="&#x10a;" horiz-adv-x="1183" d="M72 655q0 137 33.5 259t102 211t176.5 141.5t255 52.5q195 0 315.5 -99.5t149.5 -267.5l-289 -53q-20 94 -62 148.5t-124 54.5q-63 0 -111.5 -32t-80 -88t-47 -136t-15.5 -174q0 -109 18.5 -196t58.5 -148.5t103 -95t154 -33.5q96 0 197.5 35.5t176.5 82.5l-16 -223 q-68 -47 -180.5 -80.5t-237.5 -33.5q-154 0 -263.5 51t-179 141t-102 214t-32.5 269zM498 1563q0 55 38.5 92t94.5 37q53 0 92 -38t39 -91q0 -55 -40 -94t-95 -39q-53 0 -91 39.5t-38 93.5z" />
<glyph unicode="&#x10b;" horiz-adv-x="995" d="M61 492q0 119 32 215t91.5 163.5t146.5 104.5t197 37q164 0 275 -82q53 -41 85 -100.5t48 -135.5l-248 -51q-18 86 -52 135t-106 49q-98 0 -145 -89t-47 -228q0 -170 62.5 -254t197.5 -84q78 0 159 26.5t146 69.5l-10 -192q-63 -41 -156.5 -67.5t-191.5 -26.5 q-229 0 -356.5 131t-127.5 379zM401 1249q0 55 39 92t95 37q53 0 92 -38t39 -91q0 -55 -40 -94t-96 -39q-53 0 -91 40t-38 93z" />
<glyph unicode="&#x10c;" horiz-adv-x="1183" d="M72 655q0 137 33.5 259t102 211t176.5 141.5t255 52.5q195 0 315.5 -99.5t149.5 -267.5l-289 -53q-20 94 -62 148.5t-124 54.5q-63 0 -111.5 -32t-80 -88t-47 -136t-15.5 -174q0 -109 18.5 -196t58.5 -148.5t103 -95t154 -33.5q96 0 197.5 35.5t176.5 82.5l-16 -223 q-68 -47 -180.5 -80.5t-237.5 -33.5q-154 0 -263.5 51t-179 141t-102 214t-32.5 269zM371 1690h157l103 -140l100 140h160l-160 -211q-18 -25 -33.5 -33t-40.5 -8h-51q-27 0 -41 9t-30 32z" />
<glyph unicode="&#x10d;" horiz-adv-x="995" d="M61 492q0 119 32 215t91.5 163.5t146.5 104.5t197 37q164 0 275 -82q53 -41 85 -100.5t48 -135.5l-248 -51q-18 86 -52 135t-106 49q-98 0 -145 -89t-47 -228q0 -170 62.5 -254t197.5 -84q78 0 159 26.5t146 69.5l-10 -192q-63 -41 -156.5 -67.5t-191.5 -26.5 q-229 0 -356.5 131t-127.5 379zM266 1368h158l102 -139l101 139h159l-159 -211q-18 -25 -33.5 -33t-40.5 -8h-51q-27 0 -41.5 9.5t-30.5 31.5z" />
<glyph unicode="&#x10e;" horiz-adv-x="1318" d="M37 1096v200h514q158 0 275.5 -23.5t203.5 -80.5q111 -74 164 -207t53 -342q0 -242 -83 -381t-236 -203q-150 -59 -369 -59h-397v1096h-125zM360 1690h158l103 -140l100 140h160l-160 -211q-18 -25 -33.5 -33t-40.5 -8h-51q-27 0 -41 9t-31 32zM446 201h132q154 0 237 59 q76 53 102.5 153.5t26.5 243.5t-28.5 234.5t-94.5 140.5q-47 35 -113.5 49.5t-156.5 14.5h-105v-895z" />
<glyph unicode="&#x10f;" horiz-adv-x="1318" d="M61 453q0 125 37 228t106.5 177t170 114t227.5 40q57 0 115 -11v207h-119v193h391v-1172q0 -61 47 -61q18 0 43 8t37 19l-10 -154q-35 -23 -83 -38t-101 -15q-59 0 -108.5 24.5t-72.5 81.5q-45 -53 -114.5 -82.5t-155.5 -29.5q-193 0 -301.5 122.5t-108.5 348.5zM338 465 q0 -123 47 -205t154 -82q47 0 81.5 15.5t55.5 42.5q23 29 32 65.5t9 89.5v438q-37 10 -94 11q-137 0 -211 -97.5t-74 -277.5zM1047 1024q43 35 74.5 83t39.5 79q-37 12 -59.5 38.5t-22.5 69.5t27 75t78 32q55 0 87 -36t32 -95q0 -41 -15.5 -86t-42 -88t-64.5 -79t-83 -56z " />
<glyph unicode="&#x110;" horiz-adv-x="1316" d="M-12 551v199h174v346h-125v200h512q158 0 275.5 -23.5t203.5 -80.5q111 -74 164 -207t53 -342q0 -242 -83 -381t-236 -203q-150 -59 -369 -59h-395v551h-174zM446 201h129q154 0 238 59q76 53 102.5 153.5t26.5 243.5t-28.5 234.5t-94.5 140.5q-47 35 -113.5 49.5 t-156.5 14.5h-103v-346h199v-199h-199v-350z" />
<glyph unicode="&#x111;" horiz-adv-x="1155" d="M61 453q0 125 37 228t106.5 177t170 114t227.5 40q57 0 115 -11v95h-277v190h277v115h272v-115h141v-190h-141v-867q0 -61 47 -61q18 0 43 8t37 19l-10 -154q-35 -23 -83 -38t-101 -15q-59 0 -108.5 24.5t-72.5 81.5q-45 -53 -114.5 -82.5t-155.5 -29.5 q-193 0 -301.5 122.5t-108.5 348.5zM338 465q0 -123 47 -205t154 -82q47 0 81.5 15.5t55.5 42.5q23 29 32 65.5t9 89.5v438q-37 10 -94 11q-137 0 -211 -97.5t-74 -277.5z" />
<glyph unicode="&#x112;" horiz-adv-x="1093" d="M145 0v1296h820v-200h-535v-338h434v-199h-434v-356h582l-19 -203h-848zM317 1470v132h480v-132h-480z" />
<glyph unicode="&#x113;" horiz-adv-x="1056" d="M61 492q0 123 34 219t96.5 163.5t148.5 102.5t190 35q100 0 184.5 -33t142.5 -92.5t91 -143.5t33 -188q0 -80 -26.5 -113.5t-96.5 -33.5h-516q14 -121 84 -179.5t184 -58.5q86 0 173 27.5t153 72.5l-10 -186q-72 -51 -171.5 -76.5t-199.5 -25.5q-119 0 -211 35.5 t-154.5 102t-95.5 161t-33 211.5zM291 1163v131h479v-131h-479zM338 563h362q19 1 19 21q0 117 -50.5 180t-138.5 63q-78 0 -132 -62.5t-60 -201.5z" />
<glyph unicode="&#x114;" horiz-adv-x="1093" d="M145 0v1296h820v-200h-535v-338h434v-199h-434v-356h582l-19 -203h-848zM319 1663h103q10 -53 42 -85t91 -32t91 32t42 85h105q-2 -111 -65.5 -172t-172.5 -61t-171 61t-65 172z" />
<glyph unicode="&#x115;" horiz-adv-x="1056" d="M61 492q0 123 34 219t96.5 163.5t148.5 102.5t190 35q100 0 184.5 -33t142.5 -92.5t91 -143.5t33 -188q0 -80 -26.5 -113.5t-96.5 -33.5h-516q14 -121 84 -179.5t184 -58.5q86 0 173 27.5t153 72.5l-10 -186q-72 -51 -171.5 -76.5t-199.5 -25.5q-119 0 -211 35.5 t-154.5 102t-95.5 161t-33 211.5zM297 1335h102q10 -53 42 -84.5t91 -31.5t91 31.5t43 84.5h104q-2 -111 -65.5 -172t-172.5 -61t-171 61.5t-64 171.5zM338 563h362q19 1 19 21q0 117 -50.5 180t-138.5 63q-78 0 -132 -62.5t-60 -201.5z" />
<glyph unicode="&#x116;" horiz-adv-x="1093" d="M145 0v1296h820v-200h-535v-338h434v-199h-434v-356h582l-19 -203h-848zM416 1563q0 55 39 92t94 37q53 0 92 -38t39 -91q0 -55 -40 -94t-95 -39q-53 0 -91 39.5t-38 93.5z" />
<glyph unicode="&#x117;" horiz-adv-x="1056" d="M61 492q0 123 34 219t96.5 163.5t148.5 102.5t190 35q100 0 184.5 -33t142.5 -92.5t91 -143.5t33 -188q0 -80 -26.5 -113.5t-96.5 -33.5h-516q14 -121 84 -179.5t184 -58.5q86 0 173 27.5t153 72.5l-10 -186q-72 -51 -171.5 -76.5t-199.5 -25.5q-119 0 -211 35.5 t-154.5 102t-95.5 161t-33 211.5zM338 563h362q19 1 19 21q0 117 -50.5 180t-138.5 63q-78 0 -132 -62.5t-60 -201.5zM395 1249q0 55 39 92t94 37q53 0 92 -38t39 -91q0 -55 -39.5 -94t-95.5 -39q-53 0 -91 40t-38 93z" />
<glyph unicode="&#x118;" horiz-adv-x="1093" d="M145 0v1296h820v-200h-535v-338h434v-199h-434v-356h582l-19 -203h-178q-70 0 -114 -41t-44 -106q0 -59 49.5 -100.5t135.5 -49.5l-23 -78q-141 4 -221 65.5t-80 157.5q0 45 20.5 84t53.5 68h-447z" />
<glyph unicode="&#x119;" horiz-adv-x="1056" d="M61 492q0 123 34 219t96.5 163.5t148.5 102.5t190 35q100 0 184.5 -33t142.5 -92.5t91 -143.5t33 -188q0 -80 -26.5 -113.5t-96.5 -33.5h-516q14 -121 84 -179.5t184 -58.5q86 0 173 27.5t153 72.5l-10 -186q-35 -25 -75 -42t-85 -32q-57 -16 -87 -59t-30 -96 q0 -61 49.5 -102.5t135.5 -49.5l-23 -78q-141 4 -221 65.5t-80 157.5q0 80 51 134h-6q-119 0 -211 35.5t-154.5 102t-95.5 161t-33 211.5zM338 563h362q19 1 19 21q0 117 -50.5 180t-138.5 63q-78 0 -132 -62.5t-60 -201.5z" />
<glyph unicode="&#x11a;" horiz-adv-x="1093" d="M145 0v1296h820v-200h-535v-338h434v-199h-434v-356h582l-19 -203h-848zM313 1690h158l102 -140l101 140h160l-160 -211q-18 -25 -33.5 -33t-40.5 -8h-51q-27 0 -41 9t-31 32z" />
<glyph unicode="&#x11b;" horiz-adv-x="1056" d="M61 492q0 123 34 219t96.5 163.5t148.5 102.5t190 35q100 0 184.5 -33t142.5 -92.5t91 -143.5t33 -188q0 -80 -26.5 -113.5t-96.5 -33.5h-516q14 -121 84 -179.5t184 -58.5q86 0 173 27.5t153 72.5l-10 -186q-72 -51 -171.5 -76.5t-199.5 -25.5q-119 0 -211 35.5 t-154.5 102t-95.5 161t-33 211.5zM268 1368h158l102 -139l101 139h159l-159 -211q-18 -25 -33.5 -33t-40.5 -8h-51q-27 0 -41 9.5t-31 31.5zM338 563h362q19 1 19 21q0 117 -50.5 180t-138.5 63q-78 0 -132 -62.5t-60 -201.5z" />
<glyph unicode="&#x11c;" horiz-adv-x="1290" d="M72 649q0 162 41 288t117.5 210t185 128t243.5 44q213 0 338 -100.5t160 -272.5l-295 -49q-23 92 -71 148.5t-144 56.5q-68 0 -118 -33t-84.5 -91t-52 -139t-17.5 -175q0 -223 75.5 -345t241.5 -122q57 0 108.5 15t88.5 40v207h-156v170h436v-629h-163l-45 74 q-66 -45 -149 -69.5t-183 -24.5q-147 0 -253 50t-173.5 139t-99 212t-31.5 268zM377 1444l172 223q16 23 30.5 32t43.5 9h51q27 0 41 -9t33 -34l170 -221h-162l-109 143l-110 -143h-160z" />
<glyph unicode="&#x11d;" horiz-adv-x="1128" d="M66 455q0 131 42 235.5t116.5 175t181 108.5t235.5 38q43 0 91 -4t95 -12.5t91.5 -19.5t80.5 -24v-915q0 -129 -21.5 -206t-72.5 -136q-57 -66 -150 -97.5t-216 -31.5q-100 0 -205 23.5t-176 62.5l16 201q72 -43 158 -68t168 -25q55 0 99 12.5t73 41.5q31 31 43 78 t12 118v84q-35 -41 -99.5 -69.5t-148.5 -28.5q-199 0 -306 120t-107 339zM324 1104l172 223q16 23 30.5 32t42.5 9h52q27 0 41 -9t32 -34l170 -221h-162l-108 143l-111 -143h-159zM342 473q0 -141 52 -214t151 -73q88 0 137 56q25 27 35 64.5t10 84.5v426q-39 14 -92 14 q-137 0 -215 -96t-78 -262z" />
<glyph unicode="&#x11e;" horiz-adv-x="1290" d="M72 649q0 162 41 288t117.5 210t185 128t243.5 44q213 0 338 -100.5t160 -272.5l-295 -49q-23 92 -71 148.5t-144 56.5q-68 0 -118 -33t-84.5 -91t-52 -139t-17.5 -175q0 -223 75.5 -345t241.5 -122q57 0 108.5 15t88.5 40v207h-156v170h436v-629h-163l-45 74 q-66 -45 -149 -69.5t-183 -24.5q-147 0 -253 50t-173.5 139t-99 212t-31.5 268zM422 1663h102q10 -53 42 -85t91 -32t91 32t43 85h104q-2 -111 -65.5 -172t-172.5 -61t-171 61t-64 172z" />
<glyph unicode="&#x11f;" horiz-adv-x="1128" d="M66 455q0 131 42 235.5t116.5 175t181 108.5t235.5 38q43 0 91 -4t95 -12.5t91.5 -19.5t80.5 -24v-915q0 -129 -21.5 -206t-72.5 -136q-57 -66 -150 -97.5t-216 -31.5q-100 0 -205 23.5t-176 62.5l16 201q72 -43 158 -68t168 -25q55 0 99 12.5t73 41.5q31 31 43 78 t12 118v84q-35 -41 -99.5 -69.5t-148.5 -28.5q-199 0 -306 120t-107 339zM342 473q0 -141 52 -214t151 -73q88 0 137 56q25 27 35 64.5t10 84.5v426q-39 14 -92 14q-137 0 -215 -96t-78 -262zM344 1335h102q10 -53 42 -84.5t92 -31.5q59 0 90.5 31.5t42.5 84.5h104 q-2 -111 -65.5 -172t-171.5 -61q-109 0 -171.5 61.5t-64.5 171.5z" />
<glyph unicode="&#x120;" horiz-adv-x="1290" d="M72 649q0 162 41 288t117.5 210t185 128t243.5 44q213 0 338 -100.5t160 -272.5l-295 -49q-23 92 -71 148.5t-144 56.5q-68 0 -118 -33t-84.5 -91t-52 -139t-17.5 -175q0 -223 75.5 -345t241.5 -122q57 0 108.5 15t88.5 40v207h-156v170h436v-629h-163l-45 74 q-66 -45 -149 -69.5t-183 -24.5q-147 0 -253 50t-173.5 139t-99 212t-31.5 268zM516 1563q0 55 39 92t94 37q53 0 92 -38t39 -91q0 -55 -40 -94t-95 -39q-53 0 -91 39.5t-38 93.5z" />
<glyph unicode="&#x121;" horiz-adv-x="1128" d="M66 455q0 131 42 235.5t116.5 175t181 108.5t235.5 38q43 0 91 -4t95 -12.5t91.5 -19.5t80.5 -24v-915q0 -129 -21.5 -206t-72.5 -136q-57 -66 -150 -97.5t-216 -31.5q-100 0 -205 23.5t-176 62.5l16 201q72 -43 158 -68t168 -25q55 0 99 12.5t73 41.5q31 31 43 78 t12 118v84q-35 -41 -99.5 -69.5t-148.5 -28.5q-199 0 -306 120t-107 339zM342 473q0 -141 52 -214t151 -73q88 0 137 56q25 27 35 64.5t10 84.5v426q-39 14 -92 14q-137 0 -215 -96t-78 -262zM467 1249q0 55 39 92t94 37q53 0 92 -38t39 -91q0 -55 -40 -94t-95 -39 q-53 0 -91 40t-38 93z" />
<glyph unicode="&#x122;" horiz-adv-x="1290" d="M72 649q0 162 41 288t117.5 210t185 128t243.5 44q213 0 338 -100.5t160 -272.5l-295 -49q-23 92 -71 148.5t-144 56.5q-68 0 -118 -33t-84.5 -91t-52 -139t-17.5 -175q0 -223 75.5 -345t241.5 -122q57 0 108.5 15t88.5 40v207h-156v170h436v-629h-163l-45 74 q-66 -45 -149 -69.5t-183 -24.5q-147 0 -253 50t-173.5 139t-99 212t-31.5 268zM524 -471q43 35 75 83t40 79q-37 12 -59.5 38.5t-22.5 69.5t26.5 75t78.5 32q55 0 86.5 -36t31.5 -95q0 -41 -15 -86t-42 -88t-64.5 -79t-83.5 -57z" />
<glyph unicode="&#x123;" horiz-adv-x="1128" d="M66 455q0 131 42 235.5t116.5 175t181 108.5t235.5 38q43 0 91 -4t95 -12.5t91.5 -19.5t80.5 -24v-915q0 -129 -21.5 -206t-72.5 -136q-57 -66 -150 -97.5t-216 -31.5q-100 0 -205 23.5t-176 62.5l16 201q72 -43 158 -68t168 -25q55 0 99 12.5t73 41.5q31 31 43 78 t12 118v84q-35 -41 -99.5 -69.5t-148.5 -28.5q-199 0 -306 120t-107 339zM342 473q0 -141 52 -214t151 -73q88 0 137 56q25 27 35 64.5t10 84.5v426q-39 14 -92 14q-137 0 -215 -96t-78 -262zM465 1231q0 41 15.5 86t42 88t64.5 78t83 57l51 -63q-43 -35 -75 -83t-40 -79 q37 -12 59.5 -39t22.5 -70t-26.5 -74.5t-77.5 -31.5q-55 0 -87 36t-32 95z" />
<glyph unicode="&#x124;" horiz-adv-x="1320" d="M145 0v1296h285v-534h461v534h285v-1296h-285v537h-461v-537h-285zM389 1444l172 223q16 23 30.5 32t43.5 9h51q27 0 41 -9t33 -34l170 -221h-162l-109 143l-110 -143h-160z" />
<glyph unicode="&#x125;" horiz-adv-x="1150" d="M6 1479l172 223q16 23 30.5 32t43.5 9h51q27 0 41 -9.5t33 -33.5l170 -221h-162l-109 143l-110 -143h-160zM141 0v1401h273v-481q41 41 105.5 66.5t150.5 25.5q180 0 272 -97q47 -51 66.5 -115.5t19.5 -150.5v-649h-272v606q0 49 -6.5 83t-26.5 63q-43 55 -129 55 q-49 0 -83 -17.5t-56 -46.5q-25 -33 -33 -74.5t-8 -99.5v-569h-273z" />
<glyph unicode="&#x126;" horiz-adv-x="1320" d="M8 926v196h137v174h285v-174h461v174h285v-174h137v-196h-137v-926h-285v537h-461v-537h-285v926h-137zM430 762h461v164h-461v-164z" />
<glyph unicode="&#x127;" horiz-adv-x="1150" d="M23 1094v190h118v117h273v-117h250v-190h-250v-174q41 41 105.5 66.5t150.5 25.5q180 0 272 -97q47 -51 66.5 -115.5t19.5 -150.5v-649h-272v606q0 49 -6.5 83t-26.5 63q-43 55 -129 55q-49 0 -83 -17.5t-56 -46.5q-25 -33 -33 -74.5t-8 -99.5v-569h-273v1094h-118z" />
<glyph unicode="&#x128;" horiz-adv-x="784" d="M117 0v158h131v977h-131v161h551v-161h-136v-977h136v-158h-551zM141 1450q0 43 6.5 81t22.5 67.5t46 47t79 17.5q31 0 57.5 -11.5t50 -25.5t46 -25.5t47.5 -11.5q16 0 34.5 16.5t26.5 57.5h84q0 -43 -6 -81t-22.5 -67.5t-46 -47t-79.5 -17.5q-33 0 -59.5 11.5t-50 25.5 t-45 25.5t-45.5 11.5q-16 0 -36 -16.5t-28 -57.5h-82z" />
<glyph unicode="&#x129;" d="M49 801v192h391v-764q0 -61 49 -61q18 0 42 8t36 19l-8 -156q-29 -20 -77 -35.5t-103 -15.5q-123 0 -174 69q-20 29 -28.5 70t-8.5 90v584h-119zM49 1133q0 43 6 80.5t22.5 67.5t46.5 47.5t79 17.5q31 0 57.5 -11.5t50 -26t46 -25.5t46.5 -11q16 0 35 16.5t27 57.5h84 q0 -43 -6 -81t-22.5 -68t-46.5 -47t-79 -17q-33 0 -59.5 11t-50 25.5t-45 25.5t-45.5 11q-16 0 -36 -16t-28 -57h-82z" />
<glyph unicode="&#x12a;" horiz-adv-x="784" d="M117 0v158h131v977h-131v161h551v-161h-136v-977h136v-158h-551zM152 1470v132h479v-132h-479z" />
<glyph unicode="&#x12b;" d="M45 1163v131h479v-131h-479zM49 801v192h391v-764q0 -61 49 -61q18 0 42 8t36 19l-8 -156q-29 -20 -77 -35.5t-103 -15.5q-123 0 -174 69q-20 29 -28.5 70t-8.5 90v584h-119z" />
<glyph unicode="&#x12c;" horiz-adv-x="784" d="M117 0v158h131v977h-131v161h551v-161h-136v-977h136v-158h-551zM156 1663h102q10 -53 42 -85t91 -32t91 32t42 85h105q-2 -111 -65.5 -172t-172.5 -61t-171 61t-64 172z" />
<glyph unicode="&#x12d;" d="M49 801v192h391v-764q0 -61 49 -61q18 0 42 8t36 19l-8 -156q-29 -20 -77 -35.5t-103 -15.5q-123 0 -174 69q-20 29 -28.5 70t-8.5 90v584h-119zM59 1335h103q10 -53 42 -84.5t91 -31.5t91 31.5t42 84.5h104q-2 -111 -65.5 -172t-171.5 -61q-109 0 -171.5 61.5 t-64.5 171.5z" />
<glyph unicode="&#x12e;" horiz-adv-x="784" d="M117 0v158h131v977h-131v161h551v-161h-136v-977h136v-158h-74q-70 0 -114 -41t-44 -106q0 -59 49.5 -100.5t135.5 -49.5l-23 -78q-141 4 -221 65.5t-80 157.5q0 45 20.5 84t53.5 68h-254z" />
<glyph unicode="&#x12f;" d="M49 801v192h391v-764q0 -61 47 -61q18 0 43 8t37 19l-10 -156q-61 -29 -104 -78t-43 -108t49 -100.5t135 -49.5l-23 -78q-141 4 -221 65.5t-80 157.5q0 80 58 144q-88 12 -123 65q-20 29 -28.5 70t-8.5 90v584h-119zM145 1264q0 63 44 107t108 44q63 0 106 -44t43 -107 t-42 -107.5t-105 -44.5t-108.5 44t-45.5 108z" />
<glyph unicode="&#x130;" horiz-adv-x="784" d="M117 0v158h131v977h-131v161h551v-161h-136v-977h136v-158h-551zM260 1563q0 55 39 92t94 37q53 0 92 -38t39 -91q0 -55 -40 -94t-95 -39q-53 0 -91 39.5t-38 93.5z" />
<glyph unicode="&#x131;" d="M49 801v192h391v-764q0 -61 49 -61q18 0 42 8t36 19l-8 -156q-29 -20 -77 -35.5t-103 -15.5q-123 0 -174 69q-20 29 -28.5 70t-8.5 90v584h-119z" />
<glyph unicode="&#x132;" horiz-adv-x="1681" d="M117 0v158h131v977h-131v161h551v-161h-136v-977h136v-158h-551zM846 29l12 204q16 -8 42 -16t54.5 -14t59 -10.5t57.5 -4.5q96 0 137 43q25 25 34 62t9 92v711h-331v200h616v-882q0 -100 -10 -166t-45 -119q-47 -72 -134 -110.5t-217 -38.5q-76 0 -151.5 13t-132.5 36z " />
<glyph unicode="&#x133;" horiz-adv-x="1222" d="M49 801v192h391v-764q0 -61 49 -61q18 0 42 8t36 19l-8 -156q-29 -20 -77 -35.5t-103 -15.5q-123 0 -174 69q-20 29 -28.5 70t-8.5 90v584h-119zM145 1264q0 63 44 107t108 44q63 0 106 -44t43 -107t-42 -107.5t-105 -44.5t-108.5 44t-45.5 108zM539 -387l10 188 q68 -29 145 -28q70 0 96.5 37.5t26.5 132.5v858h-125v192h398v-1009q0 -100 -11.5 -171t-52.5 -124q-84 -109 -283 -109q-51 0 -105 8.5t-99 24.5zM795 1264q0 63 44 107t107 44t106.5 -44t43.5 -107t-42 -107.5t-106 -44.5q-63 0 -108 44t-45 108z" />
<glyph unicode="&#x134;" horiz-adv-x="929" d="M94 29l12 204q16 -8 42 -16t54.5 -14t59.5 -10.5t57 -4.5q96 0 138 43q25 25 34 62t9 92v711h-332v200h616v-882q0 -100 -10 -166t-45 -119q-47 -72 -134 -110.5t-216 -38.5q-76 0 -151.5 13t-133.5 36zM213 1444l172 223q16 23 30.5 32t43.5 9h51q27 0 41 -9t33 -34 l170 -221h-162l-109 143l-110 -143h-160z" />
<glyph unicode="&#x135;" horiz-adv-x="612" d="M-72 -387l11 188q68 -29 145 -28q70 0 96.5 37.5t26.5 132.5v858h-125v192h397v-1009q0 -100 -11 -171t-52 -124q-84 -109 -283 -109q-51 0 -105.5 8.5t-99.5 24.5zM35 1104l172 223q16 23 30.5 32t43.5 9h51q27 0 41 -9t33 -34l169 -221h-161l-109 143l-110 -143h-160z " />
<glyph unicode="&#x136;" horiz-adv-x="1261" d="M145 0v1296h285v-536h164l276 536h287l-336 -632l223 -406q23 -39 44.5 -57.5t58.5 -18.5q23 0 47.5 7.5t36.5 17.5l-17 -180q-27 -16 -77 -29.5t-97 -13.5q-92 0 -152.5 46t-119.5 152l-190 348h-148v-530h-285zM487 -471q43 35 75 83t40 79q-37 12 -59.5 38.5 t-22.5 69.5t26.5 75t78.5 32q55 0 86.5 -36t31.5 -95q0 -41 -15 -86t-42 -88t-64.5 -79t-82.5 -57z" />
<glyph unicode="&#x137;" horiz-adv-x="1118" d="M27 1208v193h391v-758h108l203 350h270l-258 -442l197 -326q18 -31 35.5 -44t46.5 -13q43 0 80 27l-8 -162q-27 -20 -70 -32.5t-90 -12.5q-86 0 -137.5 34.5t-96.5 110.5l-184 309h-96v-442h-273v1208h-118zM444 -471q43 35 75 83t40 79q-37 12 -59.5 38.5t-22.5 69.5 t26.5 75t78.5 32q55 0 86.5 -36t31.5 -95q0 -41 -15 -86t-42 -88t-64.5 -79t-82.5 -57z" />
<glyph unicode="&#x138;" horiz-adv-x="1148" d="M37 801v192h391v-377h129l203 377h270l-258 -469l197 -299q20 -31 38.5 -44t47.5 -13q39 0 75 27l-8 -162q-27 -20 -69.5 -32.5t-89.5 -12.5q-88 0 -137.5 35.5t-96.5 109.5l-184 283h-117v-416h-272v801h-119z" />
<glyph unicode="&#x139;" horiz-adv-x="1032" d="M104 1470q72 88 147 148.5t150 60.5q51 0 77 -23.5t26 -60.5q0 -25 -11.5 -51t-25.5 -45q-16 4 -36.5 7t-37.5 3q-119 0 -262 -112zM145 0v1296h285v-1093h557l-16 -203h-826z" />
<glyph unicode="&#x13a;" d="M29 1208v193h391v-1172q0 -61 49 -61q18 0 42 8t36 19l-8 -156q-29 -20 -77 -35.5t-104 -15.5q-123 0 -174 69q-20 29 -28.5 70t-8.5 90v991h-118zM66 1546q72 88 146.5 148.5t149.5 60.5q51 0 77 -23.5t26 -60.5q0 -25 -11.5 -51.5t-25.5 -44.5q-16 4 -36.5 7t-37.5 3 q-119 0 -262 -112z" />
<glyph unicode="&#x13b;" horiz-adv-x="1032" d="M145 0v1296h285v-1093h557l-16 -203h-826zM438 -471q43 35 75 83t40 79q-37 12 -59.5 38.5t-22.5 69.5t26.5 75t77.5 32q55 0 87 -36t32 -95q0 -41 -15 -86t-42 -88t-64.5 -79t-83.5 -57z" />
<glyph unicode="&#x13c;" d="M29 1208v193h391v-1172q0 -61 49 -61q18 0 42 8t36 19l-8 -156q-29 -20 -77 -35.5t-104 -15.5q-123 0 -174 69q-20 29 -28.5 70t-8.5 90v991h-118zM195 -471q43 35 74.5 83t39.5 79q-37 12 -59.5 38.5t-22.5 69.5t27 75t78 32q55 0 87 -36t32 -95q0 -41 -15.5 -86 t-42 -88t-64.5 -79t-83 -57z" />
<glyph unicode="&#x13d;" horiz-adv-x="1032" d="M145 0v1296h285v-1093h557l-16 -203h-826zM535 942q43 35 74.5 83t39.5 79q-37 12 -59.5 38.5t-22.5 69.5t27 75t78 32q55 0 87 -36t32 -95q0 -41 -15.5 -86t-42 -88t-64.5 -79t-83 -56z" />
<glyph unicode="&#x13e;" horiz-adv-x="761" d="M29 1208v193h391v-1172q0 -61 49 -61q18 0 42 8t36 19l-8 -156q-29 -20 -77 -35.5t-104 -15.5q-123 0 -174 69q-20 29 -28.5 70t-8.5 90v991h-118zM489 1024q43 35 75 83t40 79q-37 12 -59.5 38.5t-22.5 69.5t26.5 75t78.5 32q55 0 86.5 -36t31.5 -95q0 -41 -15 -86 t-41.5 -88t-64.5 -79t-83 -56z" />
<glyph unicode="&#x13f;" horiz-adv-x="1032" d="M145 0v1296h285v-1093h557l-16 -203h-826zM508 766q0 55 39 92t94 37q53 0 92 -38t39 -91q0 -55 -40 -94t-95 -39q-53 0 -91 40t-38 93z" />
<glyph unicode="&#x140;" horiz-adv-x="798" d="M29 1208v193h391v-1172q0 -61 49 -61q18 0 42 8t36 19l-8 -156q-29 -20 -77 -35.5t-104 -15.5q-123 0 -174 69q-20 29 -28.5 70t-8.5 90v991h-118zM506 791q0 55 39 92t94 37q53 0 92 -38t39 -91q0 -55 -40 -94.5t-95 -39.5q-53 0 -91 40t-38 94z" />
<glyph unicode="&#x141;" horiz-adv-x="1042" d="M-23 453v219l168 61v563h287v-462l238 88v-215l-238 -91v-413h565l-16 -203h-836v514z" />
<glyph unicode="&#x142;" d="M-31 522v221l178 72v393h-118v193h391v-477l180 71v-221l-180 -72v-473q0 -61 49 -61q18 0 42 8t36 19l-8 -156q-29 -20 -77 -35.5t-104 -15.5q-123 0 -174 69q-20 29 -28.5 70t-8.5 90v377z" />
<glyph unicode="&#x143;" horiz-adv-x="1335" d="M145 0v1296h183l557 -721q51 -63 65 -110v831h240v-1296h-189l-555 721q-20 27 -36.5 55.5t-24.5 54.5v-831h-240zM467 1470q72 88 146.5 148.5t150.5 60.5q51 0 76.5 -23.5t25.5 -60.5q0 -25 -11 -51t-26 -45q-16 4 -36.5 7t-36.5 3q-119 0 -262 -112z" />
<glyph unicode="&#x144;" horiz-adv-x="1165" d="M37 801v192h280l50 -127q49 66 128.5 106t188.5 40q180 0 272 -97q47 -51 66.5 -115.5t19.5 -150.5v-649h-272v606q0 49 -6 83t-27 63q-43 55 -129 55q-49 0 -82.5 -17.5t-56.5 -46.5q-25 -33 -33 -74.5t-8 -99.5v-569h-272v801h-119zM416 1153q72 88 146.5 148.5 t150.5 60.5q51 0 76.5 -23.5t25.5 -60.5q0 -25 -11 -51.5t-26 -44.5q-16 4 -36.5 7t-36.5 3q-119 0 -263 -113z" />
<glyph unicode="&#x145;" horiz-adv-x="1335" d="M145 0v1296h183l557 -721q51 -63 65 -110v831h240v-1296h-189l-555 721q-20 27 -36.5 55.5t-24.5 54.5v-831h-240zM530 -471q43 35 75 83t40 79q-37 12 -59.5 38.5t-22.5 69.5t26.5 75t78.5 32q55 0 86.5 -36t31.5 -95q0 -41 -15 -86t-42 -88t-64.5 -79t-82.5 -57z" />
<glyph unicode="&#x146;" horiz-adv-x="1165" d="M37 801v192h280l50 -127q49 66 128.5 106t188.5 40q180 0 272 -97q47 -51 66.5 -115.5t19.5 -150.5v-649h-272v606q0 49 -6 83t-27 63q-43 55 -129 55q-49 0 -82.5 -17.5t-56.5 -46.5q-25 -33 -33 -74.5t-8 -99.5v-569h-272v801h-119zM461 -471q43 35 74.5 83t39.5 79 q-37 12 -59 38.5t-22 69.5t26.5 75t77.5 32q55 0 87 -36t32 -95q0 -41 -15.5 -86t-42 -88t-64.5 -79t-83 -57z" />
<glyph unicode="&#x147;" horiz-adv-x="1335" d="M145 0v1296h183l557 -721q51 -63 65 -110v831h240v-1296h-189l-555 721q-20 27 -36.5 55.5t-24.5 54.5v-831h-240zM406 1690h157l103 -140l100 140h160l-160 -211q-18 -25 -33.5 -33t-40.5 -8h-51q-27 0 -41 9t-31 32z" />
<glyph unicode="&#x148;" horiz-adv-x="1165" d="M37 801v192h280l50 -127q49 66 128.5 106t188.5 40q180 0 272 -97q47 -51 66.5 -115.5t19.5 -150.5v-649h-272v606q0 49 -6 83t-27 63q-43 55 -129 55q-49 0 -82.5 -17.5t-56.5 -46.5q-25 -33 -33 -74.5t-8 -99.5v-569h-272v801h-119zM344 1368h158l102 -139l101 139h159 l-159 -211q-18 -25 -34 -33t-40 -8h-51q-27 0 -41.5 9.5t-30.5 31.5z" />
<glyph unicode="&#x149;" horiz-adv-x="1478" d="M-39 846q59 41 100 101.5t49 107.5q-47 12 -78.5 45t-31.5 86t36.5 93t100.5 40q70 0 109.5 -44t39.5 -118q0 -53 -18.5 -110.5t-52 -110.5t-80.5 -98t-103 -72zM350 801v192h280l50 -127q49 66 128.5 106t188.5 40q180 0 272 -97q47 -51 66.5 -115.5t19.5 -150.5v-649 h-272v606q0 49 -6 83t-27 63q-43 55 -129 55q-49 0 -82.5 -17.5t-56.5 -46.5q-25 -33 -33 -74.5t-8 -99.5v-569h-272v801h-119z" />
<glyph unicode="&#x14a;" horiz-adv-x="1335" d="M145 0v1296h183l557 -721q51 -63 65 -110v831h240v-1210q0 -100 -11.5 -171t-52.5 -124q-84 -109 -282 -108q-51 0 -105.5 8t-99.5 24l10 189q33 -14 75 -21.5t81 -7.5q72 0 108.5 38t36.5 132v23l-504 653q-20 27 -36.5 55.5t-24.5 54.5v-831h-240z" />
<glyph unicode="&#x14b;" horiz-adv-x="1165" d="M37 801v192h280l50 -127q49 66 128.5 106t188.5 40q180 0 272 -97q47 -51 66.5 -115.5t19.5 -150.5v-563q0 -100 -11 -171t-52 -124q-84 -109 -283 -108q-51 0 -105 8t-99 24l10 189q68 -29 145 -29q70 0 96.5 38t26.5 132v561q0 49 -6 83t-27 63q-43 55 -129 55 q-49 0 -82.5 -17.5t-56.5 -46.5q-25 -33 -33 -74.5t-8 -99.5v-569h-272v801h-119z" />
<glyph unicode="&#x14c;" horiz-adv-x="1282" d="M72 649q0 150 35.5 274t106.5 212t177.5 136t249.5 48t249.5 -48t177.5 -136t106.5 -212t35.5 -274q0 -152 -35.5 -274.5t-106.5 -210.5t-177.5 -136t-249.5 -48t-249.5 48t-177.5 136t-106.5 211t-35.5 274zM375 649q0 -240 71.5 -345t194.5 -105t194.5 105t71.5 345 t-71.5 345.5t-194.5 105.5t-194.5 -105.5t-71.5 -345.5zM399 1470v132h480v-132h-480z" />
<glyph unicode="&#x14d;" horiz-adv-x="1089" d="M61 496q0 242 124 379t360 137t359.5 -137t123.5 -379t-124 -378t-359 -136q-236 0 -360 136t-124 378zM305 1163v131h479v-131h-479zM338 496q0 -90 14.5 -152.5t41 -101.5t65.5 -56.5t86 -17.5t86 17.5t65.5 56.5t41 101.5t14.5 152.5t-14.5 153.5t-41 102.5t-65.5 56 t-86 17q-96 0 -151.5 -74.5t-55.5 -254.5z" />
<glyph unicode="&#x14e;" horiz-adv-x="1282" d="M72 649q0 150 35.5 274t106.5 212t177.5 136t249.5 48t249.5 -48t177.5 -136t106.5 -212t35.5 -274q0 -152 -35.5 -274.5t-106.5 -210.5t-177.5 -136t-249.5 -48t-249.5 48t-177.5 136t-106.5 211t-35.5 274zM375 649q0 -240 71.5 -345t194.5 -105t194.5 105t71.5 345 t-71.5 345.5t-194.5 105.5t-194.5 -105.5t-71.5 -345.5zM403 1663h103q10 -53 42 -85t91 -32t91 32t42 85h105q-2 -111 -65.5 -172t-172.5 -61t-171 61t-65 172z" />
<glyph unicode="&#x14f;" horiz-adv-x="1089" d="M61 496q0 242 124 379t360 137t359.5 -137t123.5 -379t-124 -378t-359 -136q-236 0 -360 136t-124 378zM307 1335h103q10 -53 41.5 -84.5t91.5 -31.5q59 0 91 31.5t42 84.5h104q-2 -111 -65.5 -172t-171.5 -61q-109 0 -171.5 61.5t-64.5 171.5zM338 496 q0 -90 14.5 -152.5t41 -101.5t65.5 -56.5t86 -17.5t86 17.5t65.5 56.5t41 101.5t14.5 152.5t-14.5 153.5t-41 102.5t-65.5 56t-86 17q-96 0 -151.5 -74.5t-55.5 -254.5z" />
<glyph unicode="&#x150;" horiz-adv-x="1282" d="M72 649q0 150 35.5 274t106.5 212t177.5 136t249.5 48t249.5 -48t177.5 -136t106.5 -212t35.5 -274q0 -152 -35.5 -274.5t-106.5 -210.5t-177.5 -136t-249.5 -48t-249.5 48t-177.5 136t-106.5 211t-35.5 274zM297 1448q20 49 45 96t55.5 84t66.5 59.5t81 22.5 q51 0 77.5 -22.5t26.5 -61.5q0 -20 -11 -45t-26 -37q-31 10 -61 10q-63 0 -109.5 -37.5t-105.5 -119.5zM375 649q0 -240 71.5 -345t194.5 -105t194.5 105t71.5 345t-71.5 345.5t-194.5 105.5t-194.5 -105.5t-71.5 -345.5zM639 1448q20 49 45 96t55.5 84t67.5 59.5t82 22.5 q51 0 77.5 -22.5t26.5 -61.5q0 -20 -11 -45t-26 -37q-31 10 -61 10q-63 0 -109.5 -37.5t-105.5 -119.5z" />
<glyph unicode="&#x151;" horiz-adv-x="1089" d="M61 496q0 242 124 379t360 137t359.5 -137t123.5 -379t-124 -378t-359 -136q-236 0 -360 136t-124 378zM199 1120q20 49 44.5 96.5t55.5 84t66.5 59t80.5 22.5q51 0 78 -22.5t27 -61.5q0 -20 -11.5 -44.5t-25.5 -36.5q-31 10 -61 10q-63 0 -109.5 -38t-105.5 -120z M338 496q0 -90 14.5 -152.5t41 -101.5t65.5 -56.5t86 -17.5t86 17.5t65.5 56.5t41 101.5t14.5 152.5t-14.5 153.5t-41 102.5t-65.5 56t-86 17q-96 0 -151.5 -74.5t-55.5 -254.5zM541 1120q20 49 44.5 96.5t55.5 84t67.5 59t82.5 22.5q51 0 77.5 -22.5t26.5 -61.5 q0 -20 -11.5 -44.5t-25.5 -36.5q-31 10 -61 10q-63 0 -109.5 -38t-105.5 -120z" />
<glyph unicode="&#x152;" horiz-adv-x="1853" d="M78 649q0 152 38 276t111.5 211t182 135t249.5 48q49 0 93.5 -3t90.5 -8t99 -8.5t121 -3.5h657v-200h-555v-338h447v-197h-447v-358h602l-18 -203h-676q-59 0 -110.5 -3t-99.5 -7t-98 -7t-106 -3q-141 0 -249.5 47t-182 135t-111.5 212t-38 275zM379 649 q0 -238 74.5 -344t205.5 -106q68 0 114 10t73 37q20 20 27.5 46.5t7.5 69.5v576q0 84 -52 123q-57 39 -170 39q-131 0 -205.5 -106.5t-74.5 -344.5z" />
<glyph unicode="&#x153;" horiz-adv-x="1746" d="M61 496q0 242 124 379t360 137q113 0 199.5 -33t148.5 -94q127 127 328 127q100 0 183 -33t142.5 -92.5t91 -143.5t31.5 -188q0 -80 -25.5 -113.5t-97.5 -33.5h-514q14 -121 84 -179.5t184 -58.5q86 0 173.5 27.5t152.5 72.5l-10 -186q-72 -51 -171 -76.5t-200 -25.5 q-115 0 -202 33.5t-150 93.5q-61 -61 -148.5 -94t-199.5 -33q-236 0 -360 136t-124 378zM338 496q0 -90 14.5 -152.5t41 -101.5t65.5 -56.5t86 -17.5t86 17.5t65.5 56.5t41 101.5t14.5 152.5t-14.5 153.5t-41 102.5t-65.5 56t-86 17q-96 0 -151.5 -74.5t-55.5 -254.5z M1028 563h358q21 1 21 21q0 117 -49 180t-137 63q-78 0 -132.5 -60t-60.5 -204z" />
<glyph unicode="&#x154;" horiz-adv-x="1292" d="M39 1096v200h569q135 0 228.5 -19.5t158.5 -59.5q166 -106 166 -324q0 -156 -68.5 -255t-191.5 -140l148 -252q20 -35 41.5 -49.5t52.5 -14.5q27 0 51.5 9.5t44.5 21.5l-16 -186q-29 -16 -75 -29.5t-93 -13.5q-53 0 -93 11t-72 33.5t-58.5 56.5t-53.5 79l-176 297h-153 v-461h-285v1096h-125zM399 1470q72 88 147 148.5t150 60.5q51 0 77 -23.5t26 -60.5q0 -25 -11.5 -51t-25.5 -45q-16 4 -36.5 7t-37.5 3q-119 0 -262 -112zM449 643h178q129 0 184 58t55 173q0 113 -55 166q-35 31 -89 43.5t-136 12.5h-137v-453z" />
<glyph unicode="&#x155;" horiz-adv-x="747" d="M37 801v192h285l49 -139q37 74 107.5 116t156.5 42q35 0 63 -6v-215q-16 4 -38.5 5t-41.5 1q-94 0 -141 -56q-29 -35 -39 -82t-10 -112v-547h-272v801h-119zM211 1153q72 88 146.5 148.5t150.5 60.5q51 0 76.5 -23.5t25.5 -60.5q0 -25 -11 -51.5t-26 -44.5q-16 4 -36.5 7 t-36.5 3q-119 0 -262 -113z" />
<glyph unicode="&#x156;" horiz-adv-x="1292" d="M39 1096v200h569q135 0 228.5 -19.5t158.5 -59.5q166 -106 166 -324q0 -156 -68.5 -255t-191.5 -140l148 -252q20 -35 41.5 -49.5t52.5 -14.5q27 0 51.5 9.5t44.5 21.5l-16 -186q-29 -16 -75 -29.5t-93 -13.5q-53 0 -93 11t-72 33.5t-58.5 56.5t-53.5 79l-176 297h-153 v-461h-285v1096h-125zM449 643h178q129 0 184 58t55 173q0 113 -55 166q-35 31 -89 43.5t-136 12.5h-137v-453zM530 -471q43 35 75 83t40 79q-37 12 -59.5 38.5t-22.5 69.5t26.5 75t78.5 32q55 0 86.5 -36t31.5 -95q0 -41 -15 -86t-42 -88t-64.5 -79t-82.5 -57z" />
<glyph unicode="&#x157;" horiz-adv-x="747" d="M37 801v192h285l49 -139q37 74 107.5 116t156.5 42q35 0 63 -6v-215q-16 4 -38.5 5t-41.5 1q-94 0 -141 -56q-29 -35 -39 -82t-10 -112v-547h-272v801h-119zM156 -471q43 35 74.5 83t39.5 79q-37 12 -59.5 38.5t-22.5 69.5t27 75t78 32q55 0 87 -36t32 -95 q0 -41 -15.5 -86t-42 -88t-64.5 -79t-83 -57z" />
<glyph unicode="&#x158;" horiz-adv-x="1292" d="M39 1096v200h569q135 0 228.5 -19.5t158.5 -59.5q166 -106 166 -324q0 -156 -68.5 -255t-191.5 -140l148 -252q20 -35 41.5 -49.5t52.5 -14.5q27 0 51.5 9.5t44.5 21.5l-16 -186q-29 -16 -75 -29.5t-93 -13.5q-53 0 -93 11t-72 33.5t-58.5 56.5t-53.5 79l-176 297h-153 v-461h-285v1096h-125zM346 1690h158l102 -140l101 140h159l-159 -211q-18 -25 -34 -33t-40 -8h-51q-27 0 -41.5 9t-30.5 32zM449 643h178q129 0 184 58t55 173q0 113 -55 166q-35 31 -89 43.5t-136 12.5h-137v-453z" />
<glyph unicode="&#x159;" horiz-adv-x="747" d="M37 801v192h285l49 -139q37 74 107.5 116t156.5 42q35 0 63 -6v-215q-16 4 -38.5 5t-41.5 1q-94 0 -141 -56q-29 -35 -39 -82t-10 -112v-547h-272v801h-119zM123 1368h158l102 -139l100 139h160l-160 -211q-18 -25 -33.5 -33t-39.5 -8h-52q-27 0 -41 9.5t-30 31.5z" />
<glyph unicode="&#x15a;" horiz-adv-x="1116" d="M123 926q0 180 126 286.5t365 106.5q88 0 179.5 -17.5t150.5 -37.5l-10 -217q-72 29 -149.5 46t-151.5 17q-117 0 -176.5 -40t-59.5 -109q0 -61 47.5 -96.5t119 -60t153.5 -50t153.5 -69.5t118.5 -116.5t47 -191.5q0 -104 -37.5 -179t-104.5 -123t-157 -71.5t-194 -23.5 t-211 21.5t-197 59.5l12 236q82 -47 188.5 -77t194.5 -30q98 0 164 37t66 115q0 66 -47 100.5t-118 60t-154 50.5t-153.5 68t-117.5 114.5t-47 190.5zM385 1470q72 88 146.5 148.5t150.5 60.5q51 0 76.5 -23.5t25.5 -60.5q0 -25 -11 -51t-25 -45q-16 4 -37 7t-37 3 q-119 0 -262 -112z" />
<glyph unicode="&#x15b;" horiz-adv-x="937" d="M102 698q0 74 30 132.5t84 98.5t130 61.5t166 21.5q72 0 148.5 -11.5t130.5 -31.5v-193q-53 23 -120 37t-141 14q-78 0 -127 -26.5t-49 -75.5q0 -39 38 -61.5t95.5 -41t124 -38t124 -53t95 -90t37.5 -146.5q0 -78 -30.5 -137.5t-85 -98.5t-127 -58t-158.5 -19 q-94 0 -189.5 16t-171.5 51l17 205q66 -39 158 -62.5t168 -23.5q80 0 123.5 24.5t43.5 73.5q0 43 -37.5 66.5t-95 41t-124 36t-124 52.5t-95.5 89t-38 147zM291 1153q72 88 146.5 148.5t150.5 60.5q51 0 76.5 -23.5t25.5 -60.5q0 -25 -11 -51.5t-26 -44.5q-16 4 -36.5 7 t-36.5 3q-119 0 -263 -113z" />
<glyph unicode="&#x15c;" horiz-adv-x="1116" d="M123 926q0 180 126 286.5t365 106.5q88 0 179.5 -17.5t150.5 -37.5l-10 -217q-72 29 -149.5 46t-151.5 17q-117 0 -176.5 -40t-59.5 -109q0 -61 47.5 -96.5t119 -60t153.5 -50t153.5 -69.5t118.5 -116.5t47 -191.5q0 -104 -37.5 -179t-104.5 -123t-157 -71.5t-194 -23.5 t-211 21.5t-197 59.5l12 236q82 -47 188.5 -77t194.5 -30q98 0 164 37t66 115q0 66 -47 100.5t-118 60t-154 50.5t-153.5 68t-117.5 114.5t-47 190.5zM317 1444l172 223q16 23 31 32t43 9h51q27 0 41.5 -9t32.5 -34l170 -221h-162l-108 143l-111 -143h-160z" />
<glyph unicode="&#x15d;" horiz-adv-x="937" d="M102 698q0 74 30 132.5t84 98.5t130 61.5t166 21.5q72 0 148.5 -11.5t130.5 -31.5v-193q-53 23 -120 37t-141 14q-78 0 -127 -26.5t-49 -75.5q0 -39 38 -61.5t95.5 -41t124 -38t124 -53t95 -90t37.5 -146.5q0 -78 -30.5 -137.5t-85 -98.5t-127 -58t-158.5 -19 q-94 0 -189.5 16t-171.5 51l17 205q66 -39 158 -62.5t168 -23.5q80 0 123.5 24.5t43.5 73.5q0 43 -37.5 66.5t-95 41t-124 36t-124 52.5t-95.5 89t-38 147zM211 1104l172 223q16 23 30.5 32t43.5 9h51q27 0 41 -9t33 -34l170 -221h-162l-109 143l-110 -143h-160z" />
<glyph unicode="&#x15e;" horiz-adv-x="1116" d="M123 926q0 180 126 286.5t365 106.5q88 0 179.5 -17.5t150.5 -37.5l-10 -217q-72 29 -149.5 46t-151.5 17q-117 0 -176.5 -40t-59.5 -109q0 -61 47.5 -96.5t119 -60t153.5 -50t153.5 -69.5t118.5 -116.5t47 -191.5q0 -98 -34.5 -171t-94 -121t-142.5 -73.5t-177 -29.5 q-2 -8 -2 -21q0 -20 30.5 -31.5t68.5 -26t68.5 -38t30.5 -68.5q0 -74 -63.5 -121t-196.5 -45l-26 82q72 4 113.5 16.5t41.5 39.5q0 25 -29.5 38t-64.5 24t-64.5 27.5t-29.5 47.5q0 29 22 76q-92 4 -183 24.5t-169 54.5l12 236q82 -47 188.5 -77t194.5 -30q98 0 164 37 t66 115q0 66 -47 100.5t-118 60t-154 50.5t-153.5 68t-117.5 114.5t-47 190.5z" />
<glyph unicode="&#x15f;" horiz-adv-x="937" d="M102 698q0 74 30 132.5t84 98.5t130 61.5t166 21.5q72 0 148.5 -11.5t130.5 -31.5v-193q-53 23 -120 37t-141 14q-78 0 -127 -26.5t-49 -75.5q0 -39 38 -61.5t95.5 -41t124 -38t124 -53t95 -90t37.5 -146.5q0 -74 -27.5 -131.5t-77.5 -96t-117.5 -60t-147.5 -23.5 q-2 -8 -2 -23q0 -20 30.5 -31.5t68.5 -26t68.5 -38t30.5 -68.5q0 -74 -63.5 -121t-196.5 -45l-26 82q72 4 113.5 16.5t41.5 39.5q0 25 -29.5 38t-64.5 24t-64.5 27.5t-29.5 47.5t22 78q-78 6 -153.5 21t-137.5 44l17 205q66 -39 158 -62.5t168 -23.5q80 0 123.5 24.5 t43.5 73.5q0 43 -37.5 66.5t-95 41t-124 36t-124 52.5t-95.5 89t-38 147z" />
<glyph unicode="&#x160;" horiz-adv-x="1116" d="M123 926q0 180 126 286.5t365 106.5q88 0 179.5 -17.5t150.5 -37.5l-10 -217q-72 29 -149.5 46t-151.5 17q-117 0 -176.5 -40t-59.5 -109q0 -61 47.5 -96.5t119 -60t153.5 -50t153.5 -69.5t118.5 -116.5t47 -191.5q0 -104 -37.5 -179t-104.5 -123t-157 -71.5t-194 -23.5 t-211 21.5t-197 59.5l12 236q82 -47 188.5 -77t194.5 -30q98 0 164 37t66 115q0 66 -47 100.5t-118 60t-154 50.5t-153.5 68t-117.5 114.5t-47 190.5zM315 1690h158l102 -140l101 140h160l-160 -211q-18 -25 -33.5 -33t-40.5 -8h-51q-27 0 -41 9t-31 32z" />
<glyph unicode="&#x161;" horiz-adv-x="937" d="M102 698q0 74 30 132.5t84 98.5t130 61.5t166 21.5q72 0 148.5 -11.5t130.5 -31.5v-193q-53 23 -120 37t-141 14q-78 0 -127 -26.5t-49 -75.5q0 -39 38 -61.5t95.5 -41t124 -38t124 -53t95 -90t37.5 -146.5q0 -78 -30.5 -137.5t-85 -98.5t-127 -58t-158.5 -19 q-94 0 -189.5 16t-171.5 51l17 205q66 -39 158 -62.5t168 -23.5q80 0 123.5 24.5t43.5 73.5q0 43 -37.5 66.5t-95 41t-124 36t-124 52.5t-95.5 89t-38 147zM227 1368h158l102 -139l101 139h160l-160 -211q-18 -25 -33.5 -33t-40.5 -8h-51q-27 0 -41 9.5t-31 31.5z" />
<glyph unicode="&#x162;" horiz-adv-x="1107" d="M41 1096v200h1026v-200h-371v-1096h-284v1096h-371zM414 -471q43 35 74.5 83t39.5 79q-37 12 -59.5 38.5t-22.5 69.5t27 75t78 32q55 0 87 -36t32 -95q0 -41 -15.5 -86t-42 -88t-64.5 -79t-83 -57z" />
<glyph unicode="&#x163;" horiz-adv-x="792" d="M27 801v192h155v246l273 68v-314h229v-192h-229v-479q0 -72 22.5 -109t85.5 -37q43 0 88 15.5t80 37.5l-6 -182q-43 -29 -110.5 -47t-137.5 -18q-72 0 -131 21.5t-94 57.5q-39 41 -54.5 99.5t-15.5 156.5v484h-155zM311 -467q43 35 75 83t40 79q-37 12 -59.5 38.5 t-22.5 69.5t26.5 75t78.5 32q55 0 86.5 -36t31.5 -95q0 -41 -15 -86t-42 -88t-64.5 -79t-83.5 -56z" />
<glyph unicode="&#x164;" horiz-adv-x="1107" d="M41 1096v200h1026v-200h-371v-1096h-284v1096h-371zM295 1690h158l102 -140l100 140h160l-160 -211q-18 -25 -33.5 -33t-39.5 -8h-52q-27 0 -41 9t-30 32z" />
<glyph unicode="&#x165;" horiz-adv-x="792" d="M27 801v192h155v246l273 68v-314h229v-192h-229v-479q0 -72 22.5 -109t85.5 -37q43 0 88 15.5t80 37.5l-6 -182q-43 -29 -110.5 -47t-137.5 -18q-72 0 -131 21.5t-94 57.5q-39 41 -54.5 99.5t-15.5 156.5v484h-155zM557 1169q43 35 75 83t40 79q-37 12 -59.5 39t-22.5 70 t26.5 74.5t77.5 31.5q55 0 87 -36t32 -95q0 -41 -15.5 -86t-42 -88t-64.5 -79t-83 -56z" />
<glyph unicode="&#x166;" horiz-adv-x="1107" d="M41 1096v200h1026v-200h-371v-330h265v-197h-265v-569h-284v569h-265v197h265v330h-371z" />
<glyph unicode="&#x167;" horiz-adv-x="792" d="M27 801v192h155v246l273 68v-314h229v-192h-229v-185h170v-190h-170v-104q0 -72 22.5 -109t85.5 -37q43 0 88 15.5t80 37.5l-6 -182q-43 -29 -110.5 -47t-137.5 -18q-72 0 -131 21.5t-94 57.5q-39 41 -54.5 99.5t-15.5 156.5v109h-116v190h116v185h-155z" />
<glyph unicode="&#x168;" horiz-adv-x="1300" d="M143 469v827h287v-815q0 -78 10.5 -126t36.5 -83q55 -72 176 -71q63 0 105.5 18.5t68.5 48.5q33 41 42.5 94.5t9.5 116.5v817h278v-817q0 -111 -20.5 -192.5t-71.5 -147.5q-125 -160 -418 -159q-274 0 -399 137q-59 66 -82 146.5t-23 205.5zM408 1450q0 43 6 81 t22.5 67.5t46 47t78.5 17.5q31 0 57.5 -11.5t50 -25.5t46 -25.5t47.5 -11.5q16 0 34.5 16.5t26.5 57.5h84q0 -43 -6 -81t-22.5 -67.5t-46 -47t-78.5 -17.5q-33 0 -59.5 11.5t-50 25.5t-45 25.5t-46.5 11.5q-16 0 -35.5 -16.5t-28.5 -57.5h-81z" />
<glyph unicode="&#x169;" horiz-adv-x="1175" d="M123 344v649h272v-606q0 -49 6.5 -83t26.5 -62q43 -55 129 -56q49 0 83 17.5t56 46.5q25 33 33 75t8 99v569h273v-764q0 -61 49 -61q18 0 41.5 8t36.5 19l-11 -154q-35 -23 -82 -38t-100 -15q-59 0 -107.5 24.5t-68.5 77.5q-49 -51 -122 -79.5t-165 -28.5q-180 0 -272 96 q-47 51 -66.5 115.5t-19.5 150.5zM313 1133q0 43 6.5 80.5t22.5 67.5t46 47.5t79 17.5q31 0 57.5 -11.5t50 -26t46 -25.5t47.5 -11q16 0 34.5 16.5t26.5 57.5h84q0 -43 -6 -81t-22.5 -68t-46 -47t-79.5 -17q-33 0 -59.5 11t-50 25.5t-45 25.5t-45.5 11q-16 0 -36 -16 t-28 -57h-82z" />
<glyph unicode="&#x16a;" horiz-adv-x="1300" d="M143 469v827h287v-815q0 -78 10.5 -126t36.5 -83q55 -72 176 -71q63 0 105.5 18.5t68.5 48.5q33 41 42.5 94.5t9.5 116.5v817h278v-817q0 -111 -20.5 -192.5t-71.5 -147.5q-125 -160 -418 -159q-274 0 -399 137q-59 66 -82 146.5t-23 205.5zM414 1470v132h479v-132h-479z " />
<glyph unicode="&#x16b;" horiz-adv-x="1175" d="M123 344v649h272v-606q0 -49 6.5 -83t26.5 -62q43 -55 129 -56q49 0 83 17.5t56 46.5q25 33 33 75t8 99v569h273v-764q0 -61 49 -61q18 0 41.5 8t36.5 19l-11 -154q-35 -23 -82 -38t-100 -15q-59 0 -107.5 24.5t-68.5 77.5q-49 -51 -122 -79.5t-165 -28.5q-180 0 -272 96 q-47 51 -66.5 115.5t-19.5 150.5zM326 1163v131h479v-131h-479z" />
<glyph unicode="&#x16c;" horiz-adv-x="1300" d="M143 469v827h287v-815q0 -78 10.5 -126t36.5 -83q55 -72 176 -71q63 0 105.5 18.5t68.5 48.5q33 41 42.5 94.5t9.5 116.5v817h278v-817q0 -111 -20.5 -192.5t-71.5 -147.5q-125 -160 -418 -159q-274 0 -399 137q-59 66 -82 146.5t-23 205.5zM416 1663h102q10 -53 42 -85 t91 -32t91 32t42 85h105q-2 -111 -65.5 -172t-172.5 -61t-171 61t-64 172z" />
<glyph unicode="&#x16d;" horiz-adv-x="1175" d="M123 344v649h272v-606q0 -49 6.5 -83t26.5 -62q43 -55 129 -56q49 0 83 17.5t56 46.5q25 33 33 75t8 99v569h273v-764q0 -61 49 -61q18 0 41.5 8t36.5 19l-11 -154q-35 -23 -82 -38t-100 -15q-59 0 -107.5 24.5t-68.5 77.5q-49 -51 -122 -79.5t-165 -28.5q-180 0 -272 96 q-47 51 -66.5 115.5t-19.5 150.5zM330 1335h102q10 -53 42 -84.5t91 -31.5t91 31.5t42 84.5h105q-2 -111 -65.5 -172t-172.5 -61t-171 61.5t-64 171.5z" />
<glyph unicode="&#x16e;" horiz-adv-x="1300" d="M143 469v827h287v-815q0 -78 10.5 -126t36.5 -83q55 -72 176 -71q63 0 105.5 18.5t68.5 48.5q33 41 42.5 94.5t9.5 116.5v817h278v-817q0 -111 -20.5 -192.5t-71.5 -147.5q-125 -160 -418 -159q-274 0 -399 137q-59 66 -82 146.5t-23 205.5zM473 1583q0 80 54.5 128 t125.5 48q72 0 126.5 -48t54.5 -128t-54.5 -128t-126.5 -48t-126 48t-54 128zM580 1583q0 -35 19 -57.5t54 -22.5t54.5 22.5t19.5 57.5t-19.5 57.5t-54.5 22.5t-54 -22.5t-19 -57.5z" />
<glyph unicode="&#x16f;" horiz-adv-x="1175" d="M123 344v649h272v-606q0 -49 6.5 -83t26.5 -62q43 -55 129 -56q49 0 83 17.5t56 46.5q25 33 33 75t8 99v569h273v-764q0 -61 49 -61q18 0 41.5 8t36.5 19l-11 -154q-35 -23 -82 -38t-100 -15q-59 0 -107.5 24.5t-68.5 77.5q-49 -51 -122 -79.5t-165 -28.5q-180 0 -272 96 q-47 51 -66.5 115.5t-19.5 150.5zM385 1276q0 80 54.5 128t125.5 48q72 0 126 -48t54 -128t-54 -128t-126 -48t-126 48t-54 128zM492 1276q0 -35 19 -57.5t54 -22.5t54.5 22.5t19.5 57.5t-19.5 57.5t-54.5 22.5t-54 -22.5t-19 -57.5z" />
<glyph unicode="&#x170;" horiz-adv-x="1300" d="M143 469v827h287v-815q0 -78 10.5 -126t36.5 -83q55 -72 176 -71q63 0 105.5 18.5t68.5 48.5q33 41 42.5 94.5t9.5 116.5v817h278v-817q0 -111 -20.5 -192.5t-71.5 -147.5q-125 -160 -418 -159q-274 0 -399 137q-59 66 -82 146.5t-23 205.5zM313 1448q20 49 45 96 t55.5 84t66.5 59.5t81 22.5q51 0 78 -22.5t27 -61.5q0 -20 -11.5 -45t-25.5 -37q-31 10 -62 10q-63 0 -109 -37.5t-106 -119.5zM655 1448q20 49 45 96t55.5 84t67.5 59.5t82 22.5q51 0 78 -22.5t27 -61.5q0 -20 -11.5 -45t-25.5 -37q-31 10 -62 10q-63 0 -109 -37.5 t-106 -119.5z" />
<glyph unicode="&#x171;" horiz-adv-x="1175" d="M123 344v649h272v-606q0 -49 6.5 -83t26.5 -62q43 -55 129 -56q49 0 83 17.5t56 46.5q25 33 33 75t8 99v569h273v-764q0 -61 49 -61q18 0 41.5 8t36.5 19l-11 -154q-35 -23 -82 -38t-100 -15q-59 0 -107.5 24.5t-68.5 77.5q-49 -51 -122 -79.5t-165 -28.5q-180 0 -272 96 q-47 51 -66.5 115.5t-19.5 150.5zM231 1120q20 49 45 96.5t55.5 84t66.5 59t81 22.5q51 0 78 -22.5t27 -61.5q0 -20 -11.5 -44.5t-25.5 -36.5q-31 10 -62 10q-63 0 -109 -38t-106 -120zM573 1120q20 49 45 96.5t56 84t67.5 59t81.5 22.5q51 0 78 -22.5t27 -61.5 q0 -20 -11.5 -44.5t-25.5 -36.5q-31 10 -62 10q-63 0 -109 -38t-106 -120z" />
<glyph unicode="&#x172;" horiz-adv-x="1300" d="M143 469v827h287v-815q0 -78 10.5 -126t36.5 -83q55 -72 176 -71q63 0 105.5 18.5t68.5 48.5q33 41 42.5 94.5t9.5 116.5v817h278v-817q0 -111 -20.5 -192.5t-71.5 -147.5q-57 -74 -150 -112q-131 -61 -131 -174q0 -59 49.5 -100.5t135.5 -49.5l-23 -78q-141 4 -221 65.5 t-80 157.5q0 74 49 134q-10 -2 -22.5 -2h-24.5q-274 0 -399 137q-59 66 -82 146.5t-23 205.5z" />
<glyph unicode="&#x173;" horiz-adv-x="1175" d="M123 344v649h272v-606q0 -49 6.5 -83t26.5 -62q43 -55 129 -56q49 0 83 17.5t56 46.5q25 33 33 75t8 99v569h273v-764q0 -61 47 -61q18 0 42.5 8t37.5 19l-11 -156q-61 -29 -104 -78t-43 -108t49 -100.5t135 -49.5l-22 -78q-141 4 -221 65.5t-80 157.5q0 80 59 144 q-47 6 -82 30.5t-49 67.5q-49 -51 -122 -79.5t-165 -28.5q-180 0 -272 96q-47 51 -66.5 115.5t-19.5 150.5z" />
<glyph unicode="&#x174;" horiz-adv-x="1751" d="M20 1296h285l246 -811q10 -33 19.5 -75.5t9.5 -73.5h2q2 33 10 76t16 69l172 541l-82 274h269l231 -807q10 -33 17.5 -75.5t7.5 -77.5h4q2 35 9 79t15 77l211 804h271l-390 -1296h-260l-194 657l-205 -657h-254zM604 1442l172 223q16 23 30.5 32t43.5 9h51q27 0 41 -9 t33 -34l170 -221h-162l-109 143l-110 -143h-160z" />
<glyph unicode="&#x175;" horiz-adv-x="1431" d="M10 993h269l167 -522q16 -47 25.5 -88t13.5 -82q6 76 39 172l105 315l-66 205h248l154 -518q14 -47 23 -91t11 -87q4 41 13.5 86t23.5 92l156 518h229l-327 -993h-213l-158 492l-162 -492h-207zM446 1104l172 223q16 23 31 32t43 9h51q27 0 41.5 -9t32.5 -34l170 -221 h-162l-108 143l-111 -143h-160z" />
<glyph unicode="&#x176;" horiz-adv-x="1202" d="M6 1296h318l247 -485q18 -37 32.5 -74t19.5 -69h2q4 33 15 65.5t32 73.5l239 489h279l-451 -850v-446h-284v451zM352 1444l172 223q16 23 30.5 32t43.5 9h51q27 0 41.5 -9t32.5 -34l170 -221h-162l-108 143l-111 -143h-160z" />
<glyph unicode="&#x177;" horiz-adv-x="1140" d="M123 344v649h272v-606q0 -49 6.5 -83t26.5 -62q43 -55 129 -56q49 0 83 17.5t56 46.5q25 33 33 75t8 99v569h273v-956q0 -129 -21.5 -206t-73.5 -136q-57 -66 -150 -97.5t-216 -31.5q-100 0 -204.5 23.5t-176.5 62.5l16 201q72 -43 158 -68t168 -25q55 0 99 12.5t73 41.5 q31 31 43 78t12 118v56q-47 -37 -112.5 -60.5t-143.5 -23.5q-180 0 -272 96q-47 51 -66.5 115.5t-19.5 150.5zM299 1104l172 223q16 23 30.5 32t43.5 9h51q27 0 41 -9t33 -34l170 -221h-162l-109 143l-110 -143h-160z" />
<glyph unicode="&#x178;" horiz-adv-x="1202" d="M6 1296h318l247 -485q18 -37 32.5 -74t19.5 -69h2q4 33 15 65.5t32 73.5l239 489h279l-451 -850v-446h-284v451zM317 1548q0 51 35 86t86 35t85 -35t34 -86t-34 -84.5t-85 -33.5t-86 33.5t-35 84.5zM666 1548q0 51 33.5 86t84.5 35t86 -35t35 -86t-34.5 -84.5 t-86.5 -33.5q-51 0 -84.5 33.5t-33.5 84.5z" />
<glyph unicode="&#x179;" horiz-adv-x="1105" d="M104 0v158l566 938h-543v200h885v-157l-566 -936h594l-18 -203h-918zM362 1470q72 88 147 148.5t150 60.5q51 0 77 -23.5t26 -60.5q0 -25 -11.5 -51t-25.5 -45q-16 4 -36.5 7t-37.5 3q-119 0 -262 -112z" />
<glyph unicode="&#x17a;" horiz-adv-x="929" d="M88 0v147l444 654h-434v192h740v-149l-443 -651h475l-14 -193h-768zM264 1153q72 88 146.5 148.5t150.5 60.5q51 0 77 -23.5t26 -60.5q0 -25 -11.5 -51.5t-25.5 -44.5q-16 4 -37 7t-37 3q-119 0 -262 -113z" />
<glyph unicode="&#x17b;" horiz-adv-x="1105" d="M104 0v158l566 938h-543v200h885v-157l-566 -936h594l-18 -203h-918zM442 1563q0 55 39 92t94 37q53 0 92.5 -38t39.5 -91q0 -55 -40 -94t-96 -39q-53 0 -91 39.5t-38 93.5z" />
<glyph unicode="&#x17c;" horiz-adv-x="929" d="M88 0v147l444 654h-434v192h740v-149l-443 -651h475l-14 -193h-768zM340 1249q0 55 39 92t94 37q53 0 92 -38t39 -91q0 -55 -40 -94t-95 -39q-53 0 -91 40t-38 93z" />
<glyph unicode="&#x17d;" horiz-adv-x="1105" d="M104 0v158l566 938h-543v200h885v-157l-566 -936h594l-18 -203h-918zM301 1690h158l102 -140l101 140h159l-159 -211q-18 -25 -34 -33t-40 -8h-51q-27 0 -41.5 9t-30.5 32z" />
<glyph unicode="&#x17e;" horiz-adv-x="929" d="M88 0v147l444 654h-434v192h740v-149l-443 -651h475l-14 -193h-768zM203 1368h157l103 -139l100 139h160l-160 -211q-18 -25 -33.5 -33t-40.5 -8h-51q-27 0 -41 9.5t-30 31.5z" />
<glyph unicode="&#x17f;" horiz-adv-x="673" d="M18 801v192h156v90q0 84 15.5 144.5t58.5 107.5q84 90 266 90q53 0 115.5 -10t105.5 -26v-179q-35 12 -80 20.5t-86 8.5q-70 0 -96 -37q-27 -33 -27 -108v-1094h-272v801h-156z" />
<glyph unicode="&#x192;" horiz-adv-x="1058" d="M4 -424l8 178q29 -10 75 -22.5t85 -12.5q78 0 115 45q20 25 30.5 61t16.5 89l65 541h-194v192h219l35 287q12 100 35.5 168.5t68.5 116.5q49 53 122 76.5t171 23.5q27 0 56.5 -3t57 -8t51 -10.5t38.5 -11.5l-8 -178q-29 10 -75 18.5t-85 8.5q-84 0 -118 -48.5t-44 -144.5 l-35 -295h211v-192h-235l-66 -533q-12 -96 -36.5 -166.5t-69.5 -117.5q-94 -100 -291 -101q-53 0 -110.5 12.5t-92.5 26.5z" />
<glyph unicode="&#x2c6;" d="M45 1104l172 223q16 23 30.5 32t43.5 9h51q27 0 41 -9t33 -34l170 -221h-162l-109 143l-110 -143h-160z" />
<glyph unicode="&#x2c7;" d="M55 1368h158l102 -139l101 139h159l-159 -211q-18 -25 -33.5 -33t-40.5 -8h-51q-27 0 -41 9.5t-31 31.5z" />
<glyph unicode="&#x2d8;" d="M80 1343h102q10 -53 42 -84.5t91 -31.5t91 31.5t43 84.5h104q-2 -111 -65.5 -172t-172.5 -61t-171 61.5t-64 171.5z" />
<glyph unicode="&#x2d9;" d="M182 1255q0 55 39 92t94 37q53 0 92 -38t39 -91q0 -55 -39.5 -94t-95.5 -39q-53 0 -91 40t-38 93z" />
<glyph unicode="&#x2da;" d="M135 1276q0 80 54.5 128t125.5 48q72 0 126.5 -48t54.5 -128t-54.5 -128t-126.5 -48t-126 48t-54 128zM242 1276q0 -35 19.5 -57.5t53.5 -22.5q35 0 54.5 22.5t19.5 57.5t-19.5 57.5t-54.5 22.5t-54 -22.5t-19 -57.5z" />
<glyph unicode="&#x2db;" d="M150 -152q0 80 58 140.5t163 87.5l84 -35q-74 -23 -120 -74t-46 -114q0 -59 49 -100.5t135 -49.5l-22 -78q-141 4 -221 65.5t-80 157.5z" />
<glyph unicode="&#x2dc;" d="M66 1133q0 43 6 80.5t22.5 67.5t46 47.5t78.5 17.5q31 0 57.5 -11.5t50 -26t46 -25.5t47.5 -11q16 0 34.5 16.5t26.5 57.5h84q0 -43 -6 -81t-22.5 -68t-46 -47t-78.5 -17q-33 0 -59.5 11t-50 25.5t-45 25.5t-46.5 11q-16 0 -35.5 -16t-28.5 -57h-81z" />
<glyph unicode="&#x2dd;" d="M-33 1100q20 49 45 96t55.5 84t66.5 59.5t81 22.5q51 0 77.5 -22.5t26.5 -61.5q0 -20 -11 -45t-25 -37q-31 10 -62 10q-63 0 -109 -38t-106 -119zM309 1100q20 49 45 96t55.5 84t67.5 59.5t82 22.5q51 0 78 -22.5t27 -61.5q0 -20 -11.5 -45t-25.5 -37q-31 10 -62 10 q-63 0 -109 -38t-106 -119z" />
<glyph unicode="&#x2000;" horiz-adv-x="879" />
<glyph unicode="&#x2001;" horiz-adv-x="1759" />
<glyph unicode="&#x2002;" horiz-adv-x="879" />
<glyph unicode="&#x2003;" horiz-adv-x="1759" />
<glyph unicode="&#x2004;" horiz-adv-x="586" />
<glyph unicode="&#x2005;" horiz-adv-x="439" />
<glyph unicode="&#x2006;" horiz-adv-x="293" />
<glyph unicode="&#x2007;" horiz-adv-x="293" />
<glyph unicode="&#x2008;" horiz-adv-x="219" />
<glyph unicode="&#x2009;" horiz-adv-x="351" />
<glyph unicode="&#x200a;" horiz-adv-x="97" />
<glyph unicode="&#x2010;" horiz-adv-x="782" d="M125 395v203h534v-203h-534z" />
<glyph unicode="&#x2011;" horiz-adv-x="782" d="M125 395v203h534v-203h-534z" />
<glyph unicode="&#x2012;" horiz-adv-x="782" d="M125 395v203h534v-203h-534z" />
<glyph unicode="&#x2013;" horiz-adv-x="1024" d="M0 457v155h1024v-155h-1024z" />
<glyph unicode="&#x2014;" horiz-adv-x="2048" d="M0 457v155h2048v-155h-2048z" />
<glyph unicode="&#x2018;" horiz-adv-x="487" d="M92 928q0 53 18.5 110.5t52.5 110.5t81 97t102 73l72 -80q-59 -41 -100.5 -101.5t-49.5 -107.5q47 -12 79 -45t32 -86t-37 -93t-100 -40q-70 0 -110 44t-40 118z" />
<glyph unicode="&#x2019;" horiz-adv-x="487" d="M70 846q59 41 100 101.5t49 107.5q-47 12 -78.5 45t-31.5 86t36.5 93t100.5 40q70 0 109.5 -44t39.5 -118q0 -53 -18.5 -110.5t-52 -110.5t-80.5 -98t-103 -72z" />
<glyph unicode="&#x201a;" horiz-adv-x="487" d="M70 -268q59 41 100 101.5t49 107.5q-47 12 -78.5 44.5t-31.5 86.5q0 53 36.5 93t100.5 40q70 0 109.5 -44t39.5 -118q0 -53 -18.5 -110.5t-52 -110.5t-80.5 -98.5t-103 -71.5z" />
<glyph unicode="&#x201c;" horiz-adv-x="835" d="M92 928q0 53 18.5 110.5t52.5 110.5t81 97t102 73l72 -80q-59 -41 -100.5 -101.5t-49.5 -107.5q47 -12 79 -45t32 -86t-37 -93t-100 -40q-70 0 -110 44t-40 118zM440 928q0 53 18.5 110.5t52.5 110.5t81 97t102 73l72 -80q-59 -41 -100 -101.5t-50 -107.5q47 -12 79 -45 t32 -86t-37 -93t-100 -40q-70 0 -110 44t-40 118z" />
<glyph unicode="&#x201d;" horiz-adv-x="835" d="M70 846q59 41 100 101.5t49 107.5q-47 12 -78.5 45t-31.5 86t36.5 93t100.5 40q70 0 109.5 -44t39.5 -118q0 -53 -18.5 -110.5t-52 -110.5t-80.5 -98t-103 -72zM418 846q59 41 100 101.5t49 107.5q-47 12 -78.5 45t-31.5 86t36.5 93t100.5 40q70 0 109.5 -44t39.5 -118 q0 -53 -18 -110.5t-52 -110.5t-81 -98t-103 -72z" />
<glyph unicode="&#x201e;" horiz-adv-x="835" d="M70 -268q59 41 100 101.5t49 107.5q-47 12 -78.5 44.5t-31.5 86.5q0 53 36.5 93t100.5 40q70 0 109.5 -44t39.5 -118q0 -53 -18.5 -110.5t-52 -110.5t-80.5 -98.5t-103 -71.5zM418 -268q59 41 100 101.5t49 107.5q-47 12 -78.5 44.5t-31.5 86.5q0 53 36.5 93t100.5 40 q70 0 109.5 -44t39.5 -118q0 -53 -18 -110.5t-52 -110.5t-81 -98.5t-103 -71.5z" />
<glyph unicode="&#x2020;" horiz-adv-x="1142" d="M68 807q0 61 34.5 82.5t100.5 11.5l315 -41l-45 324q-10 61 9.5 98t84.5 37q61 0 84 -35t13 -100l-46 -326l324 43q66 10 100.5 -11.5t34.5 -82.5q0 -63 -36.5 -81.5t-98.5 -10.5l-328 43l50 -1082q4 -66 -15.5 -100.5t-81.5 -34.5q-63 0 -80.5 38t-13.5 97l49 1082 l-319 -43q-61 -10 -98 9t-37 83z" />
<glyph unicode="&#x2021;" horiz-adv-x="1142" d="M63 49q0 92 97 92h18t19 -2l327 -45q-10 82 -25.5 165t-15.5 165q0 88 15.5 172t25.5 170l-327 -45q-10 -2 -18.5 -2h-18.5q-96 0 -97 92q0 92 97 92h18t19 -2l325 -43l-43 328q-2 10 -2 18v19q0 96 92 96t93 -96v-18.5t-3 -18.5l-43 -328l326 43q10 2 18.5 2h18.5 q96 0 96 -92t-96 -92h-18.5t-18.5 2l-328 45q10 -86 24.5 -171t14.5 -171q0 -84 -14 -165t-25 -163l328 43q10 2 18.5 2h18.5q96 0 96 -92t-96 -92h-18.5t-18.5 2l-326 43l43 -328q2 -10 2.5 -18t0.5 -18q0 -96 -93 -97q-92 0 -92 97v18t2 18l43 328l-325 -43 q-10 -2 -18.5 -2h-18.5q-96 0 -97 92z" />
<glyph unicode="&#x2022;" horiz-adv-x="741" d="M123 643q0 51 19.5 96t53 78t78.5 52.5t97 19.5q51 0 96 -19.5t79 -52.5t53 -78t19 -96t-19 -97t-53 -80t-79 -53.5t-96 -19.5t-96.5 19.5t-79 53.5t-53 80t-19.5 97z" />
<glyph unicode="&#x2026;" horiz-adv-x="1374" d="M115 125q0 57 41 97t98 40t97 -40t40 -97t-40 -98t-97 -41t-98 41t-41 98zM549 125q0 57 40 97t97 40t98 -40t41 -97t-41 -98t-98 -41t-97 41t-40 98zM983 125q0 57 40 97t97 40t98.5 -40t41.5 -97t-41 -98t-99 -41q-57 0 -97 41t-40 98z" />
<glyph unicode="&#x202f;" horiz-adv-x="351" />
<glyph unicode="&#x2030;" horiz-adv-x="2447" d="M123 936q0 178 80 280.5t233 102.5q154 0 233 -102.5t79 -280.5t-79 -280.5t-233 -102.5t-233.5 102.5t-79.5 280.5zM317 936q0 -129 29 -181.5t90 -52.5t90 52.5t29 181.5t-28.5 181t-90.5 52q-61 0 -90 -52t-29 -181zM561 -18l434 1337h209l-434 -1337h-209zM1014 365 q0 178 78.5 280.5t232.5 102.5t233.5 -102.5t79.5 -280.5t-79.5 -280.5t-233.5 -102.5t-232.5 102t-78.5 281zM1206 365q0 -129 29 -181.5t90 -52.5t90 52.5t29 181.5t-29 181t-90 52t-90 -52t-29 -181zM1702 365q0 178 79 280.5t232 102.5q154 0 234 -102.5t80 -280.5 t-80 -280.5t-234 -102.5t-232.5 102t-78.5 281zM1894 365q0 -129 29 -181.5t90 -52.5t90 52.5t29 181.5t-28.5 181t-90.5 52q-61 0 -90 -52t-29 -181z" />
<glyph unicode="&#x2039;" horiz-adv-x="704" d="M143 496q0 16 8.5 29.5t18.5 25.5l315 328l52 -152l-179 -231l179 -232l-52 -151l-315 327q-27 27 -27 56z" />
<glyph unicode="&#x203a;" horiz-adv-x="704" d="M168 264l178 232l-178 231l51 152l316 -328q10 -12 18 -24.5t8 -30.5q0 -29 -26 -56l-316 -327z" />
<glyph unicode="&#x2044;" horiz-adv-x="530" d="M-51 -18l430 1337h203l-430 -1337h-203z" />
<glyph unicode="&#x205f;" horiz-adv-x="439" />
<glyph unicode="&#x20ac;" horiz-adv-x="1142" d="M-20 438v148h131q-2 14 -2 27.5v27.5v21.5t2 21.5h-131v147h143q18 109 59 198t106.5 153.5t156 100.5t204.5 36q176 0 294 -95.5t147 -271.5l-275 -53q-8 37 -20.5 73t-32 64.5t-50 47t-73.5 18.5q-55 0 -95 -24.5t-67.5 -64.5t-43 -88t-23.5 -94h247v-147h-260v-12 v-43.5t2 -42.5h258v-148h-233q31 -113 100.5 -176t190.5 -63q90 0 186 34.5t170 83.5l-16 -223q-41 -29 -89 -50t-100.5 -35.5t-105.5 -21.5t-103 -7q-225 0 -356 121.5t-172 336.5h-149z" />
<glyph unicode="&#x2122;" horiz-adv-x="1519" d="M66 1180v116h559v-116h-199v-545h-162v545h-198zM692 635v661h158l201 -434l188 434h147v-661h-139v366l-162 -366h-84l-170 373v-373h-139z" />
<glyph unicode="&#xe000;" horiz-adv-x="993" d="M0 0v993h993v-993h-993z" />
</font>
</defs>
</svg>
